M48
METRIC,TZ
T1C1.000
T2C1.500
%
G90
G05
T1
X123952Y-76200
X123952Y-78740
X123952Y-81280
X123952Y-83820
X123952Y-86360
X123952Y-88900
X123952Y-91440
X123952Y-93980
X123952Y-96520
X123952Y-99060
X123952Y-101600
X123952Y-104140
X123952Y-106680
X123952Y-109220
X123952Y-111760
X123952Y-114300
X123952Y-116840
X123952Y-119380
X123952Y-121920
X123952Y-124460
X126492Y-76200
X126492Y-78740
X126492Y-81280
X126492Y-83820
X126492Y-86360
X126492Y-88900
X126492Y-91440
X126492Y-93980
X126492Y-96520
X126492Y-99060
X126492Y-101600
X126492Y-104140
X126492Y-106680
X126492Y-109220
X126492Y-111760
X126492Y-114300
X126492Y-116840
X126492Y-119380
X126492Y-121920
X126492Y-124460
T2
X111917Y-96964
X114457Y-103314
X92317Y-77364
X94857Y-83714
X111917Y-116564
X114457Y-122914
X92317Y-116564
X94857Y-122914
X111917Y-77364
X114457Y-83714
X92317Y-96964
X94857Y-103314
T0
M30
