G04 #@! TF.GenerationSoftware,KiCad,Pcbnew,5.0.0-rc1-44a33f2~62~ubuntu17.10.1*
G04 #@! TF.CreationDate,2018-05-10T22:28:45+09:00*
G04 #@! TF.ProjectId,RaspiCherryMXKeysHat,52617370694368657272794D584B6579,rev?*
G04 #@! TF.SameCoordinates,Original*
G04 #@! TF.FileFunction,Soldermask,Bot*
G04 #@! TF.FilePolarity,Negative*
%FSLAX46Y46*%
G04 Gerber Fmt 4.6, Leading zero omitted, Abs format (unit mm)*
G04 Created by KiCad (PCBNEW 5.0.0-rc1-44a33f2~62~ubuntu17.10.1) date Thu May 10 22:28:45 2018*
%MOMM*%
%LPD*%
G01*
G04 APERTURE LIST*
%ADD10C,5.300000*%
%ADD11R,2.100000X2.100000*%
%ADD12O,2.100000X2.100000*%
%ADD13C,2.600000*%
%ADD14C,4.400000*%
%ADD15C,2.100000*%
G04 APERTURE END LIST*
D10*
X76095000Y-129330000D03*
X125095000Y-129330000D03*
X76095000Y-71330000D03*
X125095000Y-71330000D03*
D11*
X123952000Y-76200000D03*
D12*
X126492000Y-76200000D03*
X123952000Y-78740000D03*
X126492000Y-78740000D03*
X123952000Y-81280000D03*
X126492000Y-81280000D03*
X123952000Y-83820000D03*
X126492000Y-83820000D03*
X123952000Y-86360000D03*
X126492000Y-86360000D03*
X123952000Y-88900000D03*
X126492000Y-88900000D03*
X123952000Y-91440000D03*
X126492000Y-91440000D03*
X123952000Y-93980000D03*
X126492000Y-93980000D03*
X123952000Y-96520000D03*
X126492000Y-96520000D03*
X123952000Y-99060000D03*
X126492000Y-99060000D03*
X123952000Y-101600000D03*
X126492000Y-101600000D03*
X123952000Y-104140000D03*
X126492000Y-104140000D03*
X123952000Y-106680000D03*
X126492000Y-106680000D03*
X123952000Y-109220000D03*
X126492000Y-109220000D03*
X123952000Y-111760000D03*
X126492000Y-111760000D03*
X123952000Y-114300000D03*
X126492000Y-114300000D03*
X123952000Y-116840000D03*
X126492000Y-116840000D03*
X123952000Y-119380000D03*
X126492000Y-119380000D03*
X123952000Y-121920000D03*
X126492000Y-121920000D03*
X123952000Y-124460000D03*
X126492000Y-124460000D03*
D13*
X114457000Y-83714000D03*
X111917000Y-77364000D03*
D14*
X109377000Y-81174000D03*
D15*
X109377000Y-76094000D03*
X109377000Y-86254000D03*
X89776800Y-86254000D03*
X89776800Y-76094000D03*
D14*
X89776800Y-81174000D03*
D13*
X92316800Y-77364000D03*
X94856800Y-83714000D03*
X114457000Y-103314000D03*
X111917000Y-96964000D03*
D14*
X109377000Y-100774000D03*
D15*
X109377000Y-95694000D03*
X109377000Y-105854000D03*
X89776800Y-105854000D03*
X89776800Y-95694000D03*
D14*
X89776800Y-100774000D03*
D13*
X92316800Y-96964000D03*
X94856800Y-103314000D03*
X114457000Y-122914000D03*
X111917000Y-116564000D03*
D14*
X109377000Y-120374000D03*
D15*
X109377000Y-115294000D03*
X109377000Y-125454000D03*
X89776800Y-125454000D03*
X89776800Y-115294000D03*
D14*
X89776800Y-120374000D03*
D13*
X92316800Y-116564000D03*
X94856800Y-122914000D03*
M02*
