M48
METRIC,TZ
T1C1.700
T2C2.700
T3C4.000
%
G90
G05
T1
X89777Y-95694
X89777Y-105854
X109377Y-95694
X89777Y-76094
X89777Y-86254
X109377Y-115294
X109377Y-125454
X89777Y-115294
X89777Y-125454
X109377Y-76094
X109377Y-86254
X109377Y-105854
T2
X76095Y-129330
X76095Y-71330
X125095Y-129330
X125095Y-71330
T3
X89777Y-100774
X109377Y-100774
X89777Y-81174
X109377Y-120374
X89777Y-120374
X109377Y-81174
T0
M30
