G04 #@! TF.GenerationSoftware,KiCad,Pcbnew,5.0.0-rc1-44a33f2~62~ubuntu17.10.1*
G04 #@! TF.CreationDate,2018-05-10T22:28:45+09:00*
G04 #@! TF.ProjectId,RaspiCherryMXKeysHat,52617370694368657272794D584B6579,rev?*
G04 #@! TF.SameCoordinates,Original*
G04 #@! TF.FileFunction,Copper,L2,Bot,Signal*
G04 #@! TF.FilePolarity,Positive*
%FSLAX46Y46*%
G04 Gerber Fmt 4.6, Leading zero omitted, Abs format (unit mm)*
G04 Created by KiCad (PCBNEW 5.0.0-rc1-44a33f2~62~ubuntu17.10.1) date Thu May 10 22:28:45 2018*
%MOMM*%
%LPD*%
G01*
G04 APERTURE LIST*
%ADD10R,1.700000X1.700000*%
%ADD11O,1.700000X1.700000*%
%ADD12C,2.200000*%
%ADD13C,0.254000*%
G04 APERTURE END LIST*
D10*
X123952000Y-76200000D03*
D11*
X126492000Y-76200000D03*
X123952000Y-78740000D03*
X126492000Y-78740000D03*
X123952000Y-81280000D03*
X126492000Y-81280000D03*
X123952000Y-83820000D03*
X126492000Y-83820000D03*
X123952000Y-86360000D03*
X126492000Y-86360000D03*
X123952000Y-88900000D03*
X126492000Y-88900000D03*
X123952000Y-91440000D03*
X126492000Y-91440000D03*
X123952000Y-93980000D03*
X126492000Y-93980000D03*
X123952000Y-96520000D03*
X126492000Y-96520000D03*
X123952000Y-99060000D03*
X126492000Y-99060000D03*
X123952000Y-101600000D03*
X126492000Y-101600000D03*
X123952000Y-104140000D03*
X126492000Y-104140000D03*
X123952000Y-106680000D03*
X126492000Y-106680000D03*
X123952000Y-109220000D03*
X126492000Y-109220000D03*
X123952000Y-111760000D03*
X126492000Y-111760000D03*
X123952000Y-114300000D03*
X126492000Y-114300000D03*
X123952000Y-116840000D03*
X126492000Y-116840000D03*
X123952000Y-119380000D03*
X126492000Y-119380000D03*
X123952000Y-121920000D03*
X126492000Y-121920000D03*
X123952000Y-124460000D03*
X126492000Y-124460000D03*
D12*
X114457000Y-83714000D03*
X111917000Y-77364000D03*
X92316800Y-77364000D03*
X94856800Y-83714000D03*
X114457000Y-103314000D03*
X111917000Y-96964000D03*
X92316800Y-96964000D03*
X94856800Y-103314000D03*
X114457000Y-122914000D03*
X111917000Y-116564000D03*
X92316800Y-116564000D03*
X94856800Y-122914000D03*
D13*
G36*
X129032000Y-133413076D02*
X127008119Y-133406330D01*
X127333675Y-133240451D01*
X127333683Y-133240447D01*
X127358069Y-133226367D01*
X127400309Y-133201981D01*
X127400322Y-133201972D01*
X127734763Y-132984783D01*
X127734772Y-132984778D01*
X127773226Y-132956839D01*
X127797012Y-132939558D01*
X127797023Y-132939548D01*
X128106929Y-132688591D01*
X128106939Y-132688584D01*
X128147982Y-132651628D01*
X128164111Y-132637106D01*
X128164120Y-132637096D01*
X128446106Y-132355111D01*
X128497584Y-132297939D01*
X128497591Y-132297929D01*
X128748548Y-131988023D01*
X128748558Y-131988012D01*
X128784490Y-131938555D01*
X128793778Y-131925772D01*
X128793783Y-131925763D01*
X129010980Y-131591310D01*
X129026789Y-131563929D01*
X129032000Y-131554903D01*
X129032000Y-133413076D01*
X129032000Y-133413076D01*
G37*
X129032000Y-133413076D02*
X127008119Y-133406330D01*
X127333675Y-133240451D01*
X127333683Y-133240447D01*
X127358069Y-133226367D01*
X127400309Y-133201981D01*
X127400322Y-133201972D01*
X127734763Y-132984783D01*
X127734772Y-132984778D01*
X127773226Y-132956839D01*
X127797012Y-132939558D01*
X127797023Y-132939548D01*
X128106929Y-132688591D01*
X128106939Y-132688584D01*
X128147982Y-132651628D01*
X128164111Y-132637106D01*
X128164120Y-132637096D01*
X128446106Y-132355111D01*
X128497584Y-132297939D01*
X128497591Y-132297929D01*
X128748548Y-131988023D01*
X128748558Y-131988012D01*
X128784490Y-131938555D01*
X128793778Y-131925772D01*
X128793783Y-131925763D01*
X129010980Y-131591310D01*
X129026789Y-131563929D01*
X129032000Y-131554903D01*
X129032000Y-133413076D01*
G36*
X72157019Y-131591309D02*
X72157028Y-131591322D01*
X72374217Y-131925763D01*
X72374222Y-131925772D01*
X72383510Y-131938555D01*
X72419442Y-131988012D01*
X72419452Y-131988023D01*
X72670409Y-132297929D01*
X72670416Y-132297939D01*
X72694806Y-132325027D01*
X72721894Y-132355111D01*
X72721904Y-132355120D01*
X73003889Y-132637106D01*
X73061061Y-132688584D01*
X73061071Y-132688591D01*
X73370977Y-132939548D01*
X73370988Y-132939558D01*
X73394774Y-132956839D01*
X73433228Y-132984778D01*
X73433237Y-132984783D01*
X73767686Y-133201978D01*
X73767691Y-133201981D01*
X73814521Y-133229018D01*
X72136000Y-133223423D01*
X72136000Y-131554901D01*
X72157019Y-131591309D01*
X72157019Y-131591309D01*
G37*
X72157019Y-131591309D02*
X72157028Y-131591322D01*
X72374217Y-131925763D01*
X72374222Y-131925772D01*
X72383510Y-131938555D01*
X72419442Y-131988012D01*
X72419452Y-131988023D01*
X72670409Y-132297929D01*
X72670416Y-132297939D01*
X72694806Y-132325027D01*
X72721894Y-132355111D01*
X72721904Y-132355120D01*
X73003889Y-132637106D01*
X73061061Y-132688584D01*
X73061071Y-132688591D01*
X73370977Y-132939548D01*
X73370988Y-132939558D01*
X73394774Y-132956839D01*
X73433228Y-132984778D01*
X73433237Y-132984783D01*
X73767686Y-133201978D01*
X73767691Y-133201981D01*
X73814521Y-133229018D01*
X72136000Y-133223423D01*
X72136000Y-131554901D01*
X72157019Y-131591309D01*
G36*
X123352020Y-68721445D02*
X122486445Y-69587020D01*
X122018000Y-70717947D01*
X122018000Y-71942053D01*
X122486445Y-73072980D01*
X123352020Y-73938555D01*
X124482947Y-74407000D01*
X125707053Y-74407000D01*
X126837980Y-73938555D01*
X127703555Y-73072980D01*
X128170000Y-71946881D01*
X128170001Y-128713121D01*
X127703555Y-127587020D01*
X126837980Y-126721445D01*
X125707053Y-126253000D01*
X124482947Y-126253000D01*
X123352020Y-126721445D01*
X122486445Y-127587020D01*
X122018000Y-128717947D01*
X122018000Y-129942053D01*
X122486445Y-131072980D01*
X123352020Y-131938555D01*
X124432248Y-132386000D01*
X76757752Y-132386000D01*
X77837980Y-131938555D01*
X78703555Y-131072980D01*
X79172000Y-129942053D01*
X79172000Y-128717947D01*
X78703555Y-127587020D01*
X77837980Y-126721445D01*
X76707053Y-126253000D01*
X75482947Y-126253000D01*
X74352020Y-126721445D01*
X73486445Y-127587020D01*
X73018000Y-128717947D01*
X73018000Y-129620902D01*
X73015849Y-129607322D01*
X72996993Y-129247532D01*
X72988951Y-129171020D01*
X72973000Y-129095979D01*
X72973000Y-125225279D01*
X88280082Y-125225279D01*
X88291800Y-125487208D01*
X88291800Y-125749385D01*
X88304949Y-125781130D01*
X88306485Y-125815458D01*
X88481541Y-126238080D01*
X88496158Y-126242749D01*
X88517878Y-126295185D01*
X88935615Y-126712922D01*
X88988051Y-126734642D01*
X88992720Y-126749259D01*
X89239192Y-126838668D01*
X89481415Y-126939000D01*
X89515776Y-126939000D01*
X89548079Y-126950718D01*
X89810008Y-126939000D01*
X90072185Y-126939000D01*
X90103930Y-126925851D01*
X90138258Y-126924315D01*
X90560880Y-126749259D01*
X90565549Y-126734642D01*
X90617985Y-126712922D01*
X91035722Y-126295185D01*
X91057442Y-126242749D01*
X91072059Y-126238080D01*
X91161468Y-125991608D01*
X91261800Y-125749385D01*
X91261800Y-125715024D01*
X91273518Y-125682721D01*
X91261800Y-125420792D01*
X91261800Y-125225279D01*
X107880282Y-125225279D01*
X107892000Y-125487208D01*
X107892000Y-125749385D01*
X107905149Y-125781130D01*
X107906685Y-125815458D01*
X108081741Y-126238080D01*
X108096358Y-126242749D01*
X108118078Y-126295185D01*
X108535815Y-126712922D01*
X108588251Y-126734642D01*
X108592920Y-126749259D01*
X108839392Y-126838668D01*
X109081615Y-126939000D01*
X109115976Y-126939000D01*
X109148279Y-126950718D01*
X109410208Y-126939000D01*
X109672385Y-126939000D01*
X109704130Y-126925851D01*
X109738458Y-126924315D01*
X110161080Y-126749259D01*
X110165749Y-126734642D01*
X110218185Y-126712922D01*
X110635922Y-126295185D01*
X110657642Y-126242749D01*
X110672259Y-126238080D01*
X110761668Y-125991608D01*
X110862000Y-125749385D01*
X110862000Y-125715024D01*
X110873718Y-125682721D01*
X110862000Y-125420792D01*
X110862000Y-125158615D01*
X110848851Y-125126870D01*
X110847315Y-125092542D01*
X110672259Y-124669920D01*
X110657642Y-124665251D01*
X110635922Y-124612815D01*
X110218185Y-124195078D01*
X110165749Y-124173358D01*
X110161080Y-124158741D01*
X109914608Y-124069332D01*
X109672385Y-123969000D01*
X109638024Y-123969000D01*
X109605721Y-123957282D01*
X109343792Y-123969000D01*
X109081615Y-123969000D01*
X109049870Y-123982149D01*
X109015542Y-123983685D01*
X108592920Y-124158741D01*
X108588251Y-124173358D01*
X108535815Y-124195078D01*
X108118078Y-124612815D01*
X108096358Y-124665251D01*
X108081741Y-124669920D01*
X107992332Y-124916392D01*
X107892000Y-125158615D01*
X107892000Y-125192976D01*
X107880282Y-125225279D01*
X91261800Y-125225279D01*
X91261800Y-125158615D01*
X91248651Y-125126870D01*
X91247115Y-125092542D01*
X91072059Y-124669920D01*
X91057442Y-124665251D01*
X91035722Y-124612815D01*
X90617985Y-124195078D01*
X90565549Y-124173358D01*
X90560880Y-124158741D01*
X90314408Y-124069332D01*
X90072185Y-123969000D01*
X90037824Y-123969000D01*
X90005521Y-123957282D01*
X89743592Y-123969000D01*
X89481415Y-123969000D01*
X89449670Y-123982149D01*
X89415342Y-123983685D01*
X88992720Y-124158741D01*
X88988051Y-124173358D01*
X88935615Y-124195078D01*
X88517878Y-124612815D01*
X88496158Y-124665251D01*
X88481541Y-124669920D01*
X88392132Y-124916392D01*
X88291800Y-125158615D01*
X88291800Y-125192976D01*
X88280082Y-125225279D01*
X72973000Y-125225279D01*
X72973000Y-119871012D01*
X87137681Y-119871012D01*
X87141800Y-120384655D01*
X87141800Y-120898134D01*
X87145999Y-120908271D01*
X87146087Y-120919247D01*
X87531057Y-121848647D01*
X87536975Y-121852171D01*
X87542955Y-121866608D01*
X88284192Y-122607845D01*
X88298629Y-122613825D01*
X88302153Y-122619743D01*
X88778283Y-122812504D01*
X89252666Y-123009000D01*
X89263638Y-123009000D01*
X89273812Y-123013119D01*
X89787455Y-123009000D01*
X90300934Y-123009000D01*
X90311071Y-123004801D01*
X90322047Y-123004713D01*
X91251447Y-122619743D01*
X91254971Y-122613825D01*
X91269408Y-122607845D01*
X91308366Y-122568887D01*
X93121800Y-122568887D01*
X93121800Y-123259113D01*
X93385938Y-123896799D01*
X93874001Y-124384862D01*
X94511687Y-124649000D01*
X95201913Y-124649000D01*
X95839599Y-124384862D01*
X96327662Y-123896799D01*
X96591800Y-123259113D01*
X96591800Y-122568887D01*
X96327662Y-121931201D01*
X95839599Y-121443138D01*
X95201913Y-121179000D01*
X94511687Y-121179000D01*
X93874001Y-121443138D01*
X93385938Y-121931201D01*
X93121800Y-122568887D01*
X91308366Y-122568887D01*
X92010645Y-121866608D01*
X92016625Y-121852171D01*
X92022543Y-121848647D01*
X92215304Y-121372517D01*
X92411800Y-120898134D01*
X92411800Y-120887162D01*
X92415919Y-120876988D01*
X92411800Y-120363345D01*
X92411800Y-119871012D01*
X106737881Y-119871012D01*
X106742000Y-120384655D01*
X106742000Y-120898134D01*
X106746199Y-120908271D01*
X106746287Y-120919247D01*
X107131257Y-121848647D01*
X107137175Y-121852171D01*
X107143155Y-121866608D01*
X107884392Y-122607845D01*
X107898829Y-122613825D01*
X107902353Y-122619743D01*
X108378483Y-122812504D01*
X108852866Y-123009000D01*
X108863838Y-123009000D01*
X108874012Y-123013119D01*
X109387655Y-123009000D01*
X109901134Y-123009000D01*
X109911271Y-123004801D01*
X109922247Y-123004713D01*
X110851647Y-122619743D01*
X110855171Y-122613825D01*
X110869608Y-122607845D01*
X110908566Y-122568887D01*
X112722000Y-122568887D01*
X112722000Y-123259113D01*
X112986138Y-123896799D01*
X113474201Y-124384862D01*
X114111887Y-124649000D01*
X114802113Y-124649000D01*
X115439799Y-124384862D01*
X115927862Y-123896799D01*
X116192000Y-123259113D01*
X116192000Y-122568887D01*
X115927862Y-121931201D01*
X115439799Y-121443138D01*
X114802113Y-121179000D01*
X114111887Y-121179000D01*
X113474201Y-121443138D01*
X112986138Y-121931201D01*
X112722000Y-122568887D01*
X110908566Y-122568887D01*
X111610845Y-121866608D01*
X111616825Y-121852171D01*
X111622743Y-121848647D01*
X111815504Y-121372517D01*
X112012000Y-120898134D01*
X112012000Y-120887162D01*
X112016119Y-120876988D01*
X112012000Y-120363345D01*
X112012000Y-119849866D01*
X112007801Y-119839729D01*
X112007713Y-119828753D01*
X111622743Y-118899353D01*
X111616825Y-118895829D01*
X111610845Y-118881392D01*
X110869608Y-118140155D01*
X110855171Y-118134175D01*
X110851647Y-118128257D01*
X110375517Y-117935496D01*
X109901134Y-117739000D01*
X109890162Y-117739000D01*
X109879988Y-117734881D01*
X109366345Y-117739000D01*
X108852866Y-117739000D01*
X108842729Y-117743199D01*
X108831753Y-117743287D01*
X107902353Y-118128257D01*
X107898829Y-118134175D01*
X107884392Y-118140155D01*
X107143155Y-118881392D01*
X107137175Y-118895829D01*
X107131257Y-118899353D01*
X106938496Y-119375483D01*
X106742000Y-119849866D01*
X106742000Y-119860838D01*
X106737881Y-119871012D01*
X92411800Y-119871012D01*
X92411800Y-119849866D01*
X92407601Y-119839729D01*
X92407513Y-119828753D01*
X92022543Y-118899353D01*
X92016625Y-118895829D01*
X92010645Y-118881392D01*
X91269408Y-118140155D01*
X91254971Y-118134175D01*
X91251447Y-118128257D01*
X90775317Y-117935496D01*
X90300934Y-117739000D01*
X90289962Y-117739000D01*
X90279788Y-117734881D01*
X89766145Y-117739000D01*
X89252666Y-117739000D01*
X89242529Y-117743199D01*
X89231553Y-117743287D01*
X88302153Y-118128257D01*
X88298629Y-118134175D01*
X88284192Y-118140155D01*
X87542955Y-118881392D01*
X87536975Y-118895829D01*
X87531057Y-118899353D01*
X87338296Y-119375483D01*
X87141800Y-119849866D01*
X87141800Y-119860838D01*
X87137681Y-119871012D01*
X72973000Y-119871012D01*
X72973000Y-115065279D01*
X88280082Y-115065279D01*
X88291800Y-115327208D01*
X88291800Y-115589385D01*
X88304949Y-115621130D01*
X88306485Y-115655458D01*
X88481541Y-116078080D01*
X88496158Y-116082749D01*
X88517878Y-116135185D01*
X88935615Y-116552922D01*
X88988051Y-116574642D01*
X88992720Y-116589259D01*
X89239192Y-116678668D01*
X89481415Y-116779000D01*
X89515776Y-116779000D01*
X89548079Y-116790718D01*
X89810008Y-116779000D01*
X90072185Y-116779000D01*
X90103930Y-116765851D01*
X90138258Y-116764315D01*
X90560880Y-116589259D01*
X90565549Y-116574642D01*
X90581800Y-116567910D01*
X90581800Y-116909113D01*
X90845938Y-117546799D01*
X91334001Y-118034862D01*
X91971687Y-118299000D01*
X92661913Y-118299000D01*
X93299599Y-118034862D01*
X93787662Y-117546799D01*
X94051800Y-116909113D01*
X94051800Y-116218887D01*
X93787662Y-115581201D01*
X93299599Y-115093138D01*
X93232342Y-115065279D01*
X107880282Y-115065279D01*
X107892000Y-115327208D01*
X107892000Y-115589385D01*
X107905149Y-115621130D01*
X107906685Y-115655458D01*
X108081741Y-116078080D01*
X108096358Y-116082749D01*
X108118078Y-116135185D01*
X108535815Y-116552922D01*
X108588251Y-116574642D01*
X108592920Y-116589259D01*
X108839392Y-116678668D01*
X109081615Y-116779000D01*
X109115976Y-116779000D01*
X109148279Y-116790718D01*
X109410208Y-116779000D01*
X109672385Y-116779000D01*
X109704130Y-116765851D01*
X109738458Y-116764315D01*
X110161080Y-116589259D01*
X110165749Y-116574642D01*
X110182000Y-116567910D01*
X110182000Y-116909113D01*
X110446138Y-117546799D01*
X110934201Y-118034862D01*
X111571887Y-118299000D01*
X112262113Y-118299000D01*
X112899799Y-118034862D01*
X113387862Y-117546799D01*
X113652000Y-116909113D01*
X113652000Y-116218887D01*
X113387862Y-115581201D01*
X112899799Y-115093138D01*
X112262113Y-114829000D01*
X111571887Y-114829000D01*
X110934201Y-115093138D01*
X110862000Y-115165339D01*
X110862000Y-114998615D01*
X110848851Y-114966870D01*
X110847315Y-114932542D01*
X110672259Y-114509920D01*
X110657642Y-114505251D01*
X110635922Y-114452815D01*
X110218185Y-114035078D01*
X110165749Y-114013358D01*
X110161080Y-113998741D01*
X109914608Y-113909332D01*
X109672385Y-113809000D01*
X109638024Y-113809000D01*
X109605721Y-113797282D01*
X109343792Y-113809000D01*
X109081615Y-113809000D01*
X109049870Y-113822149D01*
X109015542Y-113823685D01*
X108592920Y-113998741D01*
X108588251Y-114013358D01*
X108535815Y-114035078D01*
X108118078Y-114452815D01*
X108096358Y-114505251D01*
X108081741Y-114509920D01*
X107992332Y-114756392D01*
X107892000Y-114998615D01*
X107892000Y-115032976D01*
X107880282Y-115065279D01*
X93232342Y-115065279D01*
X92661913Y-114829000D01*
X91971687Y-114829000D01*
X91334001Y-115093138D01*
X91261800Y-115165339D01*
X91261800Y-114998615D01*
X91248651Y-114966870D01*
X91247115Y-114932542D01*
X91072059Y-114509920D01*
X91057442Y-114505251D01*
X91035722Y-114452815D01*
X90617985Y-114035078D01*
X90565549Y-114013358D01*
X90560880Y-113998741D01*
X90314408Y-113909332D01*
X90072185Y-113809000D01*
X90037824Y-113809000D01*
X90005521Y-113797282D01*
X89743592Y-113809000D01*
X89481415Y-113809000D01*
X89449670Y-113822149D01*
X89415342Y-113823685D01*
X88992720Y-113998741D01*
X88988051Y-114013358D01*
X88935615Y-114035078D01*
X88517878Y-114452815D01*
X88496158Y-114505251D01*
X88481541Y-114509920D01*
X88392132Y-114756392D01*
X88291800Y-114998615D01*
X88291800Y-115032976D01*
X88280082Y-115065279D01*
X72973000Y-115065279D01*
X72973000Y-105625279D01*
X88280082Y-105625279D01*
X88291800Y-105887208D01*
X88291800Y-106149385D01*
X88304949Y-106181130D01*
X88306485Y-106215458D01*
X88481541Y-106638080D01*
X88496158Y-106642749D01*
X88517878Y-106695185D01*
X88935615Y-107112922D01*
X88988051Y-107134642D01*
X88992720Y-107149259D01*
X89239192Y-107238668D01*
X89481415Y-107339000D01*
X89515776Y-107339000D01*
X89548079Y-107350718D01*
X89810008Y-107339000D01*
X90072185Y-107339000D01*
X90103930Y-107325851D01*
X90138258Y-107324315D01*
X90560880Y-107149259D01*
X90565549Y-107134642D01*
X90617985Y-107112922D01*
X91035722Y-106695185D01*
X91057442Y-106642749D01*
X91072059Y-106638080D01*
X91161468Y-106391608D01*
X91261800Y-106149385D01*
X91261800Y-106115024D01*
X91273518Y-106082721D01*
X91261800Y-105820792D01*
X91261800Y-105625279D01*
X107880282Y-105625279D01*
X107892000Y-105887208D01*
X107892000Y-106149385D01*
X107905149Y-106181130D01*
X107906685Y-106215458D01*
X108081741Y-106638080D01*
X108096358Y-106642749D01*
X108118078Y-106695185D01*
X108535815Y-107112922D01*
X108588251Y-107134642D01*
X108592920Y-107149259D01*
X108839392Y-107238668D01*
X109081615Y-107339000D01*
X109115976Y-107339000D01*
X109148279Y-107350718D01*
X109410208Y-107339000D01*
X109672385Y-107339000D01*
X109704130Y-107325851D01*
X109738458Y-107324315D01*
X110161080Y-107149259D01*
X110165749Y-107134642D01*
X110218185Y-107112922D01*
X110635922Y-106695185D01*
X110657642Y-106642749D01*
X110672259Y-106638080D01*
X110761668Y-106391608D01*
X110862000Y-106149385D01*
X110862000Y-106115024D01*
X110873718Y-106082721D01*
X110862000Y-105820792D01*
X110862000Y-105558615D01*
X110848851Y-105526870D01*
X110847315Y-105492542D01*
X110672259Y-105069920D01*
X110657642Y-105065251D01*
X110635922Y-105012815D01*
X110218185Y-104595078D01*
X110165749Y-104573358D01*
X110161080Y-104558741D01*
X109914608Y-104469332D01*
X109672385Y-104369000D01*
X109638024Y-104369000D01*
X109605721Y-104357282D01*
X109343792Y-104369000D01*
X109081615Y-104369000D01*
X109049870Y-104382149D01*
X109015542Y-104383685D01*
X108592920Y-104558741D01*
X108588251Y-104573358D01*
X108535815Y-104595078D01*
X108118078Y-105012815D01*
X108096358Y-105065251D01*
X108081741Y-105069920D01*
X107992332Y-105316392D01*
X107892000Y-105558615D01*
X107892000Y-105592976D01*
X107880282Y-105625279D01*
X91261800Y-105625279D01*
X91261800Y-105558615D01*
X91248651Y-105526870D01*
X91247115Y-105492542D01*
X91072059Y-105069920D01*
X91057442Y-105065251D01*
X91035722Y-105012815D01*
X90617985Y-104595078D01*
X90565549Y-104573358D01*
X90560880Y-104558741D01*
X90314408Y-104469332D01*
X90072185Y-104369000D01*
X90037824Y-104369000D01*
X90005521Y-104357282D01*
X89743592Y-104369000D01*
X89481415Y-104369000D01*
X89449670Y-104382149D01*
X89415342Y-104383685D01*
X88992720Y-104558741D01*
X88988051Y-104573358D01*
X88935615Y-104595078D01*
X88517878Y-105012815D01*
X88496158Y-105065251D01*
X88481541Y-105069920D01*
X88392132Y-105316392D01*
X88291800Y-105558615D01*
X88291800Y-105592976D01*
X88280082Y-105625279D01*
X72973000Y-105625279D01*
X72973000Y-100271012D01*
X87137681Y-100271012D01*
X87141800Y-100784655D01*
X87141800Y-101298134D01*
X87145999Y-101308271D01*
X87146087Y-101319247D01*
X87531057Y-102248647D01*
X87536975Y-102252171D01*
X87542955Y-102266608D01*
X88284192Y-103007845D01*
X88298629Y-103013825D01*
X88302153Y-103019743D01*
X88778283Y-103212504D01*
X89252666Y-103409000D01*
X89263638Y-103409000D01*
X89273812Y-103413119D01*
X89787455Y-103409000D01*
X90300934Y-103409000D01*
X90311071Y-103404801D01*
X90322047Y-103404713D01*
X91251447Y-103019743D01*
X91254971Y-103013825D01*
X91269408Y-103007845D01*
X91308366Y-102968887D01*
X93121800Y-102968887D01*
X93121800Y-103659113D01*
X93385938Y-104296799D01*
X93874001Y-104784862D01*
X94511687Y-105049000D01*
X95201913Y-105049000D01*
X95839599Y-104784862D01*
X96327662Y-104296799D01*
X96591800Y-103659113D01*
X96591800Y-102968887D01*
X96327662Y-102331201D01*
X95839599Y-101843138D01*
X95201913Y-101579000D01*
X94511687Y-101579000D01*
X93874001Y-101843138D01*
X93385938Y-102331201D01*
X93121800Y-102968887D01*
X91308366Y-102968887D01*
X92010645Y-102266608D01*
X92016625Y-102252171D01*
X92022543Y-102248647D01*
X92215304Y-101772517D01*
X92411800Y-101298134D01*
X92411800Y-101287162D01*
X92415919Y-101276988D01*
X92411800Y-100763345D01*
X92411800Y-100271012D01*
X106737881Y-100271012D01*
X106742000Y-100784655D01*
X106742000Y-101298134D01*
X106746199Y-101308271D01*
X106746287Y-101319247D01*
X107131257Y-102248647D01*
X107137175Y-102252171D01*
X107143155Y-102266608D01*
X107884392Y-103007845D01*
X107898829Y-103013825D01*
X107902353Y-103019743D01*
X108378483Y-103212504D01*
X108852866Y-103409000D01*
X108863838Y-103409000D01*
X108874012Y-103413119D01*
X109387655Y-103409000D01*
X109901134Y-103409000D01*
X109911271Y-103404801D01*
X109922247Y-103404713D01*
X110851647Y-103019743D01*
X110855171Y-103013825D01*
X110869608Y-103007845D01*
X110908566Y-102968887D01*
X112722000Y-102968887D01*
X112722000Y-103659113D01*
X112986138Y-104296799D01*
X113474201Y-104784862D01*
X114111887Y-105049000D01*
X114802113Y-105049000D01*
X115439799Y-104784862D01*
X115927862Y-104296799D01*
X116192000Y-103659113D01*
X116192000Y-102968887D01*
X115927862Y-102331201D01*
X115439799Y-101843138D01*
X114802113Y-101579000D01*
X114111887Y-101579000D01*
X113474201Y-101843138D01*
X112986138Y-102331201D01*
X112722000Y-102968887D01*
X110908566Y-102968887D01*
X111610845Y-102266608D01*
X111616825Y-102252171D01*
X111622743Y-102248647D01*
X111815504Y-101772517D01*
X112012000Y-101298134D01*
X112012000Y-101287162D01*
X112016119Y-101276988D01*
X112012000Y-100763345D01*
X112012000Y-100249866D01*
X112007801Y-100239729D01*
X112007713Y-100228753D01*
X111622743Y-99299353D01*
X111616825Y-99295829D01*
X111610845Y-99281392D01*
X110869608Y-98540155D01*
X110855171Y-98534175D01*
X110851647Y-98528257D01*
X110375517Y-98335496D01*
X109901134Y-98139000D01*
X109890162Y-98139000D01*
X109879988Y-98134881D01*
X109366345Y-98139000D01*
X108852866Y-98139000D01*
X108842729Y-98143199D01*
X108831753Y-98143287D01*
X107902353Y-98528257D01*
X107898829Y-98534175D01*
X107884392Y-98540155D01*
X107143155Y-99281392D01*
X107137175Y-99295829D01*
X107131257Y-99299353D01*
X106938496Y-99775483D01*
X106742000Y-100249866D01*
X106742000Y-100260838D01*
X106737881Y-100271012D01*
X92411800Y-100271012D01*
X92411800Y-100249866D01*
X92407601Y-100239729D01*
X92407513Y-100228753D01*
X92022543Y-99299353D01*
X92016625Y-99295829D01*
X92010645Y-99281392D01*
X91269408Y-98540155D01*
X91254971Y-98534175D01*
X91251447Y-98528257D01*
X90775317Y-98335496D01*
X90300934Y-98139000D01*
X90289962Y-98139000D01*
X90279788Y-98134881D01*
X89766145Y-98139000D01*
X89252666Y-98139000D01*
X89242529Y-98143199D01*
X89231553Y-98143287D01*
X88302153Y-98528257D01*
X88298629Y-98534175D01*
X88284192Y-98540155D01*
X87542955Y-99281392D01*
X87536975Y-99295829D01*
X87531057Y-99299353D01*
X87338296Y-99775483D01*
X87141800Y-100249866D01*
X87141800Y-100260838D01*
X87137681Y-100271012D01*
X72973000Y-100271012D01*
X72973000Y-95465279D01*
X88280082Y-95465279D01*
X88291800Y-95727208D01*
X88291800Y-95989385D01*
X88304949Y-96021130D01*
X88306485Y-96055458D01*
X88481541Y-96478080D01*
X88496158Y-96482749D01*
X88517878Y-96535185D01*
X88935615Y-96952922D01*
X88988051Y-96974642D01*
X88992720Y-96989259D01*
X89239192Y-97078668D01*
X89481415Y-97179000D01*
X89515776Y-97179000D01*
X89548079Y-97190718D01*
X89810008Y-97179000D01*
X90072185Y-97179000D01*
X90103930Y-97165851D01*
X90138258Y-97164315D01*
X90560880Y-96989259D01*
X90565549Y-96974642D01*
X90581800Y-96967910D01*
X90581800Y-97309113D01*
X90845938Y-97946799D01*
X91334001Y-98434862D01*
X91971687Y-98699000D01*
X92661913Y-98699000D01*
X93299599Y-98434862D01*
X93787662Y-97946799D01*
X94051800Y-97309113D01*
X94051800Y-96618887D01*
X93787662Y-95981201D01*
X93299599Y-95493138D01*
X93232342Y-95465279D01*
X107880282Y-95465279D01*
X107892000Y-95727208D01*
X107892000Y-95989385D01*
X107905149Y-96021130D01*
X107906685Y-96055458D01*
X108081741Y-96478080D01*
X108096358Y-96482749D01*
X108118078Y-96535185D01*
X108535815Y-96952922D01*
X108588251Y-96974642D01*
X108592920Y-96989259D01*
X108839392Y-97078668D01*
X109081615Y-97179000D01*
X109115976Y-97179000D01*
X109148279Y-97190718D01*
X109410208Y-97179000D01*
X109672385Y-97179000D01*
X109704130Y-97165851D01*
X109738458Y-97164315D01*
X110161080Y-96989259D01*
X110165749Y-96974642D01*
X110182000Y-96967910D01*
X110182000Y-97309113D01*
X110446138Y-97946799D01*
X110934201Y-98434862D01*
X111571887Y-98699000D01*
X112262113Y-98699000D01*
X112899799Y-98434862D01*
X113387862Y-97946799D01*
X113652000Y-97309113D01*
X113652000Y-96618887D01*
X113387862Y-95981201D01*
X112899799Y-95493138D01*
X112262113Y-95229000D01*
X111571887Y-95229000D01*
X110934201Y-95493138D01*
X110862000Y-95565339D01*
X110862000Y-95398615D01*
X110848851Y-95366870D01*
X110847315Y-95332542D01*
X110672259Y-94909920D01*
X110657642Y-94905251D01*
X110635922Y-94852815D01*
X110218185Y-94435078D01*
X110165749Y-94413358D01*
X110161080Y-94398741D01*
X109914608Y-94309332D01*
X109672385Y-94209000D01*
X109638024Y-94209000D01*
X109605721Y-94197282D01*
X109343792Y-94209000D01*
X109081615Y-94209000D01*
X109049870Y-94222149D01*
X109015542Y-94223685D01*
X108592920Y-94398741D01*
X108588251Y-94413358D01*
X108535815Y-94435078D01*
X108118078Y-94852815D01*
X108096358Y-94905251D01*
X108081741Y-94909920D01*
X107992332Y-95156392D01*
X107892000Y-95398615D01*
X107892000Y-95432976D01*
X107880282Y-95465279D01*
X93232342Y-95465279D01*
X92661913Y-95229000D01*
X91971687Y-95229000D01*
X91334001Y-95493138D01*
X91261800Y-95565339D01*
X91261800Y-95398615D01*
X91248651Y-95366870D01*
X91247115Y-95332542D01*
X91072059Y-94909920D01*
X91057442Y-94905251D01*
X91035722Y-94852815D01*
X90617985Y-94435078D01*
X90565549Y-94413358D01*
X90560880Y-94398741D01*
X90314408Y-94309332D01*
X90072185Y-94209000D01*
X90037824Y-94209000D01*
X90005521Y-94197282D01*
X89743592Y-94209000D01*
X89481415Y-94209000D01*
X89449670Y-94222149D01*
X89415342Y-94223685D01*
X88992720Y-94398741D01*
X88988051Y-94413358D01*
X88935615Y-94435078D01*
X88517878Y-94852815D01*
X88496158Y-94905251D01*
X88481541Y-94909920D01*
X88392132Y-95156392D01*
X88291800Y-95398615D01*
X88291800Y-95432976D01*
X88280082Y-95465279D01*
X72973000Y-95465279D01*
X72973000Y-86025279D01*
X88280082Y-86025279D01*
X88291800Y-86287208D01*
X88291800Y-86549385D01*
X88304949Y-86581130D01*
X88306485Y-86615458D01*
X88481541Y-87038080D01*
X88496158Y-87042749D01*
X88517878Y-87095185D01*
X88935615Y-87512922D01*
X88988051Y-87534642D01*
X88992720Y-87549259D01*
X89239192Y-87638668D01*
X89481415Y-87739000D01*
X89515776Y-87739000D01*
X89548079Y-87750718D01*
X89810008Y-87739000D01*
X90072185Y-87739000D01*
X90103930Y-87725851D01*
X90138258Y-87724315D01*
X90560880Y-87549259D01*
X90565549Y-87534642D01*
X90617985Y-87512922D01*
X91035722Y-87095185D01*
X91057442Y-87042749D01*
X91072059Y-87038080D01*
X91161468Y-86791608D01*
X91261800Y-86549385D01*
X91261800Y-86515024D01*
X91273518Y-86482721D01*
X91261800Y-86220792D01*
X91261800Y-86025279D01*
X107880282Y-86025279D01*
X107892000Y-86287208D01*
X107892000Y-86549385D01*
X107905149Y-86581130D01*
X107906685Y-86615458D01*
X108081741Y-87038080D01*
X108096358Y-87042749D01*
X108118078Y-87095185D01*
X108535815Y-87512922D01*
X108588251Y-87534642D01*
X108592920Y-87549259D01*
X108839392Y-87638668D01*
X109081615Y-87739000D01*
X109115976Y-87739000D01*
X109148279Y-87750718D01*
X109410208Y-87739000D01*
X109672385Y-87739000D01*
X109704130Y-87725851D01*
X109738458Y-87724315D01*
X110161080Y-87549259D01*
X110165749Y-87534642D01*
X110218185Y-87512922D01*
X110635922Y-87095185D01*
X110657642Y-87042749D01*
X110672259Y-87038080D01*
X110761668Y-86791608D01*
X110862000Y-86549385D01*
X110862000Y-86515024D01*
X110873718Y-86482721D01*
X110862000Y-86220792D01*
X110862000Y-85958615D01*
X110848851Y-85926870D01*
X110847315Y-85892542D01*
X110672259Y-85469920D01*
X110657642Y-85465251D01*
X110635922Y-85412815D01*
X110218185Y-84995078D01*
X110165749Y-84973358D01*
X110161080Y-84958741D01*
X109914608Y-84869332D01*
X109672385Y-84769000D01*
X109638024Y-84769000D01*
X109605721Y-84757282D01*
X109343792Y-84769000D01*
X109081615Y-84769000D01*
X109049870Y-84782149D01*
X109015542Y-84783685D01*
X108592920Y-84958741D01*
X108588251Y-84973358D01*
X108535815Y-84995078D01*
X108118078Y-85412815D01*
X108096358Y-85465251D01*
X108081741Y-85469920D01*
X107992332Y-85716392D01*
X107892000Y-85958615D01*
X107892000Y-85992976D01*
X107880282Y-86025279D01*
X91261800Y-86025279D01*
X91261800Y-85958615D01*
X91248651Y-85926870D01*
X91247115Y-85892542D01*
X91072059Y-85469920D01*
X91057442Y-85465251D01*
X91035722Y-85412815D01*
X90617985Y-84995078D01*
X90565549Y-84973358D01*
X90560880Y-84958741D01*
X90314408Y-84869332D01*
X90072185Y-84769000D01*
X90037824Y-84769000D01*
X90005521Y-84757282D01*
X89743592Y-84769000D01*
X89481415Y-84769000D01*
X89449670Y-84782149D01*
X89415342Y-84783685D01*
X88992720Y-84958741D01*
X88988051Y-84973358D01*
X88935615Y-84995078D01*
X88517878Y-85412815D01*
X88496158Y-85465251D01*
X88481541Y-85469920D01*
X88392132Y-85716392D01*
X88291800Y-85958615D01*
X88291800Y-85992976D01*
X88280082Y-86025279D01*
X72973000Y-86025279D01*
X72973000Y-80671012D01*
X87137681Y-80671012D01*
X87141800Y-81184655D01*
X87141800Y-81698134D01*
X87145999Y-81708271D01*
X87146087Y-81719247D01*
X87531057Y-82648647D01*
X87536975Y-82652171D01*
X87542955Y-82666608D01*
X88284192Y-83407845D01*
X88298629Y-83413825D01*
X88302153Y-83419743D01*
X88778283Y-83612504D01*
X89252666Y-83809000D01*
X89263638Y-83809000D01*
X89273812Y-83813119D01*
X89787455Y-83809000D01*
X90300934Y-83809000D01*
X90311071Y-83804801D01*
X90322047Y-83804713D01*
X91251447Y-83419743D01*
X91254971Y-83413825D01*
X91269408Y-83407845D01*
X91308366Y-83368887D01*
X93121800Y-83368887D01*
X93121800Y-84059113D01*
X93385938Y-84696799D01*
X93874001Y-85184862D01*
X94511687Y-85449000D01*
X95201913Y-85449000D01*
X95839599Y-85184862D01*
X96327662Y-84696799D01*
X96591800Y-84059113D01*
X96591800Y-83368887D01*
X96327662Y-82731201D01*
X95839599Y-82243138D01*
X95201913Y-81979000D01*
X94511687Y-81979000D01*
X93874001Y-82243138D01*
X93385938Y-82731201D01*
X93121800Y-83368887D01*
X91308366Y-83368887D01*
X92010645Y-82666608D01*
X92016625Y-82652171D01*
X92022543Y-82648647D01*
X92215304Y-82172517D01*
X92411800Y-81698134D01*
X92411800Y-81687162D01*
X92415919Y-81676988D01*
X92411800Y-81163345D01*
X92411800Y-80671012D01*
X106737881Y-80671012D01*
X106742000Y-81184655D01*
X106742000Y-81698134D01*
X106746199Y-81708271D01*
X106746287Y-81719247D01*
X107131257Y-82648647D01*
X107137175Y-82652171D01*
X107143155Y-82666608D01*
X107884392Y-83407845D01*
X107898829Y-83413825D01*
X107902353Y-83419743D01*
X108378483Y-83612504D01*
X108852866Y-83809000D01*
X108863838Y-83809000D01*
X108874012Y-83813119D01*
X109387655Y-83809000D01*
X109901134Y-83809000D01*
X109911271Y-83804801D01*
X109922247Y-83804713D01*
X110851647Y-83419743D01*
X110855171Y-83413825D01*
X110869608Y-83407845D01*
X110908566Y-83368887D01*
X112722000Y-83368887D01*
X112722000Y-84059113D01*
X112986138Y-84696799D01*
X113474201Y-85184862D01*
X114111887Y-85449000D01*
X114802113Y-85449000D01*
X115439799Y-85184862D01*
X115927862Y-84696799D01*
X116192000Y-84059113D01*
X116192000Y-83368887D01*
X115927862Y-82731201D01*
X115439799Y-82243138D01*
X114802113Y-81979000D01*
X114111887Y-81979000D01*
X113474201Y-82243138D01*
X112986138Y-82731201D01*
X112722000Y-83368887D01*
X110908566Y-83368887D01*
X111610845Y-82666608D01*
X111616825Y-82652171D01*
X111622743Y-82648647D01*
X111815504Y-82172517D01*
X112012000Y-81698134D01*
X112012000Y-81687162D01*
X112016119Y-81676988D01*
X112012000Y-81163345D01*
X112012000Y-80649866D01*
X112007801Y-80639729D01*
X112007713Y-80628753D01*
X111622743Y-79699353D01*
X111616825Y-79695829D01*
X111610845Y-79681392D01*
X110869608Y-78940155D01*
X110855171Y-78934175D01*
X110851647Y-78928257D01*
X110375517Y-78735496D01*
X109901134Y-78539000D01*
X109890162Y-78539000D01*
X109879988Y-78534881D01*
X109366345Y-78539000D01*
X108852866Y-78539000D01*
X108842729Y-78543199D01*
X108831753Y-78543287D01*
X107902353Y-78928257D01*
X107898829Y-78934175D01*
X107884392Y-78940155D01*
X107143155Y-79681392D01*
X107137175Y-79695829D01*
X107131257Y-79699353D01*
X106938496Y-80175483D01*
X106742000Y-80649866D01*
X106742000Y-80660838D01*
X106737881Y-80671012D01*
X92411800Y-80671012D01*
X92411800Y-80649866D01*
X92407601Y-80639729D01*
X92407513Y-80628753D01*
X92022543Y-79699353D01*
X92016625Y-79695829D01*
X92010645Y-79681392D01*
X91269408Y-78940155D01*
X91254971Y-78934175D01*
X91251447Y-78928257D01*
X90775317Y-78735496D01*
X90300934Y-78539000D01*
X90289962Y-78539000D01*
X90279788Y-78534881D01*
X89766145Y-78539000D01*
X89252666Y-78539000D01*
X89242529Y-78543199D01*
X89231553Y-78543287D01*
X88302153Y-78928257D01*
X88298629Y-78934175D01*
X88284192Y-78940155D01*
X87542955Y-79681392D01*
X87536975Y-79695829D01*
X87531057Y-79699353D01*
X87338296Y-80175483D01*
X87141800Y-80649866D01*
X87141800Y-80660838D01*
X87137681Y-80671012D01*
X72973000Y-80671012D01*
X72973000Y-75865279D01*
X88280082Y-75865279D01*
X88291800Y-76127208D01*
X88291800Y-76389385D01*
X88304949Y-76421130D01*
X88306485Y-76455458D01*
X88481541Y-76878080D01*
X88496158Y-76882749D01*
X88517878Y-76935185D01*
X88935615Y-77352922D01*
X88988051Y-77374642D01*
X88992720Y-77389259D01*
X89239192Y-77478668D01*
X89481415Y-77579000D01*
X89515776Y-77579000D01*
X89548079Y-77590718D01*
X89810008Y-77579000D01*
X90072185Y-77579000D01*
X90103930Y-77565851D01*
X90138258Y-77564315D01*
X90560880Y-77389259D01*
X90565549Y-77374642D01*
X90581800Y-77367910D01*
X90581800Y-77709113D01*
X90845938Y-78346799D01*
X91334001Y-78834862D01*
X91971687Y-79099000D01*
X92661913Y-79099000D01*
X93299599Y-78834862D01*
X93787662Y-78346799D01*
X94051800Y-77709113D01*
X94051800Y-77018887D01*
X93787662Y-76381201D01*
X93299599Y-75893138D01*
X93232342Y-75865279D01*
X107880282Y-75865279D01*
X107892000Y-76127208D01*
X107892000Y-76389385D01*
X107905149Y-76421130D01*
X107906685Y-76455458D01*
X108081741Y-76878080D01*
X108096358Y-76882749D01*
X108118078Y-76935185D01*
X108535815Y-77352922D01*
X108588251Y-77374642D01*
X108592920Y-77389259D01*
X108839392Y-77478668D01*
X109081615Y-77579000D01*
X109115976Y-77579000D01*
X109148279Y-77590718D01*
X109410208Y-77579000D01*
X109672385Y-77579000D01*
X109704130Y-77565851D01*
X109738458Y-77564315D01*
X110161080Y-77389259D01*
X110165749Y-77374642D01*
X110182000Y-77367910D01*
X110182000Y-77709113D01*
X110446138Y-78346799D01*
X110934201Y-78834862D01*
X111571887Y-79099000D01*
X112262113Y-79099000D01*
X112899799Y-78834862D01*
X112994661Y-78740000D01*
X122437908Y-78740000D01*
X122553161Y-79319418D01*
X122881375Y-79810625D01*
X123179761Y-80010000D01*
X122881375Y-80209375D01*
X122553161Y-80700582D01*
X122437908Y-81280000D01*
X122553161Y-81859418D01*
X122881375Y-82350625D01*
X123179761Y-82550000D01*
X122881375Y-82749375D01*
X122553161Y-83240582D01*
X122437908Y-83820000D01*
X122553161Y-84399418D01*
X122881375Y-84890625D01*
X123179761Y-85090000D01*
X122881375Y-85289375D01*
X122553161Y-85780582D01*
X122437908Y-86360000D01*
X122553161Y-86939418D01*
X122881375Y-87430625D01*
X123179761Y-87630000D01*
X122881375Y-87829375D01*
X122553161Y-88320582D01*
X122437908Y-88900000D01*
X122553161Y-89479418D01*
X122881375Y-89970625D01*
X123179761Y-90170000D01*
X122881375Y-90369375D01*
X122553161Y-90860582D01*
X122437908Y-91440000D01*
X122553161Y-92019418D01*
X122881375Y-92510625D01*
X123179761Y-92710000D01*
X122881375Y-92909375D01*
X122553161Y-93400582D01*
X122437908Y-93980000D01*
X122553161Y-94559418D01*
X122881375Y-95050625D01*
X123179761Y-95250000D01*
X122881375Y-95449375D01*
X122553161Y-95940582D01*
X122437908Y-96520000D01*
X122553161Y-97099418D01*
X122881375Y-97590625D01*
X123179761Y-97790000D01*
X122881375Y-97989375D01*
X122553161Y-98480582D01*
X122437908Y-99060000D01*
X122553161Y-99639418D01*
X122881375Y-100130625D01*
X123179761Y-100330000D01*
X122881375Y-100529375D01*
X122553161Y-101020582D01*
X122437908Y-101600000D01*
X122553161Y-102179418D01*
X122881375Y-102670625D01*
X123179761Y-102870000D01*
X122881375Y-103069375D01*
X122553161Y-103560582D01*
X122437908Y-104140000D01*
X122553161Y-104719418D01*
X122881375Y-105210625D01*
X123179761Y-105410000D01*
X122881375Y-105609375D01*
X122553161Y-106100582D01*
X122437908Y-106680000D01*
X122553161Y-107259418D01*
X122881375Y-107750625D01*
X123179761Y-107950000D01*
X122881375Y-108149375D01*
X122553161Y-108640582D01*
X122437908Y-109220000D01*
X122553161Y-109799418D01*
X122881375Y-110290625D01*
X123179761Y-110490000D01*
X122881375Y-110689375D01*
X122553161Y-111180582D01*
X122437908Y-111760000D01*
X122553161Y-112339418D01*
X122881375Y-112830625D01*
X123179761Y-113030000D01*
X122881375Y-113229375D01*
X122553161Y-113720582D01*
X122437908Y-114300000D01*
X122553161Y-114879418D01*
X122881375Y-115370625D01*
X123179761Y-115570000D01*
X122881375Y-115769375D01*
X122553161Y-116260582D01*
X122437908Y-116840000D01*
X122553161Y-117419418D01*
X122881375Y-117910625D01*
X123179761Y-118110000D01*
X122881375Y-118309375D01*
X122553161Y-118800582D01*
X122437908Y-119380000D01*
X122553161Y-119959418D01*
X122881375Y-120450625D01*
X123179761Y-120650000D01*
X122881375Y-120849375D01*
X122553161Y-121340582D01*
X122437908Y-121920000D01*
X122553161Y-122499418D01*
X122881375Y-122990625D01*
X123179761Y-123190000D01*
X122881375Y-123389375D01*
X122553161Y-123880582D01*
X122437908Y-124460000D01*
X122553161Y-125039418D01*
X122881375Y-125530625D01*
X123372582Y-125858839D01*
X123805744Y-125945000D01*
X124098256Y-125945000D01*
X124531418Y-125858839D01*
X125022625Y-125530625D01*
X125222000Y-125232239D01*
X125421375Y-125530625D01*
X125912582Y-125858839D01*
X126345744Y-125945000D01*
X126638256Y-125945000D01*
X127071418Y-125858839D01*
X127562625Y-125530625D01*
X127890839Y-125039418D01*
X128006092Y-124460000D01*
X127890839Y-123880582D01*
X127562625Y-123389375D01*
X127264239Y-123190000D01*
X127562625Y-122990625D01*
X127890839Y-122499418D01*
X128006092Y-121920000D01*
X127890839Y-121340582D01*
X127562625Y-120849375D01*
X127264239Y-120650000D01*
X127562625Y-120450625D01*
X127890839Y-119959418D01*
X128006092Y-119380000D01*
X127890839Y-118800582D01*
X127562625Y-118309375D01*
X127264239Y-118110000D01*
X127562625Y-117910625D01*
X127890839Y-117419418D01*
X128006092Y-116840000D01*
X127890839Y-116260582D01*
X127562625Y-115769375D01*
X127264239Y-115570000D01*
X127562625Y-115370625D01*
X127890839Y-114879418D01*
X128006092Y-114300000D01*
X127890839Y-113720582D01*
X127562625Y-113229375D01*
X127264239Y-113030000D01*
X127562625Y-112830625D01*
X127890839Y-112339418D01*
X128006092Y-111760000D01*
X127890839Y-111180582D01*
X127562625Y-110689375D01*
X127264239Y-110490000D01*
X127562625Y-110290625D01*
X127890839Y-109799418D01*
X128006092Y-109220000D01*
X127890839Y-108640582D01*
X127562625Y-108149375D01*
X127264239Y-107950000D01*
X127562625Y-107750625D01*
X127890839Y-107259418D01*
X128006092Y-106680000D01*
X127890839Y-106100582D01*
X127562625Y-105609375D01*
X127264239Y-105410000D01*
X127562625Y-105210625D01*
X127890839Y-104719418D01*
X128006092Y-104140000D01*
X127890839Y-103560582D01*
X127562625Y-103069375D01*
X127264239Y-102870000D01*
X127562625Y-102670625D01*
X127890839Y-102179418D01*
X128006092Y-101600000D01*
X127890839Y-101020582D01*
X127562625Y-100529375D01*
X127264239Y-100330000D01*
X127562625Y-100130625D01*
X127890839Y-99639418D01*
X128006092Y-99060000D01*
X127890839Y-98480582D01*
X127562625Y-97989375D01*
X127264239Y-97790000D01*
X127562625Y-97590625D01*
X127890839Y-97099418D01*
X128006092Y-96520000D01*
X127890839Y-95940582D01*
X127562625Y-95449375D01*
X127264239Y-95250000D01*
X127562625Y-95050625D01*
X127890839Y-94559418D01*
X128006092Y-93980000D01*
X127890839Y-93400582D01*
X127562625Y-92909375D01*
X127264239Y-92710000D01*
X127562625Y-92510625D01*
X127890839Y-92019418D01*
X128006092Y-91440000D01*
X127890839Y-90860582D01*
X127562625Y-90369375D01*
X127264239Y-90170000D01*
X127562625Y-89970625D01*
X127890839Y-89479418D01*
X128006092Y-88900000D01*
X127890839Y-88320582D01*
X127562625Y-87829375D01*
X127264239Y-87630000D01*
X127562625Y-87430625D01*
X127890839Y-86939418D01*
X128006092Y-86360000D01*
X127890839Y-85780582D01*
X127562625Y-85289375D01*
X127264239Y-85090000D01*
X127562625Y-84890625D01*
X127890839Y-84399418D01*
X128006092Y-83820000D01*
X127890839Y-83240582D01*
X127562625Y-82749375D01*
X127264239Y-82550000D01*
X127562625Y-82350625D01*
X127890839Y-81859418D01*
X128006092Y-81280000D01*
X127890839Y-80700582D01*
X127562625Y-80209375D01*
X127264239Y-80010000D01*
X127562625Y-79810625D01*
X127890839Y-79319418D01*
X128006092Y-78740000D01*
X127890839Y-78160582D01*
X127562625Y-77669375D01*
X127264239Y-77470000D01*
X127562625Y-77270625D01*
X127890839Y-76779418D01*
X128006092Y-76200000D01*
X127890839Y-75620582D01*
X127562625Y-75129375D01*
X127071418Y-74801161D01*
X126638256Y-74715000D01*
X126345744Y-74715000D01*
X125912582Y-74801161D01*
X125421375Y-75129375D01*
X125409184Y-75147619D01*
X125400157Y-75102235D01*
X125259809Y-74892191D01*
X125049765Y-74751843D01*
X124802000Y-74702560D01*
X123102000Y-74702560D01*
X122854235Y-74751843D01*
X122644191Y-74892191D01*
X122503843Y-75102235D01*
X122454560Y-75350000D01*
X122454560Y-77050000D01*
X122503843Y-77297765D01*
X122644191Y-77507809D01*
X122854235Y-77648157D01*
X122899619Y-77657184D01*
X122881375Y-77669375D01*
X122553161Y-78160582D01*
X122437908Y-78740000D01*
X112994661Y-78740000D01*
X113387862Y-78346799D01*
X113652000Y-77709113D01*
X113652000Y-77018887D01*
X113387862Y-76381201D01*
X112899799Y-75893138D01*
X112262113Y-75629000D01*
X111571887Y-75629000D01*
X110934201Y-75893138D01*
X110862000Y-75965339D01*
X110862000Y-75798615D01*
X110848851Y-75766870D01*
X110847315Y-75732542D01*
X110672259Y-75309920D01*
X110657642Y-75305251D01*
X110635922Y-75252815D01*
X110218185Y-74835078D01*
X110165749Y-74813358D01*
X110161080Y-74798741D01*
X109914608Y-74709332D01*
X109672385Y-74609000D01*
X109638024Y-74609000D01*
X109605721Y-74597282D01*
X109343792Y-74609000D01*
X109081615Y-74609000D01*
X109049870Y-74622149D01*
X109015542Y-74623685D01*
X108592920Y-74798741D01*
X108588251Y-74813358D01*
X108535815Y-74835078D01*
X108118078Y-75252815D01*
X108096358Y-75305251D01*
X108081741Y-75309920D01*
X107992332Y-75556392D01*
X107892000Y-75798615D01*
X107892000Y-75832976D01*
X107880282Y-75865279D01*
X93232342Y-75865279D01*
X92661913Y-75629000D01*
X91971687Y-75629000D01*
X91334001Y-75893138D01*
X91261800Y-75965339D01*
X91261800Y-75798615D01*
X91248651Y-75766870D01*
X91247115Y-75732542D01*
X91072059Y-75309920D01*
X91057442Y-75305251D01*
X91035722Y-75252815D01*
X90617985Y-74835078D01*
X90565549Y-74813358D01*
X90560880Y-74798741D01*
X90314408Y-74709332D01*
X90072185Y-74609000D01*
X90037824Y-74609000D01*
X90005521Y-74597282D01*
X89743592Y-74609000D01*
X89481415Y-74609000D01*
X89449670Y-74622149D01*
X89415342Y-74623685D01*
X88992720Y-74798741D01*
X88988051Y-74813358D01*
X88935615Y-74835078D01*
X88517878Y-75252815D01*
X88496158Y-75305251D01*
X88481541Y-75309920D01*
X88392132Y-75556392D01*
X88291800Y-75798615D01*
X88291800Y-75832976D01*
X88280082Y-75865279D01*
X72973000Y-75865279D01*
X72973000Y-71564021D01*
X72988951Y-71488980D01*
X72996993Y-71412468D01*
X73015849Y-71052678D01*
X73018000Y-71039098D01*
X73018000Y-71942053D01*
X73486445Y-73072980D01*
X74352020Y-73938555D01*
X75482947Y-74407000D01*
X76707053Y-74407000D01*
X77837980Y-73938555D01*
X78703555Y-73072980D01*
X79172000Y-71942053D01*
X79172000Y-70717947D01*
X78703555Y-69587020D01*
X77837980Y-68721445D01*
X76757752Y-68274000D01*
X124432248Y-68274000D01*
X123352020Y-68721445D01*
X123352020Y-68721445D01*
G37*
X123352020Y-68721445D02*
X122486445Y-69587020D01*
X122018000Y-70717947D01*
X122018000Y-71942053D01*
X122486445Y-73072980D01*
X123352020Y-73938555D01*
X124482947Y-74407000D01*
X125707053Y-74407000D01*
X126837980Y-73938555D01*
X127703555Y-73072980D01*
X128170000Y-71946881D01*
X128170001Y-128713121D01*
X127703555Y-127587020D01*
X126837980Y-126721445D01*
X125707053Y-126253000D01*
X124482947Y-126253000D01*
X123352020Y-126721445D01*
X122486445Y-127587020D01*
X122018000Y-128717947D01*
X122018000Y-129942053D01*
X122486445Y-131072980D01*
X123352020Y-131938555D01*
X124432248Y-132386000D01*
X76757752Y-132386000D01*
X77837980Y-131938555D01*
X78703555Y-131072980D01*
X79172000Y-129942053D01*
X79172000Y-128717947D01*
X78703555Y-127587020D01*
X77837980Y-126721445D01*
X76707053Y-126253000D01*
X75482947Y-126253000D01*
X74352020Y-126721445D01*
X73486445Y-127587020D01*
X73018000Y-128717947D01*
X73018000Y-129620902D01*
X73015849Y-129607322D01*
X72996993Y-129247532D01*
X72988951Y-129171020D01*
X72973000Y-129095979D01*
X72973000Y-125225279D01*
X88280082Y-125225279D01*
X88291800Y-125487208D01*
X88291800Y-125749385D01*
X88304949Y-125781130D01*
X88306485Y-125815458D01*
X88481541Y-126238080D01*
X88496158Y-126242749D01*
X88517878Y-126295185D01*
X88935615Y-126712922D01*
X88988051Y-126734642D01*
X88992720Y-126749259D01*
X89239192Y-126838668D01*
X89481415Y-126939000D01*
X89515776Y-126939000D01*
X89548079Y-126950718D01*
X89810008Y-126939000D01*
X90072185Y-126939000D01*
X90103930Y-126925851D01*
X90138258Y-126924315D01*
X90560880Y-126749259D01*
X90565549Y-126734642D01*
X90617985Y-126712922D01*
X91035722Y-126295185D01*
X91057442Y-126242749D01*
X91072059Y-126238080D01*
X91161468Y-125991608D01*
X91261800Y-125749385D01*
X91261800Y-125715024D01*
X91273518Y-125682721D01*
X91261800Y-125420792D01*
X91261800Y-125225279D01*
X107880282Y-125225279D01*
X107892000Y-125487208D01*
X107892000Y-125749385D01*
X107905149Y-125781130D01*
X107906685Y-125815458D01*
X108081741Y-126238080D01*
X108096358Y-126242749D01*
X108118078Y-126295185D01*
X108535815Y-126712922D01*
X108588251Y-126734642D01*
X108592920Y-126749259D01*
X108839392Y-126838668D01*
X109081615Y-126939000D01*
X109115976Y-126939000D01*
X109148279Y-126950718D01*
X109410208Y-126939000D01*
X109672385Y-126939000D01*
X109704130Y-126925851D01*
X109738458Y-126924315D01*
X110161080Y-126749259D01*
X110165749Y-126734642D01*
X110218185Y-126712922D01*
X110635922Y-126295185D01*
X110657642Y-126242749D01*
X110672259Y-126238080D01*
X110761668Y-125991608D01*
X110862000Y-125749385D01*
X110862000Y-125715024D01*
X110873718Y-125682721D01*
X110862000Y-125420792D01*
X110862000Y-125158615D01*
X110848851Y-125126870D01*
X110847315Y-125092542D01*
X110672259Y-124669920D01*
X110657642Y-124665251D01*
X110635922Y-124612815D01*
X110218185Y-124195078D01*
X110165749Y-124173358D01*
X110161080Y-124158741D01*
X109914608Y-124069332D01*
X109672385Y-123969000D01*
X109638024Y-123969000D01*
X109605721Y-123957282D01*
X109343792Y-123969000D01*
X109081615Y-123969000D01*
X109049870Y-123982149D01*
X109015542Y-123983685D01*
X108592920Y-124158741D01*
X108588251Y-124173358D01*
X108535815Y-124195078D01*
X108118078Y-124612815D01*
X108096358Y-124665251D01*
X108081741Y-124669920D01*
X107992332Y-124916392D01*
X107892000Y-125158615D01*
X107892000Y-125192976D01*
X107880282Y-125225279D01*
X91261800Y-125225279D01*
X91261800Y-125158615D01*
X91248651Y-125126870D01*
X91247115Y-125092542D01*
X91072059Y-124669920D01*
X91057442Y-124665251D01*
X91035722Y-124612815D01*
X90617985Y-124195078D01*
X90565549Y-124173358D01*
X90560880Y-124158741D01*
X90314408Y-124069332D01*
X90072185Y-123969000D01*
X90037824Y-123969000D01*
X90005521Y-123957282D01*
X89743592Y-123969000D01*
X89481415Y-123969000D01*
X89449670Y-123982149D01*
X89415342Y-123983685D01*
X88992720Y-124158741D01*
X88988051Y-124173358D01*
X88935615Y-124195078D01*
X88517878Y-124612815D01*
X88496158Y-124665251D01*
X88481541Y-124669920D01*
X88392132Y-124916392D01*
X88291800Y-125158615D01*
X88291800Y-125192976D01*
X88280082Y-125225279D01*
X72973000Y-125225279D01*
X72973000Y-119871012D01*
X87137681Y-119871012D01*
X87141800Y-120384655D01*
X87141800Y-120898134D01*
X87145999Y-120908271D01*
X87146087Y-120919247D01*
X87531057Y-121848647D01*
X87536975Y-121852171D01*
X87542955Y-121866608D01*
X88284192Y-122607845D01*
X88298629Y-122613825D01*
X88302153Y-122619743D01*
X88778283Y-122812504D01*
X89252666Y-123009000D01*
X89263638Y-123009000D01*
X89273812Y-123013119D01*
X89787455Y-123009000D01*
X90300934Y-123009000D01*
X90311071Y-123004801D01*
X90322047Y-123004713D01*
X91251447Y-122619743D01*
X91254971Y-122613825D01*
X91269408Y-122607845D01*
X91308366Y-122568887D01*
X93121800Y-122568887D01*
X93121800Y-123259113D01*
X93385938Y-123896799D01*
X93874001Y-124384862D01*
X94511687Y-124649000D01*
X95201913Y-124649000D01*
X95839599Y-124384862D01*
X96327662Y-123896799D01*
X96591800Y-123259113D01*
X96591800Y-122568887D01*
X96327662Y-121931201D01*
X95839599Y-121443138D01*
X95201913Y-121179000D01*
X94511687Y-121179000D01*
X93874001Y-121443138D01*
X93385938Y-121931201D01*
X93121800Y-122568887D01*
X91308366Y-122568887D01*
X92010645Y-121866608D01*
X92016625Y-121852171D01*
X92022543Y-121848647D01*
X92215304Y-121372517D01*
X92411800Y-120898134D01*
X92411800Y-120887162D01*
X92415919Y-120876988D01*
X92411800Y-120363345D01*
X92411800Y-119871012D01*
X106737881Y-119871012D01*
X106742000Y-120384655D01*
X106742000Y-120898134D01*
X106746199Y-120908271D01*
X106746287Y-120919247D01*
X107131257Y-121848647D01*
X107137175Y-121852171D01*
X107143155Y-121866608D01*
X107884392Y-122607845D01*
X107898829Y-122613825D01*
X107902353Y-122619743D01*
X108378483Y-122812504D01*
X108852866Y-123009000D01*
X108863838Y-123009000D01*
X108874012Y-123013119D01*
X109387655Y-123009000D01*
X109901134Y-123009000D01*
X109911271Y-123004801D01*
X109922247Y-123004713D01*
X110851647Y-122619743D01*
X110855171Y-122613825D01*
X110869608Y-122607845D01*
X110908566Y-122568887D01*
X112722000Y-122568887D01*
X112722000Y-123259113D01*
X112986138Y-123896799D01*
X113474201Y-124384862D01*
X114111887Y-124649000D01*
X114802113Y-124649000D01*
X115439799Y-124384862D01*
X115927862Y-123896799D01*
X116192000Y-123259113D01*
X116192000Y-122568887D01*
X115927862Y-121931201D01*
X115439799Y-121443138D01*
X114802113Y-121179000D01*
X114111887Y-121179000D01*
X113474201Y-121443138D01*
X112986138Y-121931201D01*
X112722000Y-122568887D01*
X110908566Y-122568887D01*
X111610845Y-121866608D01*
X111616825Y-121852171D01*
X111622743Y-121848647D01*
X111815504Y-121372517D01*
X112012000Y-120898134D01*
X112012000Y-120887162D01*
X112016119Y-120876988D01*
X112012000Y-120363345D01*
X112012000Y-119849866D01*
X112007801Y-119839729D01*
X112007713Y-119828753D01*
X111622743Y-118899353D01*
X111616825Y-118895829D01*
X111610845Y-118881392D01*
X110869608Y-118140155D01*
X110855171Y-118134175D01*
X110851647Y-118128257D01*
X110375517Y-117935496D01*
X109901134Y-117739000D01*
X109890162Y-117739000D01*
X109879988Y-117734881D01*
X109366345Y-117739000D01*
X108852866Y-117739000D01*
X108842729Y-117743199D01*
X108831753Y-117743287D01*
X107902353Y-118128257D01*
X107898829Y-118134175D01*
X107884392Y-118140155D01*
X107143155Y-118881392D01*
X107137175Y-118895829D01*
X107131257Y-118899353D01*
X106938496Y-119375483D01*
X106742000Y-119849866D01*
X106742000Y-119860838D01*
X106737881Y-119871012D01*
X92411800Y-119871012D01*
X92411800Y-119849866D01*
X92407601Y-119839729D01*
X92407513Y-119828753D01*
X92022543Y-118899353D01*
X92016625Y-118895829D01*
X92010645Y-118881392D01*
X91269408Y-118140155D01*
X91254971Y-118134175D01*
X91251447Y-118128257D01*
X90775317Y-117935496D01*
X90300934Y-117739000D01*
X90289962Y-117739000D01*
X90279788Y-117734881D01*
X89766145Y-117739000D01*
X89252666Y-117739000D01*
X89242529Y-117743199D01*
X89231553Y-117743287D01*
X88302153Y-118128257D01*
X88298629Y-118134175D01*
X88284192Y-118140155D01*
X87542955Y-118881392D01*
X87536975Y-118895829D01*
X87531057Y-118899353D01*
X87338296Y-119375483D01*
X87141800Y-119849866D01*
X87141800Y-119860838D01*
X87137681Y-119871012D01*
X72973000Y-119871012D01*
X72973000Y-115065279D01*
X88280082Y-115065279D01*
X88291800Y-115327208D01*
X88291800Y-115589385D01*
X88304949Y-115621130D01*
X88306485Y-115655458D01*
X88481541Y-116078080D01*
X88496158Y-116082749D01*
X88517878Y-116135185D01*
X88935615Y-116552922D01*
X88988051Y-116574642D01*
X88992720Y-116589259D01*
X89239192Y-116678668D01*
X89481415Y-116779000D01*
X89515776Y-116779000D01*
X89548079Y-116790718D01*
X89810008Y-116779000D01*
X90072185Y-116779000D01*
X90103930Y-116765851D01*
X90138258Y-116764315D01*
X90560880Y-116589259D01*
X90565549Y-116574642D01*
X90581800Y-116567910D01*
X90581800Y-116909113D01*
X90845938Y-117546799D01*
X91334001Y-118034862D01*
X91971687Y-118299000D01*
X92661913Y-118299000D01*
X93299599Y-118034862D01*
X93787662Y-117546799D01*
X94051800Y-116909113D01*
X94051800Y-116218887D01*
X93787662Y-115581201D01*
X93299599Y-115093138D01*
X93232342Y-115065279D01*
X107880282Y-115065279D01*
X107892000Y-115327208D01*
X107892000Y-115589385D01*
X107905149Y-115621130D01*
X107906685Y-115655458D01*
X108081741Y-116078080D01*
X108096358Y-116082749D01*
X108118078Y-116135185D01*
X108535815Y-116552922D01*
X108588251Y-116574642D01*
X108592920Y-116589259D01*
X108839392Y-116678668D01*
X109081615Y-116779000D01*
X109115976Y-116779000D01*
X109148279Y-116790718D01*
X109410208Y-116779000D01*
X109672385Y-116779000D01*
X109704130Y-116765851D01*
X109738458Y-116764315D01*
X110161080Y-116589259D01*
X110165749Y-116574642D01*
X110182000Y-116567910D01*
X110182000Y-116909113D01*
X110446138Y-117546799D01*
X110934201Y-118034862D01*
X111571887Y-118299000D01*
X112262113Y-118299000D01*
X112899799Y-118034862D01*
X113387862Y-117546799D01*
X113652000Y-116909113D01*
X113652000Y-116218887D01*
X113387862Y-115581201D01*
X112899799Y-115093138D01*
X112262113Y-114829000D01*
X111571887Y-114829000D01*
X110934201Y-115093138D01*
X110862000Y-115165339D01*
X110862000Y-114998615D01*
X110848851Y-114966870D01*
X110847315Y-114932542D01*
X110672259Y-114509920D01*
X110657642Y-114505251D01*
X110635922Y-114452815D01*
X110218185Y-114035078D01*
X110165749Y-114013358D01*
X110161080Y-113998741D01*
X109914608Y-113909332D01*
X109672385Y-113809000D01*
X109638024Y-113809000D01*
X109605721Y-113797282D01*
X109343792Y-113809000D01*
X109081615Y-113809000D01*
X109049870Y-113822149D01*
X109015542Y-113823685D01*
X108592920Y-113998741D01*
X108588251Y-114013358D01*
X108535815Y-114035078D01*
X108118078Y-114452815D01*
X108096358Y-114505251D01*
X108081741Y-114509920D01*
X107992332Y-114756392D01*
X107892000Y-114998615D01*
X107892000Y-115032976D01*
X107880282Y-115065279D01*
X93232342Y-115065279D01*
X92661913Y-114829000D01*
X91971687Y-114829000D01*
X91334001Y-115093138D01*
X91261800Y-115165339D01*
X91261800Y-114998615D01*
X91248651Y-114966870D01*
X91247115Y-114932542D01*
X91072059Y-114509920D01*
X91057442Y-114505251D01*
X91035722Y-114452815D01*
X90617985Y-114035078D01*
X90565549Y-114013358D01*
X90560880Y-113998741D01*
X90314408Y-113909332D01*
X90072185Y-113809000D01*
X90037824Y-113809000D01*
X90005521Y-113797282D01*
X89743592Y-113809000D01*
X89481415Y-113809000D01*
X89449670Y-113822149D01*
X89415342Y-113823685D01*
X88992720Y-113998741D01*
X88988051Y-114013358D01*
X88935615Y-114035078D01*
X88517878Y-114452815D01*
X88496158Y-114505251D01*
X88481541Y-114509920D01*
X88392132Y-114756392D01*
X88291800Y-114998615D01*
X88291800Y-115032976D01*
X88280082Y-115065279D01*
X72973000Y-115065279D01*
X72973000Y-105625279D01*
X88280082Y-105625279D01*
X88291800Y-105887208D01*
X88291800Y-106149385D01*
X88304949Y-106181130D01*
X88306485Y-106215458D01*
X88481541Y-106638080D01*
X88496158Y-106642749D01*
X88517878Y-106695185D01*
X88935615Y-107112922D01*
X88988051Y-107134642D01*
X88992720Y-107149259D01*
X89239192Y-107238668D01*
X89481415Y-107339000D01*
X89515776Y-107339000D01*
X89548079Y-107350718D01*
X89810008Y-107339000D01*
X90072185Y-107339000D01*
X90103930Y-107325851D01*
X90138258Y-107324315D01*
X90560880Y-107149259D01*
X90565549Y-107134642D01*
X90617985Y-107112922D01*
X91035722Y-106695185D01*
X91057442Y-106642749D01*
X91072059Y-106638080D01*
X91161468Y-106391608D01*
X91261800Y-106149385D01*
X91261800Y-106115024D01*
X91273518Y-106082721D01*
X91261800Y-105820792D01*
X91261800Y-105625279D01*
X107880282Y-105625279D01*
X107892000Y-105887208D01*
X107892000Y-106149385D01*
X107905149Y-106181130D01*
X107906685Y-106215458D01*
X108081741Y-106638080D01*
X108096358Y-106642749D01*
X108118078Y-106695185D01*
X108535815Y-107112922D01*
X108588251Y-107134642D01*
X108592920Y-107149259D01*
X108839392Y-107238668D01*
X109081615Y-107339000D01*
X109115976Y-107339000D01*
X109148279Y-107350718D01*
X109410208Y-107339000D01*
X109672385Y-107339000D01*
X109704130Y-107325851D01*
X109738458Y-107324315D01*
X110161080Y-107149259D01*
X110165749Y-107134642D01*
X110218185Y-107112922D01*
X110635922Y-106695185D01*
X110657642Y-106642749D01*
X110672259Y-106638080D01*
X110761668Y-106391608D01*
X110862000Y-106149385D01*
X110862000Y-106115024D01*
X110873718Y-106082721D01*
X110862000Y-105820792D01*
X110862000Y-105558615D01*
X110848851Y-105526870D01*
X110847315Y-105492542D01*
X110672259Y-105069920D01*
X110657642Y-105065251D01*
X110635922Y-105012815D01*
X110218185Y-104595078D01*
X110165749Y-104573358D01*
X110161080Y-104558741D01*
X109914608Y-104469332D01*
X109672385Y-104369000D01*
X109638024Y-104369000D01*
X109605721Y-104357282D01*
X109343792Y-104369000D01*
X109081615Y-104369000D01*
X109049870Y-104382149D01*
X109015542Y-104383685D01*
X108592920Y-104558741D01*
X108588251Y-104573358D01*
X108535815Y-104595078D01*
X108118078Y-105012815D01*
X108096358Y-105065251D01*
X108081741Y-105069920D01*
X107992332Y-105316392D01*
X107892000Y-105558615D01*
X107892000Y-105592976D01*
X107880282Y-105625279D01*
X91261800Y-105625279D01*
X91261800Y-105558615D01*
X91248651Y-105526870D01*
X91247115Y-105492542D01*
X91072059Y-105069920D01*
X91057442Y-105065251D01*
X91035722Y-105012815D01*
X90617985Y-104595078D01*
X90565549Y-104573358D01*
X90560880Y-104558741D01*
X90314408Y-104469332D01*
X90072185Y-104369000D01*
X90037824Y-104369000D01*
X90005521Y-104357282D01*
X89743592Y-104369000D01*
X89481415Y-104369000D01*
X89449670Y-104382149D01*
X89415342Y-104383685D01*
X88992720Y-104558741D01*
X88988051Y-104573358D01*
X88935615Y-104595078D01*
X88517878Y-105012815D01*
X88496158Y-105065251D01*
X88481541Y-105069920D01*
X88392132Y-105316392D01*
X88291800Y-105558615D01*
X88291800Y-105592976D01*
X88280082Y-105625279D01*
X72973000Y-105625279D01*
X72973000Y-100271012D01*
X87137681Y-100271012D01*
X87141800Y-100784655D01*
X87141800Y-101298134D01*
X87145999Y-101308271D01*
X87146087Y-101319247D01*
X87531057Y-102248647D01*
X87536975Y-102252171D01*
X87542955Y-102266608D01*
X88284192Y-103007845D01*
X88298629Y-103013825D01*
X88302153Y-103019743D01*
X88778283Y-103212504D01*
X89252666Y-103409000D01*
X89263638Y-103409000D01*
X89273812Y-103413119D01*
X89787455Y-103409000D01*
X90300934Y-103409000D01*
X90311071Y-103404801D01*
X90322047Y-103404713D01*
X91251447Y-103019743D01*
X91254971Y-103013825D01*
X91269408Y-103007845D01*
X91308366Y-102968887D01*
X93121800Y-102968887D01*
X93121800Y-103659113D01*
X93385938Y-104296799D01*
X93874001Y-104784862D01*
X94511687Y-105049000D01*
X95201913Y-105049000D01*
X95839599Y-104784862D01*
X96327662Y-104296799D01*
X96591800Y-103659113D01*
X96591800Y-102968887D01*
X96327662Y-102331201D01*
X95839599Y-101843138D01*
X95201913Y-101579000D01*
X94511687Y-101579000D01*
X93874001Y-101843138D01*
X93385938Y-102331201D01*
X93121800Y-102968887D01*
X91308366Y-102968887D01*
X92010645Y-102266608D01*
X92016625Y-102252171D01*
X92022543Y-102248647D01*
X92215304Y-101772517D01*
X92411800Y-101298134D01*
X92411800Y-101287162D01*
X92415919Y-101276988D01*
X92411800Y-100763345D01*
X92411800Y-100271012D01*
X106737881Y-100271012D01*
X106742000Y-100784655D01*
X106742000Y-101298134D01*
X106746199Y-101308271D01*
X106746287Y-101319247D01*
X107131257Y-102248647D01*
X107137175Y-102252171D01*
X107143155Y-102266608D01*
X107884392Y-103007845D01*
X107898829Y-103013825D01*
X107902353Y-103019743D01*
X108378483Y-103212504D01*
X108852866Y-103409000D01*
X108863838Y-103409000D01*
X108874012Y-103413119D01*
X109387655Y-103409000D01*
X109901134Y-103409000D01*
X109911271Y-103404801D01*
X109922247Y-103404713D01*
X110851647Y-103019743D01*
X110855171Y-103013825D01*
X110869608Y-103007845D01*
X110908566Y-102968887D01*
X112722000Y-102968887D01*
X112722000Y-103659113D01*
X112986138Y-104296799D01*
X113474201Y-104784862D01*
X114111887Y-105049000D01*
X114802113Y-105049000D01*
X115439799Y-104784862D01*
X115927862Y-104296799D01*
X116192000Y-103659113D01*
X116192000Y-102968887D01*
X115927862Y-102331201D01*
X115439799Y-101843138D01*
X114802113Y-101579000D01*
X114111887Y-101579000D01*
X113474201Y-101843138D01*
X112986138Y-102331201D01*
X112722000Y-102968887D01*
X110908566Y-102968887D01*
X111610845Y-102266608D01*
X111616825Y-102252171D01*
X111622743Y-102248647D01*
X111815504Y-101772517D01*
X112012000Y-101298134D01*
X112012000Y-101287162D01*
X112016119Y-101276988D01*
X112012000Y-100763345D01*
X112012000Y-100249866D01*
X112007801Y-100239729D01*
X112007713Y-100228753D01*
X111622743Y-99299353D01*
X111616825Y-99295829D01*
X111610845Y-99281392D01*
X110869608Y-98540155D01*
X110855171Y-98534175D01*
X110851647Y-98528257D01*
X110375517Y-98335496D01*
X109901134Y-98139000D01*
X109890162Y-98139000D01*
X109879988Y-98134881D01*
X109366345Y-98139000D01*
X108852866Y-98139000D01*
X108842729Y-98143199D01*
X108831753Y-98143287D01*
X107902353Y-98528257D01*
X107898829Y-98534175D01*
X107884392Y-98540155D01*
X107143155Y-99281392D01*
X107137175Y-99295829D01*
X107131257Y-99299353D01*
X106938496Y-99775483D01*
X106742000Y-100249866D01*
X106742000Y-100260838D01*
X106737881Y-100271012D01*
X92411800Y-100271012D01*
X92411800Y-100249866D01*
X92407601Y-100239729D01*
X92407513Y-100228753D01*
X92022543Y-99299353D01*
X92016625Y-99295829D01*
X92010645Y-99281392D01*
X91269408Y-98540155D01*
X91254971Y-98534175D01*
X91251447Y-98528257D01*
X90775317Y-98335496D01*
X90300934Y-98139000D01*
X90289962Y-98139000D01*
X90279788Y-98134881D01*
X89766145Y-98139000D01*
X89252666Y-98139000D01*
X89242529Y-98143199D01*
X89231553Y-98143287D01*
X88302153Y-98528257D01*
X88298629Y-98534175D01*
X88284192Y-98540155D01*
X87542955Y-99281392D01*
X87536975Y-99295829D01*
X87531057Y-99299353D01*
X87338296Y-99775483D01*
X87141800Y-100249866D01*
X87141800Y-100260838D01*
X87137681Y-100271012D01*
X72973000Y-100271012D01*
X72973000Y-95465279D01*
X88280082Y-95465279D01*
X88291800Y-95727208D01*
X88291800Y-95989385D01*
X88304949Y-96021130D01*
X88306485Y-96055458D01*
X88481541Y-96478080D01*
X88496158Y-96482749D01*
X88517878Y-96535185D01*
X88935615Y-96952922D01*
X88988051Y-96974642D01*
X88992720Y-96989259D01*
X89239192Y-97078668D01*
X89481415Y-97179000D01*
X89515776Y-97179000D01*
X89548079Y-97190718D01*
X89810008Y-97179000D01*
X90072185Y-97179000D01*
X90103930Y-97165851D01*
X90138258Y-97164315D01*
X90560880Y-96989259D01*
X90565549Y-96974642D01*
X90581800Y-96967910D01*
X90581800Y-97309113D01*
X90845938Y-97946799D01*
X91334001Y-98434862D01*
X91971687Y-98699000D01*
X92661913Y-98699000D01*
X93299599Y-98434862D01*
X93787662Y-97946799D01*
X94051800Y-97309113D01*
X94051800Y-96618887D01*
X93787662Y-95981201D01*
X93299599Y-95493138D01*
X93232342Y-95465279D01*
X107880282Y-95465279D01*
X107892000Y-95727208D01*
X107892000Y-95989385D01*
X107905149Y-96021130D01*
X107906685Y-96055458D01*
X108081741Y-96478080D01*
X108096358Y-96482749D01*
X108118078Y-96535185D01*
X108535815Y-96952922D01*
X108588251Y-96974642D01*
X108592920Y-96989259D01*
X108839392Y-97078668D01*
X109081615Y-97179000D01*
X109115976Y-97179000D01*
X109148279Y-97190718D01*
X109410208Y-97179000D01*
X109672385Y-97179000D01*
X109704130Y-97165851D01*
X109738458Y-97164315D01*
X110161080Y-96989259D01*
X110165749Y-96974642D01*
X110182000Y-96967910D01*
X110182000Y-97309113D01*
X110446138Y-97946799D01*
X110934201Y-98434862D01*
X111571887Y-98699000D01*
X112262113Y-98699000D01*
X112899799Y-98434862D01*
X113387862Y-97946799D01*
X113652000Y-97309113D01*
X113652000Y-96618887D01*
X113387862Y-95981201D01*
X112899799Y-95493138D01*
X112262113Y-95229000D01*
X111571887Y-95229000D01*
X110934201Y-95493138D01*
X110862000Y-95565339D01*
X110862000Y-95398615D01*
X110848851Y-95366870D01*
X110847315Y-95332542D01*
X110672259Y-94909920D01*
X110657642Y-94905251D01*
X110635922Y-94852815D01*
X110218185Y-94435078D01*
X110165749Y-94413358D01*
X110161080Y-94398741D01*
X109914608Y-94309332D01*
X109672385Y-94209000D01*
X109638024Y-94209000D01*
X109605721Y-94197282D01*
X109343792Y-94209000D01*
X109081615Y-94209000D01*
X109049870Y-94222149D01*
X109015542Y-94223685D01*
X108592920Y-94398741D01*
X108588251Y-94413358D01*
X108535815Y-94435078D01*
X108118078Y-94852815D01*
X108096358Y-94905251D01*
X108081741Y-94909920D01*
X107992332Y-95156392D01*
X107892000Y-95398615D01*
X107892000Y-95432976D01*
X107880282Y-95465279D01*
X93232342Y-95465279D01*
X92661913Y-95229000D01*
X91971687Y-95229000D01*
X91334001Y-95493138D01*
X91261800Y-95565339D01*
X91261800Y-95398615D01*
X91248651Y-95366870D01*
X91247115Y-95332542D01*
X91072059Y-94909920D01*
X91057442Y-94905251D01*
X91035722Y-94852815D01*
X90617985Y-94435078D01*
X90565549Y-94413358D01*
X90560880Y-94398741D01*
X90314408Y-94309332D01*
X90072185Y-94209000D01*
X90037824Y-94209000D01*
X90005521Y-94197282D01*
X89743592Y-94209000D01*
X89481415Y-94209000D01*
X89449670Y-94222149D01*
X89415342Y-94223685D01*
X88992720Y-94398741D01*
X88988051Y-94413358D01*
X88935615Y-94435078D01*
X88517878Y-94852815D01*
X88496158Y-94905251D01*
X88481541Y-94909920D01*
X88392132Y-95156392D01*
X88291800Y-95398615D01*
X88291800Y-95432976D01*
X88280082Y-95465279D01*
X72973000Y-95465279D01*
X72973000Y-86025279D01*
X88280082Y-86025279D01*
X88291800Y-86287208D01*
X88291800Y-86549385D01*
X88304949Y-86581130D01*
X88306485Y-86615458D01*
X88481541Y-87038080D01*
X88496158Y-87042749D01*
X88517878Y-87095185D01*
X88935615Y-87512922D01*
X88988051Y-87534642D01*
X88992720Y-87549259D01*
X89239192Y-87638668D01*
X89481415Y-87739000D01*
X89515776Y-87739000D01*
X89548079Y-87750718D01*
X89810008Y-87739000D01*
X90072185Y-87739000D01*
X90103930Y-87725851D01*
X90138258Y-87724315D01*
X90560880Y-87549259D01*
X90565549Y-87534642D01*
X90617985Y-87512922D01*
X91035722Y-87095185D01*
X91057442Y-87042749D01*
X91072059Y-87038080D01*
X91161468Y-86791608D01*
X91261800Y-86549385D01*
X91261800Y-86515024D01*
X91273518Y-86482721D01*
X91261800Y-86220792D01*
X91261800Y-86025279D01*
X107880282Y-86025279D01*
X107892000Y-86287208D01*
X107892000Y-86549385D01*
X107905149Y-86581130D01*
X107906685Y-86615458D01*
X108081741Y-87038080D01*
X108096358Y-87042749D01*
X108118078Y-87095185D01*
X108535815Y-87512922D01*
X108588251Y-87534642D01*
X108592920Y-87549259D01*
X108839392Y-87638668D01*
X109081615Y-87739000D01*
X109115976Y-87739000D01*
X109148279Y-87750718D01*
X109410208Y-87739000D01*
X109672385Y-87739000D01*
X109704130Y-87725851D01*
X109738458Y-87724315D01*
X110161080Y-87549259D01*
X110165749Y-87534642D01*
X110218185Y-87512922D01*
X110635922Y-87095185D01*
X110657642Y-87042749D01*
X110672259Y-87038080D01*
X110761668Y-86791608D01*
X110862000Y-86549385D01*
X110862000Y-86515024D01*
X110873718Y-86482721D01*
X110862000Y-86220792D01*
X110862000Y-85958615D01*
X110848851Y-85926870D01*
X110847315Y-85892542D01*
X110672259Y-85469920D01*
X110657642Y-85465251D01*
X110635922Y-85412815D01*
X110218185Y-84995078D01*
X110165749Y-84973358D01*
X110161080Y-84958741D01*
X109914608Y-84869332D01*
X109672385Y-84769000D01*
X109638024Y-84769000D01*
X109605721Y-84757282D01*
X109343792Y-84769000D01*
X109081615Y-84769000D01*
X109049870Y-84782149D01*
X109015542Y-84783685D01*
X108592920Y-84958741D01*
X108588251Y-84973358D01*
X108535815Y-84995078D01*
X108118078Y-85412815D01*
X108096358Y-85465251D01*
X108081741Y-85469920D01*
X107992332Y-85716392D01*
X107892000Y-85958615D01*
X107892000Y-85992976D01*
X107880282Y-86025279D01*
X91261800Y-86025279D01*
X91261800Y-85958615D01*
X91248651Y-85926870D01*
X91247115Y-85892542D01*
X91072059Y-85469920D01*
X91057442Y-85465251D01*
X91035722Y-85412815D01*
X90617985Y-84995078D01*
X90565549Y-84973358D01*
X90560880Y-84958741D01*
X90314408Y-84869332D01*
X90072185Y-84769000D01*
X90037824Y-84769000D01*
X90005521Y-84757282D01*
X89743592Y-84769000D01*
X89481415Y-84769000D01*
X89449670Y-84782149D01*
X89415342Y-84783685D01*
X88992720Y-84958741D01*
X88988051Y-84973358D01*
X88935615Y-84995078D01*
X88517878Y-85412815D01*
X88496158Y-85465251D01*
X88481541Y-85469920D01*
X88392132Y-85716392D01*
X88291800Y-85958615D01*
X88291800Y-85992976D01*
X88280082Y-86025279D01*
X72973000Y-86025279D01*
X72973000Y-80671012D01*
X87137681Y-80671012D01*
X87141800Y-81184655D01*
X87141800Y-81698134D01*
X87145999Y-81708271D01*
X87146087Y-81719247D01*
X87531057Y-82648647D01*
X87536975Y-82652171D01*
X87542955Y-82666608D01*
X88284192Y-83407845D01*
X88298629Y-83413825D01*
X88302153Y-83419743D01*
X88778283Y-83612504D01*
X89252666Y-83809000D01*
X89263638Y-83809000D01*
X89273812Y-83813119D01*
X89787455Y-83809000D01*
X90300934Y-83809000D01*
X90311071Y-83804801D01*
X90322047Y-83804713D01*
X91251447Y-83419743D01*
X91254971Y-83413825D01*
X91269408Y-83407845D01*
X91308366Y-83368887D01*
X93121800Y-83368887D01*
X93121800Y-84059113D01*
X93385938Y-84696799D01*
X93874001Y-85184862D01*
X94511687Y-85449000D01*
X95201913Y-85449000D01*
X95839599Y-85184862D01*
X96327662Y-84696799D01*
X96591800Y-84059113D01*
X96591800Y-83368887D01*
X96327662Y-82731201D01*
X95839599Y-82243138D01*
X95201913Y-81979000D01*
X94511687Y-81979000D01*
X93874001Y-82243138D01*
X93385938Y-82731201D01*
X93121800Y-83368887D01*
X91308366Y-83368887D01*
X92010645Y-82666608D01*
X92016625Y-82652171D01*
X92022543Y-82648647D01*
X92215304Y-82172517D01*
X92411800Y-81698134D01*
X92411800Y-81687162D01*
X92415919Y-81676988D01*
X92411800Y-81163345D01*
X92411800Y-80671012D01*
X106737881Y-80671012D01*
X106742000Y-81184655D01*
X106742000Y-81698134D01*
X106746199Y-81708271D01*
X106746287Y-81719247D01*
X107131257Y-82648647D01*
X107137175Y-82652171D01*
X107143155Y-82666608D01*
X107884392Y-83407845D01*
X107898829Y-83413825D01*
X107902353Y-83419743D01*
X108378483Y-83612504D01*
X108852866Y-83809000D01*
X108863838Y-83809000D01*
X108874012Y-83813119D01*
X109387655Y-83809000D01*
X109901134Y-83809000D01*
X109911271Y-83804801D01*
X109922247Y-83804713D01*
X110851647Y-83419743D01*
X110855171Y-83413825D01*
X110869608Y-83407845D01*
X110908566Y-83368887D01*
X112722000Y-83368887D01*
X112722000Y-84059113D01*
X112986138Y-84696799D01*
X113474201Y-85184862D01*
X114111887Y-85449000D01*
X114802113Y-85449000D01*
X115439799Y-85184862D01*
X115927862Y-84696799D01*
X116192000Y-84059113D01*
X116192000Y-83368887D01*
X115927862Y-82731201D01*
X115439799Y-82243138D01*
X114802113Y-81979000D01*
X114111887Y-81979000D01*
X113474201Y-82243138D01*
X112986138Y-82731201D01*
X112722000Y-83368887D01*
X110908566Y-83368887D01*
X111610845Y-82666608D01*
X111616825Y-82652171D01*
X111622743Y-82648647D01*
X111815504Y-82172517D01*
X112012000Y-81698134D01*
X112012000Y-81687162D01*
X112016119Y-81676988D01*
X112012000Y-81163345D01*
X112012000Y-80649866D01*
X112007801Y-80639729D01*
X112007713Y-80628753D01*
X111622743Y-79699353D01*
X111616825Y-79695829D01*
X111610845Y-79681392D01*
X110869608Y-78940155D01*
X110855171Y-78934175D01*
X110851647Y-78928257D01*
X110375517Y-78735496D01*
X109901134Y-78539000D01*
X109890162Y-78539000D01*
X109879988Y-78534881D01*
X109366345Y-78539000D01*
X108852866Y-78539000D01*
X108842729Y-78543199D01*
X108831753Y-78543287D01*
X107902353Y-78928257D01*
X107898829Y-78934175D01*
X107884392Y-78940155D01*
X107143155Y-79681392D01*
X107137175Y-79695829D01*
X107131257Y-79699353D01*
X106938496Y-80175483D01*
X106742000Y-80649866D01*
X106742000Y-80660838D01*
X106737881Y-80671012D01*
X92411800Y-80671012D01*
X92411800Y-80649866D01*
X92407601Y-80639729D01*
X92407513Y-80628753D01*
X92022543Y-79699353D01*
X92016625Y-79695829D01*
X92010645Y-79681392D01*
X91269408Y-78940155D01*
X91254971Y-78934175D01*
X91251447Y-78928257D01*
X90775317Y-78735496D01*
X90300934Y-78539000D01*
X90289962Y-78539000D01*
X90279788Y-78534881D01*
X89766145Y-78539000D01*
X89252666Y-78539000D01*
X89242529Y-78543199D01*
X89231553Y-78543287D01*
X88302153Y-78928257D01*
X88298629Y-78934175D01*
X88284192Y-78940155D01*
X87542955Y-79681392D01*
X87536975Y-79695829D01*
X87531057Y-79699353D01*
X87338296Y-80175483D01*
X87141800Y-80649866D01*
X87141800Y-80660838D01*
X87137681Y-80671012D01*
X72973000Y-80671012D01*
X72973000Y-75865279D01*
X88280082Y-75865279D01*
X88291800Y-76127208D01*
X88291800Y-76389385D01*
X88304949Y-76421130D01*
X88306485Y-76455458D01*
X88481541Y-76878080D01*
X88496158Y-76882749D01*
X88517878Y-76935185D01*
X88935615Y-77352922D01*
X88988051Y-77374642D01*
X88992720Y-77389259D01*
X89239192Y-77478668D01*
X89481415Y-77579000D01*
X89515776Y-77579000D01*
X89548079Y-77590718D01*
X89810008Y-77579000D01*
X90072185Y-77579000D01*
X90103930Y-77565851D01*
X90138258Y-77564315D01*
X90560880Y-77389259D01*
X90565549Y-77374642D01*
X90581800Y-77367910D01*
X90581800Y-77709113D01*
X90845938Y-78346799D01*
X91334001Y-78834862D01*
X91971687Y-79099000D01*
X92661913Y-79099000D01*
X93299599Y-78834862D01*
X93787662Y-78346799D01*
X94051800Y-77709113D01*
X94051800Y-77018887D01*
X93787662Y-76381201D01*
X93299599Y-75893138D01*
X93232342Y-75865279D01*
X107880282Y-75865279D01*
X107892000Y-76127208D01*
X107892000Y-76389385D01*
X107905149Y-76421130D01*
X107906685Y-76455458D01*
X108081741Y-76878080D01*
X108096358Y-76882749D01*
X108118078Y-76935185D01*
X108535815Y-77352922D01*
X108588251Y-77374642D01*
X108592920Y-77389259D01*
X108839392Y-77478668D01*
X109081615Y-77579000D01*
X109115976Y-77579000D01*
X109148279Y-77590718D01*
X109410208Y-77579000D01*
X109672385Y-77579000D01*
X109704130Y-77565851D01*
X109738458Y-77564315D01*
X110161080Y-77389259D01*
X110165749Y-77374642D01*
X110182000Y-77367910D01*
X110182000Y-77709113D01*
X110446138Y-78346799D01*
X110934201Y-78834862D01*
X111571887Y-79099000D01*
X112262113Y-79099000D01*
X112899799Y-78834862D01*
X112994661Y-78740000D01*
X122437908Y-78740000D01*
X122553161Y-79319418D01*
X122881375Y-79810625D01*
X123179761Y-80010000D01*
X122881375Y-80209375D01*
X122553161Y-80700582D01*
X122437908Y-81280000D01*
X122553161Y-81859418D01*
X122881375Y-82350625D01*
X123179761Y-82550000D01*
X122881375Y-82749375D01*
X122553161Y-83240582D01*
X122437908Y-83820000D01*
X122553161Y-84399418D01*
X122881375Y-84890625D01*
X123179761Y-85090000D01*
X122881375Y-85289375D01*
X122553161Y-85780582D01*
X122437908Y-86360000D01*
X122553161Y-86939418D01*
X122881375Y-87430625D01*
X123179761Y-87630000D01*
X122881375Y-87829375D01*
X122553161Y-88320582D01*
X122437908Y-88900000D01*
X122553161Y-89479418D01*
X122881375Y-89970625D01*
X123179761Y-90170000D01*
X122881375Y-90369375D01*
X122553161Y-90860582D01*
X122437908Y-91440000D01*
X122553161Y-92019418D01*
X122881375Y-92510625D01*
X123179761Y-92710000D01*
X122881375Y-92909375D01*
X122553161Y-93400582D01*
X122437908Y-93980000D01*
X122553161Y-94559418D01*
X122881375Y-95050625D01*
X123179761Y-95250000D01*
X122881375Y-95449375D01*
X122553161Y-95940582D01*
X122437908Y-96520000D01*
X122553161Y-97099418D01*
X122881375Y-97590625D01*
X123179761Y-97790000D01*
X122881375Y-97989375D01*
X122553161Y-98480582D01*
X122437908Y-99060000D01*
X122553161Y-99639418D01*
X122881375Y-100130625D01*
X123179761Y-100330000D01*
X122881375Y-100529375D01*
X122553161Y-101020582D01*
X122437908Y-101600000D01*
X122553161Y-102179418D01*
X122881375Y-102670625D01*
X123179761Y-102870000D01*
X122881375Y-103069375D01*
X122553161Y-103560582D01*
X122437908Y-104140000D01*
X122553161Y-104719418D01*
X122881375Y-105210625D01*
X123179761Y-105410000D01*
X122881375Y-105609375D01*
X122553161Y-106100582D01*
X122437908Y-106680000D01*
X122553161Y-107259418D01*
X122881375Y-107750625D01*
X123179761Y-107950000D01*
X122881375Y-108149375D01*
X122553161Y-108640582D01*
X122437908Y-109220000D01*
X122553161Y-109799418D01*
X122881375Y-110290625D01*
X123179761Y-110490000D01*
X122881375Y-110689375D01*
X122553161Y-111180582D01*
X122437908Y-111760000D01*
X122553161Y-112339418D01*
X122881375Y-112830625D01*
X123179761Y-113030000D01*
X122881375Y-113229375D01*
X122553161Y-113720582D01*
X122437908Y-114300000D01*
X122553161Y-114879418D01*
X122881375Y-115370625D01*
X123179761Y-115570000D01*
X122881375Y-115769375D01*
X122553161Y-116260582D01*
X122437908Y-116840000D01*
X122553161Y-117419418D01*
X122881375Y-117910625D01*
X123179761Y-118110000D01*
X122881375Y-118309375D01*
X122553161Y-118800582D01*
X122437908Y-119380000D01*
X122553161Y-119959418D01*
X122881375Y-120450625D01*
X123179761Y-120650000D01*
X122881375Y-120849375D01*
X122553161Y-121340582D01*
X122437908Y-121920000D01*
X122553161Y-122499418D01*
X122881375Y-122990625D01*
X123179761Y-123190000D01*
X122881375Y-123389375D01*
X122553161Y-123880582D01*
X122437908Y-124460000D01*
X122553161Y-125039418D01*
X122881375Y-125530625D01*
X123372582Y-125858839D01*
X123805744Y-125945000D01*
X124098256Y-125945000D01*
X124531418Y-125858839D01*
X125022625Y-125530625D01*
X125222000Y-125232239D01*
X125421375Y-125530625D01*
X125912582Y-125858839D01*
X126345744Y-125945000D01*
X126638256Y-125945000D01*
X127071418Y-125858839D01*
X127562625Y-125530625D01*
X127890839Y-125039418D01*
X128006092Y-124460000D01*
X127890839Y-123880582D01*
X127562625Y-123389375D01*
X127264239Y-123190000D01*
X127562625Y-122990625D01*
X127890839Y-122499418D01*
X128006092Y-121920000D01*
X127890839Y-121340582D01*
X127562625Y-120849375D01*
X127264239Y-120650000D01*
X127562625Y-120450625D01*
X127890839Y-119959418D01*
X128006092Y-119380000D01*
X127890839Y-118800582D01*
X127562625Y-118309375D01*
X127264239Y-118110000D01*
X127562625Y-117910625D01*
X127890839Y-117419418D01*
X128006092Y-116840000D01*
X127890839Y-116260582D01*
X127562625Y-115769375D01*
X127264239Y-115570000D01*
X127562625Y-115370625D01*
X127890839Y-114879418D01*
X128006092Y-114300000D01*
X127890839Y-113720582D01*
X127562625Y-113229375D01*
X127264239Y-113030000D01*
X127562625Y-112830625D01*
X127890839Y-112339418D01*
X128006092Y-111760000D01*
X127890839Y-111180582D01*
X127562625Y-110689375D01*
X127264239Y-110490000D01*
X127562625Y-110290625D01*
X127890839Y-109799418D01*
X128006092Y-109220000D01*
X127890839Y-108640582D01*
X127562625Y-108149375D01*
X127264239Y-107950000D01*
X127562625Y-107750625D01*
X127890839Y-107259418D01*
X128006092Y-106680000D01*
X127890839Y-106100582D01*
X127562625Y-105609375D01*
X127264239Y-105410000D01*
X127562625Y-105210625D01*
X127890839Y-104719418D01*
X128006092Y-104140000D01*
X127890839Y-103560582D01*
X127562625Y-103069375D01*
X127264239Y-102870000D01*
X127562625Y-102670625D01*
X127890839Y-102179418D01*
X128006092Y-101600000D01*
X127890839Y-101020582D01*
X127562625Y-100529375D01*
X127264239Y-100330000D01*
X127562625Y-100130625D01*
X127890839Y-99639418D01*
X128006092Y-99060000D01*
X127890839Y-98480582D01*
X127562625Y-97989375D01*
X127264239Y-97790000D01*
X127562625Y-97590625D01*
X127890839Y-97099418D01*
X128006092Y-96520000D01*
X127890839Y-95940582D01*
X127562625Y-95449375D01*
X127264239Y-95250000D01*
X127562625Y-95050625D01*
X127890839Y-94559418D01*
X128006092Y-93980000D01*
X127890839Y-93400582D01*
X127562625Y-92909375D01*
X127264239Y-92710000D01*
X127562625Y-92510625D01*
X127890839Y-92019418D01*
X128006092Y-91440000D01*
X127890839Y-90860582D01*
X127562625Y-90369375D01*
X127264239Y-90170000D01*
X127562625Y-89970625D01*
X127890839Y-89479418D01*
X128006092Y-88900000D01*
X127890839Y-88320582D01*
X127562625Y-87829375D01*
X127264239Y-87630000D01*
X127562625Y-87430625D01*
X127890839Y-86939418D01*
X128006092Y-86360000D01*
X127890839Y-85780582D01*
X127562625Y-85289375D01*
X127264239Y-85090000D01*
X127562625Y-84890625D01*
X127890839Y-84399418D01*
X128006092Y-83820000D01*
X127890839Y-83240582D01*
X127562625Y-82749375D01*
X127264239Y-82550000D01*
X127562625Y-82350625D01*
X127890839Y-81859418D01*
X128006092Y-81280000D01*
X127890839Y-80700582D01*
X127562625Y-80209375D01*
X127264239Y-80010000D01*
X127562625Y-79810625D01*
X127890839Y-79319418D01*
X128006092Y-78740000D01*
X127890839Y-78160582D01*
X127562625Y-77669375D01*
X127264239Y-77470000D01*
X127562625Y-77270625D01*
X127890839Y-76779418D01*
X128006092Y-76200000D01*
X127890839Y-75620582D01*
X127562625Y-75129375D01*
X127071418Y-74801161D01*
X126638256Y-74715000D01*
X126345744Y-74715000D01*
X125912582Y-74801161D01*
X125421375Y-75129375D01*
X125409184Y-75147619D01*
X125400157Y-75102235D01*
X125259809Y-74892191D01*
X125049765Y-74751843D01*
X124802000Y-74702560D01*
X123102000Y-74702560D01*
X122854235Y-74751843D01*
X122644191Y-74892191D01*
X122503843Y-75102235D01*
X122454560Y-75350000D01*
X122454560Y-77050000D01*
X122503843Y-77297765D01*
X122644191Y-77507809D01*
X122854235Y-77648157D01*
X122899619Y-77657184D01*
X122881375Y-77669375D01*
X122553161Y-78160582D01*
X122437908Y-78740000D01*
X112994661Y-78740000D01*
X113387862Y-78346799D01*
X113652000Y-77709113D01*
X113652000Y-77018887D01*
X113387862Y-76381201D01*
X112899799Y-75893138D01*
X112262113Y-75629000D01*
X111571887Y-75629000D01*
X110934201Y-75893138D01*
X110862000Y-75965339D01*
X110862000Y-75798615D01*
X110848851Y-75766870D01*
X110847315Y-75732542D01*
X110672259Y-75309920D01*
X110657642Y-75305251D01*
X110635922Y-75252815D01*
X110218185Y-74835078D01*
X110165749Y-74813358D01*
X110161080Y-74798741D01*
X109914608Y-74709332D01*
X109672385Y-74609000D01*
X109638024Y-74609000D01*
X109605721Y-74597282D01*
X109343792Y-74609000D01*
X109081615Y-74609000D01*
X109049870Y-74622149D01*
X109015542Y-74623685D01*
X108592920Y-74798741D01*
X108588251Y-74813358D01*
X108535815Y-74835078D01*
X108118078Y-75252815D01*
X108096358Y-75305251D01*
X108081741Y-75309920D01*
X107992332Y-75556392D01*
X107892000Y-75798615D01*
X107892000Y-75832976D01*
X107880282Y-75865279D01*
X93232342Y-75865279D01*
X92661913Y-75629000D01*
X91971687Y-75629000D01*
X91334001Y-75893138D01*
X91261800Y-75965339D01*
X91261800Y-75798615D01*
X91248651Y-75766870D01*
X91247115Y-75732542D01*
X91072059Y-75309920D01*
X91057442Y-75305251D01*
X91035722Y-75252815D01*
X90617985Y-74835078D01*
X90565549Y-74813358D01*
X90560880Y-74798741D01*
X90314408Y-74709332D01*
X90072185Y-74609000D01*
X90037824Y-74609000D01*
X90005521Y-74597282D01*
X89743592Y-74609000D01*
X89481415Y-74609000D01*
X89449670Y-74622149D01*
X89415342Y-74623685D01*
X88992720Y-74798741D01*
X88988051Y-74813358D01*
X88935615Y-74835078D01*
X88517878Y-75252815D01*
X88496158Y-75305251D01*
X88481541Y-75309920D01*
X88392132Y-75556392D01*
X88291800Y-75798615D01*
X88291800Y-75832976D01*
X88280082Y-75865279D01*
X72973000Y-75865279D01*
X72973000Y-71564021D01*
X72988951Y-71488980D01*
X72996993Y-71412468D01*
X73015849Y-71052678D01*
X73018000Y-71039098D01*
X73018000Y-71942053D01*
X73486445Y-73072980D01*
X74352020Y-73938555D01*
X75482947Y-74407000D01*
X76707053Y-74407000D01*
X77837980Y-73938555D01*
X78703555Y-73072980D01*
X79172000Y-71942053D01*
X79172000Y-70717947D01*
X78703555Y-69587020D01*
X77837980Y-68721445D01*
X76757752Y-68274000D01*
X124432248Y-68274000D01*
X123352020Y-68721445D01*
G36*
X125421375Y-122990625D02*
X125719761Y-123190000D01*
X125421375Y-123389375D01*
X125222000Y-123687761D01*
X125022625Y-123389375D01*
X124724239Y-123190000D01*
X125022625Y-122990625D01*
X125222000Y-122692239D01*
X125421375Y-122990625D01*
X125421375Y-122990625D01*
G37*
X125421375Y-122990625D02*
X125719761Y-123190000D01*
X125421375Y-123389375D01*
X125222000Y-123687761D01*
X125022625Y-123389375D01*
X124724239Y-123190000D01*
X125022625Y-122990625D01*
X125222000Y-122692239D01*
X125421375Y-122990625D01*
G36*
X125421375Y-120450625D02*
X125719761Y-120650000D01*
X125421375Y-120849375D01*
X125222000Y-121147761D01*
X125022625Y-120849375D01*
X124724239Y-120650000D01*
X125022625Y-120450625D01*
X125222000Y-120152239D01*
X125421375Y-120450625D01*
X125421375Y-120450625D01*
G37*
X125421375Y-120450625D02*
X125719761Y-120650000D01*
X125421375Y-120849375D01*
X125222000Y-121147761D01*
X125022625Y-120849375D01*
X124724239Y-120650000D01*
X125022625Y-120450625D01*
X125222000Y-120152239D01*
X125421375Y-120450625D01*
G36*
X125421375Y-117910625D02*
X125719761Y-118110000D01*
X125421375Y-118309375D01*
X125222000Y-118607761D01*
X125022625Y-118309375D01*
X124724239Y-118110000D01*
X125022625Y-117910625D01*
X125222000Y-117612239D01*
X125421375Y-117910625D01*
X125421375Y-117910625D01*
G37*
X125421375Y-117910625D02*
X125719761Y-118110000D01*
X125421375Y-118309375D01*
X125222000Y-118607761D01*
X125022625Y-118309375D01*
X124724239Y-118110000D01*
X125022625Y-117910625D01*
X125222000Y-117612239D01*
X125421375Y-117910625D01*
G36*
X125421375Y-115370625D02*
X125719761Y-115570000D01*
X125421375Y-115769375D01*
X125222000Y-116067761D01*
X125022625Y-115769375D01*
X124724239Y-115570000D01*
X125022625Y-115370625D01*
X125222000Y-115072239D01*
X125421375Y-115370625D01*
X125421375Y-115370625D01*
G37*
X125421375Y-115370625D02*
X125719761Y-115570000D01*
X125421375Y-115769375D01*
X125222000Y-116067761D01*
X125022625Y-115769375D01*
X124724239Y-115570000D01*
X125022625Y-115370625D01*
X125222000Y-115072239D01*
X125421375Y-115370625D01*
G36*
X125421375Y-112830625D02*
X125719761Y-113030000D01*
X125421375Y-113229375D01*
X125222000Y-113527761D01*
X125022625Y-113229375D01*
X124724239Y-113030000D01*
X125022625Y-112830625D01*
X125222000Y-112532239D01*
X125421375Y-112830625D01*
X125421375Y-112830625D01*
G37*
X125421375Y-112830625D02*
X125719761Y-113030000D01*
X125421375Y-113229375D01*
X125222000Y-113527761D01*
X125022625Y-113229375D01*
X124724239Y-113030000D01*
X125022625Y-112830625D01*
X125222000Y-112532239D01*
X125421375Y-112830625D01*
G36*
X125421375Y-110290625D02*
X125719761Y-110490000D01*
X125421375Y-110689375D01*
X125222000Y-110987761D01*
X125022625Y-110689375D01*
X124724239Y-110490000D01*
X125022625Y-110290625D01*
X125222000Y-109992239D01*
X125421375Y-110290625D01*
X125421375Y-110290625D01*
G37*
X125421375Y-110290625D02*
X125719761Y-110490000D01*
X125421375Y-110689375D01*
X125222000Y-110987761D01*
X125022625Y-110689375D01*
X124724239Y-110490000D01*
X125022625Y-110290625D01*
X125222000Y-109992239D01*
X125421375Y-110290625D01*
G36*
X125421375Y-107750625D02*
X125719761Y-107950000D01*
X125421375Y-108149375D01*
X125222000Y-108447761D01*
X125022625Y-108149375D01*
X124724239Y-107950000D01*
X125022625Y-107750625D01*
X125222000Y-107452239D01*
X125421375Y-107750625D01*
X125421375Y-107750625D01*
G37*
X125421375Y-107750625D02*
X125719761Y-107950000D01*
X125421375Y-108149375D01*
X125222000Y-108447761D01*
X125022625Y-108149375D01*
X124724239Y-107950000D01*
X125022625Y-107750625D01*
X125222000Y-107452239D01*
X125421375Y-107750625D01*
G36*
X125421375Y-105210625D02*
X125719761Y-105410000D01*
X125421375Y-105609375D01*
X125222000Y-105907761D01*
X125022625Y-105609375D01*
X124724239Y-105410000D01*
X125022625Y-105210625D01*
X125222000Y-104912239D01*
X125421375Y-105210625D01*
X125421375Y-105210625D01*
G37*
X125421375Y-105210625D02*
X125719761Y-105410000D01*
X125421375Y-105609375D01*
X125222000Y-105907761D01*
X125022625Y-105609375D01*
X124724239Y-105410000D01*
X125022625Y-105210625D01*
X125222000Y-104912239D01*
X125421375Y-105210625D01*
G36*
X125421375Y-102670625D02*
X125719761Y-102870000D01*
X125421375Y-103069375D01*
X125222000Y-103367761D01*
X125022625Y-103069375D01*
X124724239Y-102870000D01*
X125022625Y-102670625D01*
X125222000Y-102372239D01*
X125421375Y-102670625D01*
X125421375Y-102670625D01*
G37*
X125421375Y-102670625D02*
X125719761Y-102870000D01*
X125421375Y-103069375D01*
X125222000Y-103367761D01*
X125022625Y-103069375D01*
X124724239Y-102870000D01*
X125022625Y-102670625D01*
X125222000Y-102372239D01*
X125421375Y-102670625D01*
G36*
X125421375Y-100130625D02*
X125719761Y-100330000D01*
X125421375Y-100529375D01*
X125222000Y-100827761D01*
X125022625Y-100529375D01*
X124724239Y-100330000D01*
X125022625Y-100130625D01*
X125222000Y-99832239D01*
X125421375Y-100130625D01*
X125421375Y-100130625D01*
G37*
X125421375Y-100130625D02*
X125719761Y-100330000D01*
X125421375Y-100529375D01*
X125222000Y-100827761D01*
X125022625Y-100529375D01*
X124724239Y-100330000D01*
X125022625Y-100130625D01*
X125222000Y-99832239D01*
X125421375Y-100130625D01*
G36*
X125421375Y-97590625D02*
X125719761Y-97790000D01*
X125421375Y-97989375D01*
X125222000Y-98287761D01*
X125022625Y-97989375D01*
X124724239Y-97790000D01*
X125022625Y-97590625D01*
X125222000Y-97292239D01*
X125421375Y-97590625D01*
X125421375Y-97590625D01*
G37*
X125421375Y-97590625D02*
X125719761Y-97790000D01*
X125421375Y-97989375D01*
X125222000Y-98287761D01*
X125022625Y-97989375D01*
X124724239Y-97790000D01*
X125022625Y-97590625D01*
X125222000Y-97292239D01*
X125421375Y-97590625D01*
G36*
X125421375Y-95050625D02*
X125719761Y-95250000D01*
X125421375Y-95449375D01*
X125222000Y-95747761D01*
X125022625Y-95449375D01*
X124724239Y-95250000D01*
X125022625Y-95050625D01*
X125222000Y-94752239D01*
X125421375Y-95050625D01*
X125421375Y-95050625D01*
G37*
X125421375Y-95050625D02*
X125719761Y-95250000D01*
X125421375Y-95449375D01*
X125222000Y-95747761D01*
X125022625Y-95449375D01*
X124724239Y-95250000D01*
X125022625Y-95050625D01*
X125222000Y-94752239D01*
X125421375Y-95050625D01*
G36*
X125421375Y-92510625D02*
X125719761Y-92710000D01*
X125421375Y-92909375D01*
X125222000Y-93207761D01*
X125022625Y-92909375D01*
X124724239Y-92710000D01*
X125022625Y-92510625D01*
X125222000Y-92212239D01*
X125421375Y-92510625D01*
X125421375Y-92510625D01*
G37*
X125421375Y-92510625D02*
X125719761Y-92710000D01*
X125421375Y-92909375D01*
X125222000Y-93207761D01*
X125022625Y-92909375D01*
X124724239Y-92710000D01*
X125022625Y-92510625D01*
X125222000Y-92212239D01*
X125421375Y-92510625D01*
G36*
X125421375Y-89970625D02*
X125719761Y-90170000D01*
X125421375Y-90369375D01*
X125222000Y-90667761D01*
X125022625Y-90369375D01*
X124724239Y-90170000D01*
X125022625Y-89970625D01*
X125222000Y-89672239D01*
X125421375Y-89970625D01*
X125421375Y-89970625D01*
G37*
X125421375Y-89970625D02*
X125719761Y-90170000D01*
X125421375Y-90369375D01*
X125222000Y-90667761D01*
X125022625Y-90369375D01*
X124724239Y-90170000D01*
X125022625Y-89970625D01*
X125222000Y-89672239D01*
X125421375Y-89970625D01*
G36*
X125421375Y-87430625D02*
X125719761Y-87630000D01*
X125421375Y-87829375D01*
X125222000Y-88127761D01*
X125022625Y-87829375D01*
X124724239Y-87630000D01*
X125022625Y-87430625D01*
X125222000Y-87132239D01*
X125421375Y-87430625D01*
X125421375Y-87430625D01*
G37*
X125421375Y-87430625D02*
X125719761Y-87630000D01*
X125421375Y-87829375D01*
X125222000Y-88127761D01*
X125022625Y-87829375D01*
X124724239Y-87630000D01*
X125022625Y-87430625D01*
X125222000Y-87132239D01*
X125421375Y-87430625D01*
G36*
X125421375Y-84890625D02*
X125719761Y-85090000D01*
X125421375Y-85289375D01*
X125222000Y-85587761D01*
X125022625Y-85289375D01*
X124724239Y-85090000D01*
X125022625Y-84890625D01*
X125222000Y-84592239D01*
X125421375Y-84890625D01*
X125421375Y-84890625D01*
G37*
X125421375Y-84890625D02*
X125719761Y-85090000D01*
X125421375Y-85289375D01*
X125222000Y-85587761D01*
X125022625Y-85289375D01*
X124724239Y-85090000D01*
X125022625Y-84890625D01*
X125222000Y-84592239D01*
X125421375Y-84890625D01*
G36*
X125421375Y-82350625D02*
X125719761Y-82550000D01*
X125421375Y-82749375D01*
X125222000Y-83047761D01*
X125022625Y-82749375D01*
X124724239Y-82550000D01*
X125022625Y-82350625D01*
X125222000Y-82052239D01*
X125421375Y-82350625D01*
X125421375Y-82350625D01*
G37*
X125421375Y-82350625D02*
X125719761Y-82550000D01*
X125421375Y-82749375D01*
X125222000Y-83047761D01*
X125022625Y-82749375D01*
X124724239Y-82550000D01*
X125022625Y-82350625D01*
X125222000Y-82052239D01*
X125421375Y-82350625D01*
G36*
X125421375Y-79810625D02*
X125719761Y-80010000D01*
X125421375Y-80209375D01*
X125222000Y-80507761D01*
X125022625Y-80209375D01*
X124724239Y-80010000D01*
X125022625Y-79810625D01*
X125222000Y-79512239D01*
X125421375Y-79810625D01*
X125421375Y-79810625D01*
G37*
X125421375Y-79810625D02*
X125719761Y-80010000D01*
X125421375Y-80209375D01*
X125222000Y-80507761D01*
X125022625Y-80209375D01*
X124724239Y-80010000D01*
X125022625Y-79810625D01*
X125222000Y-79512239D01*
X125421375Y-79810625D01*
G36*
X125421375Y-77270625D02*
X125719761Y-77470000D01*
X125421375Y-77669375D01*
X125222000Y-77967761D01*
X125022625Y-77669375D01*
X125004381Y-77657184D01*
X125049765Y-77648157D01*
X125259809Y-77507809D01*
X125400157Y-77297765D01*
X125409184Y-77252381D01*
X125421375Y-77270625D01*
X125421375Y-77270625D01*
G37*
X125421375Y-77270625D02*
X125719761Y-77470000D01*
X125421375Y-77669375D01*
X125222000Y-77967761D01*
X125022625Y-77669375D01*
X125004381Y-77657184D01*
X125049765Y-77648157D01*
X125259809Y-77507809D01*
X125400157Y-77297765D01*
X125409184Y-77252381D01*
X125421375Y-77270625D01*
G36*
X73793792Y-67442950D02*
X73767691Y-67458019D01*
X73767690Y-67458020D01*
X73433237Y-67675217D01*
X73433228Y-67675222D01*
X73407037Y-67694251D01*
X73370988Y-67720442D01*
X73370977Y-67720452D01*
X73061071Y-67971409D01*
X73061061Y-67971416D01*
X73003889Y-68022894D01*
X72721904Y-68304880D01*
X72721894Y-68304889D01*
X72696187Y-68333440D01*
X72670416Y-68362061D01*
X72670409Y-68362071D01*
X72419452Y-68671977D01*
X72419442Y-68671988D01*
X72404935Y-68691956D01*
X72374222Y-68734228D01*
X72374217Y-68734237D01*
X72157028Y-69068678D01*
X72157019Y-69068691D01*
X72139877Y-69098383D01*
X72136000Y-69105098D01*
X72136000Y-67437424D01*
X73793792Y-67442950D01*
X73793792Y-67442950D01*
G37*
X73793792Y-67442950D02*
X73767691Y-67458019D01*
X73767690Y-67458020D01*
X73433237Y-67675217D01*
X73433228Y-67675222D01*
X73407037Y-67694251D01*
X73370988Y-67720442D01*
X73370977Y-67720452D01*
X73061071Y-67971409D01*
X73061061Y-67971416D01*
X73003889Y-68022894D01*
X72721904Y-68304880D01*
X72721894Y-68304889D01*
X72696187Y-68333440D01*
X72670416Y-68362061D01*
X72670409Y-68362071D01*
X72419452Y-68671977D01*
X72419442Y-68671988D01*
X72404935Y-68691956D01*
X72374222Y-68734228D01*
X72374217Y-68734237D01*
X72157028Y-69068678D01*
X72157019Y-69068691D01*
X72139877Y-69098383D01*
X72136000Y-69105098D01*
X72136000Y-67437424D01*
X73793792Y-67442950D01*
G36*
X129032000Y-67627077D02*
X129032000Y-69105097D01*
X129010981Y-69068691D01*
X129010978Y-69068686D01*
X128793783Y-68734237D01*
X128793778Y-68734228D01*
X128763065Y-68691956D01*
X128748558Y-68671988D01*
X128748548Y-68671977D01*
X128497591Y-68362071D01*
X128497584Y-68362061D01*
X128446106Y-68304889D01*
X128164120Y-68022904D01*
X128164111Y-68022894D01*
X128117516Y-67980940D01*
X128106939Y-67971416D01*
X128106929Y-67971409D01*
X127797023Y-67720452D01*
X127797012Y-67720442D01*
X127760963Y-67694251D01*
X127734772Y-67675222D01*
X127734763Y-67675217D01*
X127653559Y-67622482D01*
X129032000Y-67627077D01*
X129032000Y-67627077D01*
G37*
X129032000Y-67627077D02*
X129032000Y-69105097D01*
X129010981Y-69068691D01*
X129010978Y-69068686D01*
X128793783Y-68734237D01*
X128793778Y-68734228D01*
X128763065Y-68691956D01*
X128748558Y-68671988D01*
X128748548Y-68671977D01*
X128497591Y-68362071D01*
X128497584Y-68362061D01*
X128446106Y-68304889D01*
X128164120Y-68022904D01*
X128164111Y-68022894D01*
X128117516Y-67980940D01*
X128106939Y-67971416D01*
X128106929Y-67971409D01*
X127797023Y-67720452D01*
X127797012Y-67720442D01*
X127760963Y-67694251D01*
X127734772Y-67675222D01*
X127734763Y-67675217D01*
X127653559Y-67622482D01*
X129032000Y-67627077D01*
M02*
