G04 #@! TF.GenerationSoftware,KiCad,Pcbnew,5.0.0-rc1-44a33f2~62~ubuntu17.10.1*
G04 #@! TF.CreationDate,2018-05-10T22:28:45+09:00*
G04 #@! TF.ProjectId,RaspiCherryMXKeysHat,52617370694368657272794D584B6579,rev?*
G04 #@! TF.SameCoordinates,Original*
G04 #@! TF.FileFunction,Copper,L1,Top,Signal*
G04 #@! TF.FilePolarity,Positive*
%FSLAX46Y46*%
G04 Gerber Fmt 4.6, Leading zero omitted, Abs format (unit mm)*
G04 Created by KiCad (PCBNEW 5.0.0-rc1-44a33f2~62~ubuntu17.10.1) date Thu May 10 22:28:45 2018*
%MOMM*%
%LPD*%
G01*
G04 APERTURE LIST*
%ADD10R,1.700000X1.700000*%
%ADD11O,1.700000X1.700000*%
%ADD12R,1.000000X0.995000*%
%ADD13C,2.200000*%
%ADD14C,0.250000*%
%ADD15C,0.254000*%
G04 APERTURE END LIST*
D10*
X123952000Y-76200000D03*
D11*
X126492000Y-76200000D03*
X123952000Y-78740000D03*
X126492000Y-78740000D03*
X123952000Y-81280000D03*
X126492000Y-81280000D03*
X123952000Y-83820000D03*
X126492000Y-83820000D03*
X123952000Y-86360000D03*
X126492000Y-86360000D03*
X123952000Y-88900000D03*
X126492000Y-88900000D03*
X123952000Y-91440000D03*
X126492000Y-91440000D03*
X123952000Y-93980000D03*
X126492000Y-93980000D03*
X123952000Y-96520000D03*
X126492000Y-96520000D03*
X123952000Y-99060000D03*
X126492000Y-99060000D03*
X123952000Y-101600000D03*
X126492000Y-101600000D03*
X123952000Y-104140000D03*
X126492000Y-104140000D03*
X123952000Y-106680000D03*
X126492000Y-106680000D03*
X123952000Y-109220000D03*
X126492000Y-109220000D03*
X123952000Y-111760000D03*
X126492000Y-111760000D03*
X123952000Y-114300000D03*
X126492000Y-114300000D03*
X123952000Y-116840000D03*
X126492000Y-116840000D03*
X123952000Y-119380000D03*
X126492000Y-119380000D03*
X123952000Y-121920000D03*
X126492000Y-121920000D03*
X123952000Y-124460000D03*
X126492000Y-124460000D03*
D12*
X120040000Y-85977500D03*
X120040000Y-84202500D03*
X120040000Y-88496600D03*
X120040000Y-90271600D03*
X120040000Y-92686100D03*
X120040000Y-94461100D03*
X120040000Y-98626700D03*
X120040000Y-96851700D03*
X120040000Y-101145500D03*
X120040000Y-102920500D03*
X120091000Y-107110500D03*
X120091000Y-105335500D03*
D13*
X114457000Y-83714000D03*
X111917000Y-77364000D03*
X92316800Y-77364000D03*
X94856800Y-83714000D03*
X114457000Y-103314000D03*
X111917000Y-96964000D03*
X92316800Y-96964000D03*
X94856800Y-103314000D03*
X114457000Y-122914000D03*
X111917000Y-116564000D03*
X92316800Y-116564000D03*
X94856800Y-122914000D03*
D14*
X120677000Y-86800300D02*
X122776700Y-88900000D01*
X120040000Y-86800300D02*
X120677000Y-86800300D01*
X120040000Y-85977500D02*
X120040000Y-86800300D01*
X123952000Y-88900000D02*
X122776700Y-88900000D01*
X122295600Y-94461100D02*
X122776700Y-93980000D01*
X120040000Y-94461100D02*
X122295600Y-94461100D01*
X123952000Y-93980000D02*
X122776700Y-93980000D01*
X125316700Y-101967400D02*
X125316700Y-101600000D01*
X124508800Y-102775300D02*
X125316700Y-101967400D01*
X123583300Y-102775300D02*
X124508800Y-102775300D01*
X122193900Y-104164700D02*
X123583300Y-102775300D01*
X122193900Y-104699000D02*
X122193900Y-104164700D01*
X120605200Y-106287700D02*
X122193900Y-104699000D01*
X120091000Y-106287700D02*
X120605200Y-106287700D01*
X120091000Y-107110500D02*
X120091000Y-106287700D01*
X126492000Y-101600000D02*
X125316700Y-101600000D01*
X125316700Y-96887400D02*
X125316700Y-96520000D01*
X124508800Y-97695300D02*
X125316700Y-96887400D01*
X122818700Y-97695300D02*
X124508800Y-97695300D01*
X120191400Y-100322600D02*
X122818700Y-97695300D01*
X119392800Y-100322600D02*
X120191400Y-100322600D01*
X119214600Y-100500800D02*
X119392800Y-100322600D01*
X119214600Y-101786500D02*
X119214600Y-100500800D01*
X119525800Y-102097700D02*
X119214600Y-101786500D01*
X120040000Y-102097700D02*
X119525800Y-102097700D01*
X126492000Y-96520000D02*
X125316700Y-96520000D01*
X120040000Y-102920500D02*
X120040000Y-102097700D01*
X125316700Y-94347400D02*
X125316700Y-93980000D01*
X124508800Y-95155300D02*
X125316700Y-94347400D01*
X123511400Y-95155300D02*
X124508800Y-95155300D01*
X120040000Y-98626700D02*
X123511400Y-95155300D01*
X126492000Y-93980000D02*
X125316700Y-93980000D01*
X125316700Y-89267400D02*
X125316700Y-88900000D01*
X124508800Y-90075300D02*
X125316700Y-89267400D01*
X121061600Y-90075300D02*
X124508800Y-90075300D01*
X120865300Y-90271600D02*
X121061600Y-90075300D01*
X120040000Y-90271600D02*
X120865300Y-90271600D01*
X126492000Y-88900000D02*
X125316700Y-88900000D01*
X118726200Y-83714000D02*
X119214700Y-84202500D01*
X114457000Y-83714000D02*
X118726200Y-83714000D01*
X120040000Y-84202500D02*
X119214700Y-84202500D01*
X99639400Y-88496600D02*
X120040000Y-88496600D01*
X94856800Y-83714000D02*
X99639400Y-88496600D01*
X119525800Y-93508900D02*
X120040000Y-93508900D01*
X114457000Y-98577700D02*
X119525800Y-93508900D01*
X114457000Y-103314000D02*
X114457000Y-98577700D01*
X120040000Y-92686100D02*
X120040000Y-93508900D01*
X119525800Y-97674500D02*
X120040000Y-97674500D01*
X117685300Y-99515000D02*
X119525800Y-97674500D01*
X117685300Y-102124300D02*
X117685300Y-99515000D01*
X115039700Y-104769900D02*
X117685300Y-102124300D01*
X109955200Y-104769900D02*
X115039700Y-104769900D01*
X108499300Y-103314000D02*
X109955200Y-104769900D01*
X94856800Y-103314000D02*
X108499300Y-103314000D01*
X120040000Y-96851700D02*
X120040000Y-97674500D01*
X121625400Y-100385400D02*
X120865300Y-101145500D01*
X126970500Y-100385400D02*
X121625400Y-100385400D01*
X127740000Y-101154900D02*
X126970500Y-100385400D01*
X127740000Y-107174700D02*
X127740000Y-101154900D01*
X126964700Y-107950000D02*
X127740000Y-107174700D01*
X126061000Y-107950000D02*
X126964700Y-107950000D01*
X125316600Y-108694400D02*
X126061000Y-107950000D01*
X125316600Y-109556400D02*
X125316600Y-108694400D01*
X124477600Y-110395400D02*
X125316600Y-109556400D01*
X123654200Y-110395400D02*
X124477600Y-110395400D01*
X114457000Y-119592600D02*
X123654200Y-110395400D01*
X114457000Y-122914000D02*
X114457000Y-119592600D01*
X120040000Y-101145500D02*
X120865300Y-101145500D01*
X112435300Y-105335500D02*
X120091000Y-105335500D01*
X94856800Y-122914000D02*
X112435300Y-105335500D01*
D15*
G36*
X123352020Y-68721445D02*
X122486445Y-69587020D01*
X122018000Y-70717947D01*
X122018000Y-71942053D01*
X122486445Y-73072980D01*
X123352020Y-73938555D01*
X124482947Y-74407000D01*
X125707053Y-74407000D01*
X126837980Y-73938555D01*
X127703555Y-73072980D01*
X128170000Y-71946881D01*
X128170001Y-100510098D01*
X127631656Y-99971755D01*
X127763645Y-99826924D01*
X127933476Y-99416890D01*
X127812155Y-99187000D01*
X126619000Y-99187000D01*
X126619000Y-99207000D01*
X126365000Y-99207000D01*
X126365000Y-99187000D01*
X126345000Y-99187000D01*
X126345000Y-98933000D01*
X126365000Y-98933000D01*
X126365000Y-98913000D01*
X126619000Y-98913000D01*
X126619000Y-98933000D01*
X127812155Y-98933000D01*
X127933476Y-98703110D01*
X127763645Y-98293076D01*
X127373358Y-97864817D01*
X127243522Y-97803843D01*
X127562625Y-97590625D01*
X127890839Y-97099418D01*
X128006092Y-96520000D01*
X127890839Y-95940582D01*
X127562625Y-95449375D01*
X127264239Y-95250000D01*
X127562625Y-95050625D01*
X127890839Y-94559418D01*
X128006092Y-93980000D01*
X127890839Y-93400582D01*
X127562625Y-92909375D01*
X127243522Y-92696157D01*
X127373358Y-92635183D01*
X127763645Y-92206924D01*
X127933476Y-91796890D01*
X127812155Y-91567000D01*
X126619000Y-91567000D01*
X126619000Y-91587000D01*
X126365000Y-91587000D01*
X126365000Y-91567000D01*
X126345000Y-91567000D01*
X126345000Y-91313000D01*
X126365000Y-91313000D01*
X126365000Y-91293000D01*
X126619000Y-91293000D01*
X126619000Y-91313000D01*
X127812155Y-91313000D01*
X127933476Y-91083110D01*
X127763645Y-90673076D01*
X127373358Y-90244817D01*
X127243522Y-90183843D01*
X127562625Y-89970625D01*
X127890839Y-89479418D01*
X128006092Y-88900000D01*
X127890839Y-88320582D01*
X127562625Y-87829375D01*
X127264239Y-87630000D01*
X127562625Y-87430625D01*
X127890839Y-86939418D01*
X128006092Y-86360000D01*
X127890839Y-85780582D01*
X127562625Y-85289375D01*
X127264239Y-85090000D01*
X127562625Y-84890625D01*
X127890839Y-84399418D01*
X128006092Y-83820000D01*
X127890839Y-83240582D01*
X127562625Y-82749375D01*
X127243522Y-82536157D01*
X127373358Y-82475183D01*
X127763645Y-82046924D01*
X127933476Y-81636890D01*
X127812155Y-81407000D01*
X126619000Y-81407000D01*
X126619000Y-81427000D01*
X126365000Y-81427000D01*
X126365000Y-81407000D01*
X126345000Y-81407000D01*
X126345000Y-81153000D01*
X126365000Y-81153000D01*
X126365000Y-81133000D01*
X126619000Y-81133000D01*
X126619000Y-81153000D01*
X127812155Y-81153000D01*
X127933476Y-80923110D01*
X127763645Y-80513076D01*
X127373358Y-80084817D01*
X127243522Y-80023843D01*
X127562625Y-79810625D01*
X127890839Y-79319418D01*
X128006092Y-78740000D01*
X127890839Y-78160582D01*
X127562625Y-77669375D01*
X127264239Y-77470000D01*
X127562625Y-77270625D01*
X127890839Y-76779418D01*
X128006092Y-76200000D01*
X127890839Y-75620582D01*
X127562625Y-75129375D01*
X127071418Y-74801161D01*
X126638256Y-74715000D01*
X126345744Y-74715000D01*
X125912582Y-74801161D01*
X125421375Y-75129375D01*
X125409184Y-75147619D01*
X125400157Y-75102235D01*
X125259809Y-74892191D01*
X125049765Y-74751843D01*
X124802000Y-74702560D01*
X123102000Y-74702560D01*
X122854235Y-74751843D01*
X122644191Y-74892191D01*
X122503843Y-75102235D01*
X122454560Y-75350000D01*
X122454560Y-77050000D01*
X122503843Y-77297765D01*
X122644191Y-77507809D01*
X122854235Y-77648157D01*
X122899619Y-77657184D01*
X122881375Y-77669375D01*
X122553161Y-78160582D01*
X122437908Y-78740000D01*
X122553161Y-79319418D01*
X122881375Y-79810625D01*
X123179761Y-80010000D01*
X122881375Y-80209375D01*
X122553161Y-80700582D01*
X122437908Y-81280000D01*
X122553161Y-81859418D01*
X122881375Y-82350625D01*
X123179761Y-82550000D01*
X122881375Y-82749375D01*
X122553161Y-83240582D01*
X122437908Y-83820000D01*
X122553161Y-84399418D01*
X122881375Y-84890625D01*
X123200478Y-85103843D01*
X123070642Y-85164817D01*
X122680355Y-85593076D01*
X122510524Y-86003110D01*
X122631845Y-86233000D01*
X123825000Y-86233000D01*
X123825000Y-86213000D01*
X124079000Y-86213000D01*
X124079000Y-86233000D01*
X124099000Y-86233000D01*
X124099000Y-86487000D01*
X124079000Y-86487000D01*
X124079000Y-86507000D01*
X123825000Y-86507000D01*
X123825000Y-86487000D01*
X122631845Y-86487000D01*
X122510524Y-86716890D01*
X122680355Y-87126924D01*
X123070642Y-87555183D01*
X123200478Y-87616157D01*
X122881375Y-87829375D01*
X122841121Y-87889619D01*
X121267331Y-86315830D01*
X121224929Y-86252371D01*
X121187440Y-86227322D01*
X121187440Y-85480000D01*
X121138157Y-85232235D01*
X121043118Y-85090000D01*
X121138157Y-84947765D01*
X121187440Y-84700000D01*
X121187440Y-83705000D01*
X121138157Y-83457235D01*
X120997809Y-83247191D01*
X120787765Y-83106843D01*
X120540000Y-83057560D01*
X119540000Y-83057560D01*
X119292235Y-83106843D01*
X119238862Y-83142506D01*
X119022737Y-82998096D01*
X118801052Y-82954000D01*
X118801047Y-82954000D01*
X118726200Y-82939112D01*
X118651353Y-82954000D01*
X116020148Y-82954000D01*
X115927862Y-82731201D01*
X115439799Y-82243138D01*
X114802113Y-81979000D01*
X114111887Y-81979000D01*
X113474201Y-82243138D01*
X112986138Y-82731201D01*
X112722000Y-83368887D01*
X112722000Y-84059113D01*
X112986138Y-84696799D01*
X113474201Y-85184862D01*
X114111887Y-85449000D01*
X114802113Y-85449000D01*
X115439799Y-85184862D01*
X115927862Y-84696799D01*
X116020148Y-84474000D01*
X118411398Y-84474000D01*
X118624372Y-84686975D01*
X118666771Y-84750429D01*
X118730224Y-84792827D01*
X118730226Y-84792829D01*
X118853204Y-84875000D01*
X118918163Y-84918404D01*
X118936738Y-84922099D01*
X118941843Y-84947765D01*
X119036882Y-85090000D01*
X118941843Y-85232235D01*
X118892560Y-85480000D01*
X118892560Y-86475000D01*
X118941843Y-86722765D01*
X119082191Y-86932809D01*
X119292235Y-87073157D01*
X119320504Y-87078780D01*
X119324096Y-87096837D01*
X119492071Y-87348229D01*
X119507023Y-87358219D01*
X119292235Y-87400943D01*
X119082191Y-87541291D01*
X118951689Y-87736600D01*
X109678179Y-87736600D01*
X110218185Y-87512922D01*
X110635922Y-87095185D01*
X110862000Y-86549385D01*
X110862000Y-85958615D01*
X110635922Y-85412815D01*
X110218185Y-84995078D01*
X109672385Y-84769000D01*
X109081615Y-84769000D01*
X108535815Y-84995078D01*
X108118078Y-85412815D01*
X107892000Y-85958615D01*
X107892000Y-86549385D01*
X108118078Y-87095185D01*
X108535815Y-87512922D01*
X109075821Y-87736600D01*
X99954202Y-87736600D01*
X96499514Y-84281912D01*
X96591800Y-84059113D01*
X96591800Y-83368887D01*
X96327662Y-82731201D01*
X95839599Y-82243138D01*
X95201913Y-81979000D01*
X94511687Y-81979000D01*
X93874001Y-82243138D01*
X93385938Y-82731201D01*
X93121800Y-83368887D01*
X93121800Y-84059113D01*
X93385938Y-84696799D01*
X93874001Y-85184862D01*
X94511687Y-85449000D01*
X95201913Y-85449000D01*
X95424712Y-85356714D01*
X99049071Y-88981073D01*
X99091471Y-89044529D01*
X99154927Y-89086929D01*
X99342862Y-89212504D01*
X99391005Y-89222080D01*
X99564548Y-89256600D01*
X99564552Y-89256600D01*
X99639400Y-89271488D01*
X99714248Y-89256600D01*
X118951689Y-89256600D01*
X119036882Y-89384100D01*
X118941843Y-89526335D01*
X118892560Y-89774100D01*
X118892560Y-90769100D01*
X118941843Y-91016865D01*
X119082191Y-91226909D01*
X119292235Y-91367257D01*
X119540000Y-91416540D01*
X120540000Y-91416540D01*
X120787765Y-91367257D01*
X120997809Y-91226909D01*
X121138157Y-91016865D01*
X121143262Y-90991199D01*
X121161837Y-90987504D01*
X121389626Y-90835300D01*
X122570054Y-90835300D01*
X122553161Y-90860582D01*
X122437908Y-91440000D01*
X122553161Y-92019418D01*
X122881375Y-92510625D01*
X123179761Y-92710000D01*
X122881375Y-92909375D01*
X122669526Y-93226429D01*
X122480163Y-93264096D01*
X122228771Y-93432071D01*
X122186369Y-93495530D01*
X121980799Y-93701100D01*
X121128311Y-93701100D01*
X121043118Y-93573600D01*
X121138157Y-93431365D01*
X121187440Y-93183600D01*
X121187440Y-92188600D01*
X121138157Y-91940835D01*
X120997809Y-91730791D01*
X120787765Y-91590443D01*
X120540000Y-91541160D01*
X119540000Y-91541160D01*
X119292235Y-91590443D01*
X119082191Y-91730791D01*
X118941843Y-91940835D01*
X118892560Y-92188600D01*
X118892560Y-93067338D01*
X113972528Y-97987371D01*
X113909072Y-98029771D01*
X113866672Y-98093227D01*
X113866671Y-98093228D01*
X113780342Y-98222429D01*
X113741097Y-98281163D01*
X113703498Y-98470188D01*
X113682112Y-98577700D01*
X113697001Y-98652552D01*
X113697000Y-101750852D01*
X113474201Y-101843138D01*
X112986138Y-102331201D01*
X112722000Y-102968887D01*
X112722000Y-103659113D01*
X112867301Y-104009900D01*
X110270002Y-104009900D01*
X109669101Y-103409000D01*
X109901134Y-103409000D01*
X110869608Y-103007845D01*
X111610845Y-102266608D01*
X112012000Y-101298134D01*
X112012000Y-100249866D01*
X111610845Y-99281392D01*
X110869608Y-98540155D01*
X110021527Y-98188868D01*
X110871737Y-98188868D01*
X110982641Y-98466099D01*
X111628593Y-98709323D01*
X112318453Y-98686836D01*
X112851359Y-98466099D01*
X112962263Y-98188868D01*
X111917000Y-97143605D01*
X110871737Y-98188868D01*
X110021527Y-98188868D01*
X109901134Y-98139000D01*
X108852866Y-98139000D01*
X107884392Y-98540155D01*
X107143155Y-99281392D01*
X106742000Y-100249866D01*
X106742000Y-101298134D01*
X107143155Y-102266608D01*
X107430547Y-102554000D01*
X96419948Y-102554000D01*
X96327662Y-102331201D01*
X95839599Y-101843138D01*
X95201913Y-101579000D01*
X94511687Y-101579000D01*
X93874001Y-101843138D01*
X93385938Y-102331201D01*
X93121800Y-102968887D01*
X93121800Y-103659113D01*
X93385938Y-104296799D01*
X93874001Y-104784862D01*
X94511687Y-105049000D01*
X95201913Y-105049000D01*
X95839599Y-104784862D01*
X96327662Y-104296799D01*
X96419948Y-104074000D01*
X108184499Y-104074000D01*
X108655854Y-104545356D01*
X108535815Y-104595078D01*
X108118078Y-105012815D01*
X107892000Y-105558615D01*
X107892000Y-106149385D01*
X108118078Y-106695185D01*
X108535815Y-107112922D01*
X109081615Y-107339000D01*
X109356998Y-107339000D01*
X95424712Y-121271286D01*
X95201913Y-121179000D01*
X94511687Y-121179000D01*
X93874001Y-121443138D01*
X93385938Y-121931201D01*
X93121800Y-122568887D01*
X93121800Y-123259113D01*
X93385938Y-123896799D01*
X93874001Y-124384862D01*
X94511687Y-124649000D01*
X95201913Y-124649000D01*
X95839599Y-124384862D01*
X96327662Y-123896799D01*
X96591800Y-123259113D01*
X96591800Y-122568887D01*
X96499514Y-122346088D01*
X98995736Y-119849866D01*
X106742000Y-119849866D01*
X106742000Y-120898134D01*
X107143155Y-121866608D01*
X107884392Y-122607845D01*
X108852866Y-123009000D01*
X109901134Y-123009000D01*
X110869608Y-122607845D01*
X111610845Y-121866608D01*
X112012000Y-120898134D01*
X112012000Y-119849866D01*
X111610845Y-118881392D01*
X110869608Y-118140155D01*
X110021527Y-117788868D01*
X110871737Y-117788868D01*
X110982641Y-118066099D01*
X111628593Y-118309323D01*
X112318453Y-118286836D01*
X112851359Y-118066099D01*
X112962263Y-117788868D01*
X111917000Y-116743605D01*
X110871737Y-117788868D01*
X110021527Y-117788868D01*
X109901134Y-117739000D01*
X108852866Y-117739000D01*
X107884392Y-118140155D01*
X107143155Y-118881392D01*
X106742000Y-119849866D01*
X98995736Y-119849866D01*
X103846987Y-114998615D01*
X107892000Y-114998615D01*
X107892000Y-115589385D01*
X108118078Y-116135185D01*
X108535815Y-116552922D01*
X109081615Y-116779000D01*
X109672385Y-116779000D01*
X110181216Y-116568235D01*
X110194164Y-116965453D01*
X110414901Y-117498359D01*
X110692132Y-117609263D01*
X111737395Y-116564000D01*
X112096605Y-116564000D01*
X113141868Y-117609263D01*
X113419099Y-117498359D01*
X113662323Y-116852407D01*
X113639836Y-116162547D01*
X113419099Y-115629641D01*
X113141868Y-115518737D01*
X112096605Y-116564000D01*
X111737395Y-116564000D01*
X111723253Y-116549858D01*
X111902858Y-116370253D01*
X111917000Y-116384395D01*
X112962263Y-115339132D01*
X112851359Y-115061901D01*
X112205407Y-114818677D01*
X111515547Y-114841164D01*
X110982641Y-115061901D01*
X110871738Y-115339130D01*
X110862000Y-115329392D01*
X110862000Y-114998615D01*
X110635922Y-114452815D01*
X110218185Y-114035078D01*
X109672385Y-113809000D01*
X109081615Y-113809000D01*
X108535815Y-114035078D01*
X108118078Y-114452815D01*
X107892000Y-114998615D01*
X103846987Y-114998615D01*
X112750102Y-106095500D01*
X119002689Y-106095500D01*
X119087882Y-106223000D01*
X118992843Y-106365235D01*
X118943560Y-106613000D01*
X118943560Y-107608000D01*
X118992843Y-107855765D01*
X119133191Y-108065809D01*
X119343235Y-108206157D01*
X119591000Y-108255440D01*
X120591000Y-108255440D01*
X120838765Y-108206157D01*
X121048809Y-108065809D01*
X121189157Y-107855765D01*
X121238440Y-107608000D01*
X121238440Y-106729261D01*
X122678373Y-105289329D01*
X122741829Y-105246929D01*
X122823731Y-105124354D01*
X122881375Y-105210625D01*
X123200478Y-105423843D01*
X123070642Y-105484817D01*
X122680355Y-105913076D01*
X122510524Y-106323110D01*
X122631845Y-106553000D01*
X123825000Y-106553000D01*
X123825000Y-106533000D01*
X124079000Y-106533000D01*
X124079000Y-106553000D01*
X124099000Y-106553000D01*
X124099000Y-106807000D01*
X124079000Y-106807000D01*
X124079000Y-106827000D01*
X123825000Y-106827000D01*
X123825000Y-106807000D01*
X122631845Y-106807000D01*
X122510524Y-107036890D01*
X122680355Y-107446924D01*
X123070642Y-107875183D01*
X123200478Y-107936157D01*
X122881375Y-108149375D01*
X122553161Y-108640582D01*
X122437908Y-109220000D01*
X122553161Y-109799418D01*
X122802387Y-110172411D01*
X113972528Y-119002271D01*
X113909072Y-119044671D01*
X113866672Y-119108127D01*
X113866671Y-119108128D01*
X113741097Y-119296063D01*
X113682112Y-119592600D01*
X113697001Y-119667452D01*
X113697000Y-121350852D01*
X113474201Y-121443138D01*
X112986138Y-121931201D01*
X112722000Y-122568887D01*
X112722000Y-123259113D01*
X112986138Y-123896799D01*
X113474201Y-124384862D01*
X114111887Y-124649000D01*
X114802113Y-124649000D01*
X115439799Y-124384862D01*
X115927862Y-123896799D01*
X116192000Y-123259113D01*
X116192000Y-122568887D01*
X115927862Y-121931201D01*
X115439799Y-121443138D01*
X115217000Y-121350852D01*
X115217000Y-119907401D01*
X122646016Y-112478386D01*
X122881375Y-112830625D01*
X123179761Y-113030000D01*
X122881375Y-113229375D01*
X122553161Y-113720582D01*
X122437908Y-114300000D01*
X122553161Y-114879418D01*
X122881375Y-115370625D01*
X123179761Y-115570000D01*
X122881375Y-115769375D01*
X122553161Y-116260582D01*
X122437908Y-116840000D01*
X122553161Y-117419418D01*
X122881375Y-117910625D01*
X123179761Y-118110000D01*
X122881375Y-118309375D01*
X122553161Y-118800582D01*
X122437908Y-119380000D01*
X122553161Y-119959418D01*
X122881375Y-120450625D01*
X123179761Y-120650000D01*
X122881375Y-120849375D01*
X122553161Y-121340582D01*
X122437908Y-121920000D01*
X122553161Y-122499418D01*
X122881375Y-122990625D01*
X123200478Y-123203843D01*
X123070642Y-123264817D01*
X122680355Y-123693076D01*
X122510524Y-124103110D01*
X122631845Y-124333000D01*
X123825000Y-124333000D01*
X123825000Y-124313000D01*
X124079000Y-124313000D01*
X124079000Y-124333000D01*
X124099000Y-124333000D01*
X124099000Y-124587000D01*
X124079000Y-124587000D01*
X124079000Y-125780819D01*
X124308892Y-125901486D01*
X124833358Y-125655183D01*
X125220647Y-125230214D01*
X125421375Y-125530625D01*
X125912582Y-125858839D01*
X126345744Y-125945000D01*
X126638256Y-125945000D01*
X127071418Y-125858839D01*
X127562625Y-125530625D01*
X127890839Y-125039418D01*
X128006092Y-124460000D01*
X127890839Y-123880582D01*
X127562625Y-123389375D01*
X127264239Y-123190000D01*
X127562625Y-122990625D01*
X127890839Y-122499418D01*
X128006092Y-121920000D01*
X127890839Y-121340582D01*
X127562625Y-120849375D01*
X127264239Y-120650000D01*
X127562625Y-120450625D01*
X127890839Y-119959418D01*
X128006092Y-119380000D01*
X127890839Y-118800582D01*
X127562625Y-118309375D01*
X127243522Y-118096157D01*
X127373358Y-118035183D01*
X127763645Y-117606924D01*
X127933476Y-117196890D01*
X127812155Y-116967000D01*
X126619000Y-116967000D01*
X126619000Y-116987000D01*
X126365000Y-116987000D01*
X126365000Y-116967000D01*
X126345000Y-116967000D01*
X126345000Y-116713000D01*
X126365000Y-116713000D01*
X126365000Y-116693000D01*
X126619000Y-116693000D01*
X126619000Y-116713000D01*
X127812155Y-116713000D01*
X127933476Y-116483110D01*
X127763645Y-116073076D01*
X127373358Y-115644817D01*
X127243522Y-115583843D01*
X127562625Y-115370625D01*
X127890839Y-114879418D01*
X128006092Y-114300000D01*
X127890839Y-113720582D01*
X127562625Y-113229375D01*
X127243522Y-113016157D01*
X127373358Y-112955183D01*
X127763645Y-112526924D01*
X127933476Y-112116890D01*
X127812155Y-111887000D01*
X126619000Y-111887000D01*
X126619000Y-111907000D01*
X126365000Y-111907000D01*
X126365000Y-111887000D01*
X126345000Y-111887000D01*
X126345000Y-111633000D01*
X126365000Y-111633000D01*
X126365000Y-111613000D01*
X126619000Y-111613000D01*
X126619000Y-111633000D01*
X127812155Y-111633000D01*
X127933476Y-111403110D01*
X127763645Y-110993076D01*
X127373358Y-110564817D01*
X127243522Y-110503843D01*
X127562625Y-110290625D01*
X127890839Y-109799418D01*
X128006092Y-109220000D01*
X127890839Y-108640582D01*
X127673776Y-108315725D01*
X128170001Y-107819501D01*
X128170001Y-128713121D01*
X127703555Y-127587020D01*
X126837980Y-126721445D01*
X125707053Y-126253000D01*
X124482947Y-126253000D01*
X123352020Y-126721445D01*
X122486445Y-127587020D01*
X122018000Y-128717947D01*
X122018000Y-129942053D01*
X122486445Y-131072980D01*
X123352020Y-131938555D01*
X124432248Y-132386000D01*
X76757752Y-132386000D01*
X77837980Y-131938555D01*
X78703555Y-131072980D01*
X79172000Y-129942053D01*
X79172000Y-128717947D01*
X78703555Y-127587020D01*
X77837980Y-126721445D01*
X76707053Y-126253000D01*
X75482947Y-126253000D01*
X74352020Y-126721445D01*
X73486445Y-127587020D01*
X73018000Y-128717947D01*
X73018000Y-129620902D01*
X73015849Y-129607322D01*
X72996993Y-129247532D01*
X72988951Y-129171020D01*
X72973000Y-129095979D01*
X72973000Y-125158615D01*
X88291800Y-125158615D01*
X88291800Y-125749385D01*
X88517878Y-126295185D01*
X88935615Y-126712922D01*
X89481415Y-126939000D01*
X90072185Y-126939000D01*
X90617985Y-126712922D01*
X91035722Y-126295185D01*
X91261800Y-125749385D01*
X91261800Y-125158615D01*
X107892000Y-125158615D01*
X107892000Y-125749385D01*
X108118078Y-126295185D01*
X108535815Y-126712922D01*
X109081615Y-126939000D01*
X109672385Y-126939000D01*
X110218185Y-126712922D01*
X110635922Y-126295185D01*
X110862000Y-125749385D01*
X110862000Y-125158615D01*
X110720453Y-124816890D01*
X122510524Y-124816890D01*
X122680355Y-125226924D01*
X123070642Y-125655183D01*
X123595108Y-125901486D01*
X123825000Y-125780819D01*
X123825000Y-124587000D01*
X122631845Y-124587000D01*
X122510524Y-124816890D01*
X110720453Y-124816890D01*
X110635922Y-124612815D01*
X110218185Y-124195078D01*
X109672385Y-123969000D01*
X109081615Y-123969000D01*
X108535815Y-124195078D01*
X108118078Y-124612815D01*
X107892000Y-125158615D01*
X91261800Y-125158615D01*
X91035722Y-124612815D01*
X90617985Y-124195078D01*
X90072185Y-123969000D01*
X89481415Y-123969000D01*
X88935615Y-124195078D01*
X88517878Y-124612815D01*
X88291800Y-125158615D01*
X72973000Y-125158615D01*
X72973000Y-119849866D01*
X87141800Y-119849866D01*
X87141800Y-120898134D01*
X87542955Y-121866608D01*
X88284192Y-122607845D01*
X89252666Y-123009000D01*
X90300934Y-123009000D01*
X91269408Y-122607845D01*
X92010645Y-121866608D01*
X92411800Y-120898134D01*
X92411800Y-119849866D01*
X92010645Y-118881392D01*
X91269408Y-118140155D01*
X90421327Y-117788868D01*
X91271537Y-117788868D01*
X91382441Y-118066099D01*
X92028393Y-118309323D01*
X92718253Y-118286836D01*
X93251159Y-118066099D01*
X93362063Y-117788868D01*
X92316800Y-116743605D01*
X91271537Y-117788868D01*
X90421327Y-117788868D01*
X90300934Y-117739000D01*
X89252666Y-117739000D01*
X88284192Y-118140155D01*
X87542955Y-118881392D01*
X87141800Y-119849866D01*
X72973000Y-119849866D01*
X72973000Y-114998615D01*
X88291800Y-114998615D01*
X88291800Y-115589385D01*
X88517878Y-116135185D01*
X88935615Y-116552922D01*
X89481415Y-116779000D01*
X90072185Y-116779000D01*
X90581016Y-116568235D01*
X90593964Y-116965453D01*
X90814701Y-117498359D01*
X91091932Y-117609263D01*
X92137195Y-116564000D01*
X92496405Y-116564000D01*
X93541668Y-117609263D01*
X93818899Y-117498359D01*
X94062123Y-116852407D01*
X94039636Y-116162547D01*
X93818899Y-115629641D01*
X93541668Y-115518737D01*
X92496405Y-116564000D01*
X92137195Y-116564000D01*
X92123053Y-116549858D01*
X92302658Y-116370253D01*
X92316800Y-116384395D01*
X93362063Y-115339132D01*
X93251159Y-115061901D01*
X92605207Y-114818677D01*
X91915347Y-114841164D01*
X91382441Y-115061901D01*
X91271538Y-115339130D01*
X91261800Y-115329392D01*
X91261800Y-114998615D01*
X91035722Y-114452815D01*
X90617985Y-114035078D01*
X90072185Y-113809000D01*
X89481415Y-113809000D01*
X88935615Y-114035078D01*
X88517878Y-114452815D01*
X88291800Y-114998615D01*
X72973000Y-114998615D01*
X72973000Y-105558615D01*
X88291800Y-105558615D01*
X88291800Y-106149385D01*
X88517878Y-106695185D01*
X88935615Y-107112922D01*
X89481415Y-107339000D01*
X90072185Y-107339000D01*
X90617985Y-107112922D01*
X91035722Y-106695185D01*
X91261800Y-106149385D01*
X91261800Y-105558615D01*
X91035722Y-105012815D01*
X90617985Y-104595078D01*
X90072185Y-104369000D01*
X89481415Y-104369000D01*
X88935615Y-104595078D01*
X88517878Y-105012815D01*
X88291800Y-105558615D01*
X72973000Y-105558615D01*
X72973000Y-100249866D01*
X87141800Y-100249866D01*
X87141800Y-101298134D01*
X87542955Y-102266608D01*
X88284192Y-103007845D01*
X89252666Y-103409000D01*
X90300934Y-103409000D01*
X91269408Y-103007845D01*
X92010645Y-102266608D01*
X92411800Y-101298134D01*
X92411800Y-100249866D01*
X92010645Y-99281392D01*
X91269408Y-98540155D01*
X90421327Y-98188868D01*
X91271537Y-98188868D01*
X91382441Y-98466099D01*
X92028393Y-98709323D01*
X92718253Y-98686836D01*
X93251159Y-98466099D01*
X93362063Y-98188868D01*
X92316800Y-97143605D01*
X91271537Y-98188868D01*
X90421327Y-98188868D01*
X90300934Y-98139000D01*
X89252666Y-98139000D01*
X88284192Y-98540155D01*
X87542955Y-99281392D01*
X87141800Y-100249866D01*
X72973000Y-100249866D01*
X72973000Y-95398615D01*
X88291800Y-95398615D01*
X88291800Y-95989385D01*
X88517878Y-96535185D01*
X88935615Y-96952922D01*
X89481415Y-97179000D01*
X90072185Y-97179000D01*
X90581016Y-96968235D01*
X90593964Y-97365453D01*
X90814701Y-97898359D01*
X91091932Y-98009263D01*
X92137195Y-96964000D01*
X92496405Y-96964000D01*
X93541668Y-98009263D01*
X93818899Y-97898359D01*
X94062123Y-97252407D01*
X94039636Y-96562547D01*
X93818899Y-96029641D01*
X93541668Y-95918737D01*
X92496405Y-96964000D01*
X92137195Y-96964000D01*
X92123053Y-96949858D01*
X92302658Y-96770253D01*
X92316800Y-96784395D01*
X93362063Y-95739132D01*
X93251159Y-95461901D01*
X93083085Y-95398615D01*
X107892000Y-95398615D01*
X107892000Y-95989385D01*
X108118078Y-96535185D01*
X108535815Y-96952922D01*
X109081615Y-97179000D01*
X109672385Y-97179000D01*
X110181216Y-96968235D01*
X110194164Y-97365453D01*
X110414901Y-97898359D01*
X110692132Y-98009263D01*
X111737395Y-96964000D01*
X112096605Y-96964000D01*
X113141868Y-98009263D01*
X113419099Y-97898359D01*
X113662323Y-97252407D01*
X113639836Y-96562547D01*
X113419099Y-96029641D01*
X113141868Y-95918737D01*
X112096605Y-96964000D01*
X111737395Y-96964000D01*
X111723253Y-96949858D01*
X111902858Y-96770253D01*
X111917000Y-96784395D01*
X112962263Y-95739132D01*
X112851359Y-95461901D01*
X112205407Y-95218677D01*
X111515547Y-95241164D01*
X110982641Y-95461901D01*
X110871738Y-95739130D01*
X110862000Y-95729392D01*
X110862000Y-95398615D01*
X110635922Y-94852815D01*
X110218185Y-94435078D01*
X109672385Y-94209000D01*
X109081615Y-94209000D01*
X108535815Y-94435078D01*
X108118078Y-94852815D01*
X107892000Y-95398615D01*
X93083085Y-95398615D01*
X92605207Y-95218677D01*
X91915347Y-95241164D01*
X91382441Y-95461901D01*
X91271538Y-95739130D01*
X91261800Y-95729392D01*
X91261800Y-95398615D01*
X91035722Y-94852815D01*
X90617985Y-94435078D01*
X90072185Y-94209000D01*
X89481415Y-94209000D01*
X88935615Y-94435078D01*
X88517878Y-94852815D01*
X88291800Y-95398615D01*
X72973000Y-95398615D01*
X72973000Y-85958615D01*
X88291800Y-85958615D01*
X88291800Y-86549385D01*
X88517878Y-87095185D01*
X88935615Y-87512922D01*
X89481415Y-87739000D01*
X90072185Y-87739000D01*
X90617985Y-87512922D01*
X91035722Y-87095185D01*
X91261800Y-86549385D01*
X91261800Y-85958615D01*
X91035722Y-85412815D01*
X90617985Y-84995078D01*
X90072185Y-84769000D01*
X89481415Y-84769000D01*
X88935615Y-84995078D01*
X88517878Y-85412815D01*
X88291800Y-85958615D01*
X72973000Y-85958615D01*
X72973000Y-80649866D01*
X87141800Y-80649866D01*
X87141800Y-81698134D01*
X87542955Y-82666608D01*
X88284192Y-83407845D01*
X89252666Y-83809000D01*
X90300934Y-83809000D01*
X91269408Y-83407845D01*
X92010645Y-82666608D01*
X92411800Y-81698134D01*
X92411800Y-80649866D01*
X106742000Y-80649866D01*
X106742000Y-81698134D01*
X107143155Y-82666608D01*
X107884392Y-83407845D01*
X108852866Y-83809000D01*
X109901134Y-83809000D01*
X110869608Y-83407845D01*
X111610845Y-82666608D01*
X112012000Y-81698134D01*
X112012000Y-80649866D01*
X111610845Y-79681392D01*
X110869608Y-78940155D01*
X110021527Y-78588868D01*
X110871737Y-78588868D01*
X110982641Y-78866099D01*
X111628593Y-79109323D01*
X112318453Y-79086836D01*
X112851359Y-78866099D01*
X112962263Y-78588868D01*
X111917000Y-77543605D01*
X110871737Y-78588868D01*
X110021527Y-78588868D01*
X109901134Y-78539000D01*
X108852866Y-78539000D01*
X107884392Y-78940155D01*
X107143155Y-79681392D01*
X106742000Y-80649866D01*
X92411800Y-80649866D01*
X92010645Y-79681392D01*
X91269408Y-78940155D01*
X90421327Y-78588868D01*
X91271537Y-78588868D01*
X91382441Y-78866099D01*
X92028393Y-79109323D01*
X92718253Y-79086836D01*
X93251159Y-78866099D01*
X93362063Y-78588868D01*
X92316800Y-77543605D01*
X91271537Y-78588868D01*
X90421327Y-78588868D01*
X90300934Y-78539000D01*
X89252666Y-78539000D01*
X88284192Y-78940155D01*
X87542955Y-79681392D01*
X87141800Y-80649866D01*
X72973000Y-80649866D01*
X72973000Y-75798615D01*
X88291800Y-75798615D01*
X88291800Y-76389385D01*
X88517878Y-76935185D01*
X88935615Y-77352922D01*
X89481415Y-77579000D01*
X90072185Y-77579000D01*
X90581016Y-77368235D01*
X90593964Y-77765453D01*
X90814701Y-78298359D01*
X91091932Y-78409263D01*
X92137195Y-77364000D01*
X92496405Y-77364000D01*
X93541668Y-78409263D01*
X93818899Y-78298359D01*
X94062123Y-77652407D01*
X94039636Y-76962547D01*
X93818899Y-76429641D01*
X93541668Y-76318737D01*
X92496405Y-77364000D01*
X92137195Y-77364000D01*
X92123053Y-77349858D01*
X92302658Y-77170253D01*
X92316800Y-77184395D01*
X93362063Y-76139132D01*
X93251159Y-75861901D01*
X93083085Y-75798615D01*
X107892000Y-75798615D01*
X107892000Y-76389385D01*
X108118078Y-76935185D01*
X108535815Y-77352922D01*
X109081615Y-77579000D01*
X109672385Y-77579000D01*
X110181216Y-77368235D01*
X110194164Y-77765453D01*
X110414901Y-78298359D01*
X110692132Y-78409263D01*
X111737395Y-77364000D01*
X112096605Y-77364000D01*
X113141868Y-78409263D01*
X113419099Y-78298359D01*
X113662323Y-77652407D01*
X113639836Y-76962547D01*
X113419099Y-76429641D01*
X113141868Y-76318737D01*
X112096605Y-77364000D01*
X111737395Y-77364000D01*
X111723253Y-77349858D01*
X111902858Y-77170253D01*
X111917000Y-77184395D01*
X112962263Y-76139132D01*
X112851359Y-75861901D01*
X112205407Y-75618677D01*
X111515547Y-75641164D01*
X110982641Y-75861901D01*
X110871738Y-76139130D01*
X110862000Y-76129392D01*
X110862000Y-75798615D01*
X110635922Y-75252815D01*
X110218185Y-74835078D01*
X109672385Y-74609000D01*
X109081615Y-74609000D01*
X108535815Y-74835078D01*
X108118078Y-75252815D01*
X107892000Y-75798615D01*
X93083085Y-75798615D01*
X92605207Y-75618677D01*
X91915347Y-75641164D01*
X91382441Y-75861901D01*
X91271538Y-76139130D01*
X91261800Y-76129392D01*
X91261800Y-75798615D01*
X91035722Y-75252815D01*
X90617985Y-74835078D01*
X90072185Y-74609000D01*
X89481415Y-74609000D01*
X88935615Y-74835078D01*
X88517878Y-75252815D01*
X88291800Y-75798615D01*
X72973000Y-75798615D01*
X72973000Y-71564021D01*
X72988951Y-71488980D01*
X72996993Y-71412468D01*
X73015849Y-71052678D01*
X73018000Y-71039098D01*
X73018000Y-71942053D01*
X73486445Y-73072980D01*
X74352020Y-73938555D01*
X75482947Y-74407000D01*
X76707053Y-74407000D01*
X77837980Y-73938555D01*
X78703555Y-73072980D01*
X79172000Y-71942053D01*
X79172000Y-70717947D01*
X78703555Y-69587020D01*
X77837980Y-68721445D01*
X76757752Y-68274000D01*
X124432248Y-68274000D01*
X123352020Y-68721445D01*
X123352020Y-68721445D01*
G37*
X123352020Y-68721445D02*
X122486445Y-69587020D01*
X122018000Y-70717947D01*
X122018000Y-71942053D01*
X122486445Y-73072980D01*
X123352020Y-73938555D01*
X124482947Y-74407000D01*
X125707053Y-74407000D01*
X126837980Y-73938555D01*
X127703555Y-73072980D01*
X128170000Y-71946881D01*
X128170001Y-100510098D01*
X127631656Y-99971755D01*
X127763645Y-99826924D01*
X127933476Y-99416890D01*
X127812155Y-99187000D01*
X126619000Y-99187000D01*
X126619000Y-99207000D01*
X126365000Y-99207000D01*
X126365000Y-99187000D01*
X126345000Y-99187000D01*
X126345000Y-98933000D01*
X126365000Y-98933000D01*
X126365000Y-98913000D01*
X126619000Y-98913000D01*
X126619000Y-98933000D01*
X127812155Y-98933000D01*
X127933476Y-98703110D01*
X127763645Y-98293076D01*
X127373358Y-97864817D01*
X127243522Y-97803843D01*
X127562625Y-97590625D01*
X127890839Y-97099418D01*
X128006092Y-96520000D01*
X127890839Y-95940582D01*
X127562625Y-95449375D01*
X127264239Y-95250000D01*
X127562625Y-95050625D01*
X127890839Y-94559418D01*
X128006092Y-93980000D01*
X127890839Y-93400582D01*
X127562625Y-92909375D01*
X127243522Y-92696157D01*
X127373358Y-92635183D01*
X127763645Y-92206924D01*
X127933476Y-91796890D01*
X127812155Y-91567000D01*
X126619000Y-91567000D01*
X126619000Y-91587000D01*
X126365000Y-91587000D01*
X126365000Y-91567000D01*
X126345000Y-91567000D01*
X126345000Y-91313000D01*
X126365000Y-91313000D01*
X126365000Y-91293000D01*
X126619000Y-91293000D01*
X126619000Y-91313000D01*
X127812155Y-91313000D01*
X127933476Y-91083110D01*
X127763645Y-90673076D01*
X127373358Y-90244817D01*
X127243522Y-90183843D01*
X127562625Y-89970625D01*
X127890839Y-89479418D01*
X128006092Y-88900000D01*
X127890839Y-88320582D01*
X127562625Y-87829375D01*
X127264239Y-87630000D01*
X127562625Y-87430625D01*
X127890839Y-86939418D01*
X128006092Y-86360000D01*
X127890839Y-85780582D01*
X127562625Y-85289375D01*
X127264239Y-85090000D01*
X127562625Y-84890625D01*
X127890839Y-84399418D01*
X128006092Y-83820000D01*
X127890839Y-83240582D01*
X127562625Y-82749375D01*
X127243522Y-82536157D01*
X127373358Y-82475183D01*
X127763645Y-82046924D01*
X127933476Y-81636890D01*
X127812155Y-81407000D01*
X126619000Y-81407000D01*
X126619000Y-81427000D01*
X126365000Y-81427000D01*
X126365000Y-81407000D01*
X126345000Y-81407000D01*
X126345000Y-81153000D01*
X126365000Y-81153000D01*
X126365000Y-81133000D01*
X126619000Y-81133000D01*
X126619000Y-81153000D01*
X127812155Y-81153000D01*
X127933476Y-80923110D01*
X127763645Y-80513076D01*
X127373358Y-80084817D01*
X127243522Y-80023843D01*
X127562625Y-79810625D01*
X127890839Y-79319418D01*
X128006092Y-78740000D01*
X127890839Y-78160582D01*
X127562625Y-77669375D01*
X127264239Y-77470000D01*
X127562625Y-77270625D01*
X127890839Y-76779418D01*
X128006092Y-76200000D01*
X127890839Y-75620582D01*
X127562625Y-75129375D01*
X127071418Y-74801161D01*
X126638256Y-74715000D01*
X126345744Y-74715000D01*
X125912582Y-74801161D01*
X125421375Y-75129375D01*
X125409184Y-75147619D01*
X125400157Y-75102235D01*
X125259809Y-74892191D01*
X125049765Y-74751843D01*
X124802000Y-74702560D01*
X123102000Y-74702560D01*
X122854235Y-74751843D01*
X122644191Y-74892191D01*
X122503843Y-75102235D01*
X122454560Y-75350000D01*
X122454560Y-77050000D01*
X122503843Y-77297765D01*
X122644191Y-77507809D01*
X122854235Y-77648157D01*
X122899619Y-77657184D01*
X122881375Y-77669375D01*
X122553161Y-78160582D01*
X122437908Y-78740000D01*
X122553161Y-79319418D01*
X122881375Y-79810625D01*
X123179761Y-80010000D01*
X122881375Y-80209375D01*
X122553161Y-80700582D01*
X122437908Y-81280000D01*
X122553161Y-81859418D01*
X122881375Y-82350625D01*
X123179761Y-82550000D01*
X122881375Y-82749375D01*
X122553161Y-83240582D01*
X122437908Y-83820000D01*
X122553161Y-84399418D01*
X122881375Y-84890625D01*
X123200478Y-85103843D01*
X123070642Y-85164817D01*
X122680355Y-85593076D01*
X122510524Y-86003110D01*
X122631845Y-86233000D01*
X123825000Y-86233000D01*
X123825000Y-86213000D01*
X124079000Y-86213000D01*
X124079000Y-86233000D01*
X124099000Y-86233000D01*
X124099000Y-86487000D01*
X124079000Y-86487000D01*
X124079000Y-86507000D01*
X123825000Y-86507000D01*
X123825000Y-86487000D01*
X122631845Y-86487000D01*
X122510524Y-86716890D01*
X122680355Y-87126924D01*
X123070642Y-87555183D01*
X123200478Y-87616157D01*
X122881375Y-87829375D01*
X122841121Y-87889619D01*
X121267331Y-86315830D01*
X121224929Y-86252371D01*
X121187440Y-86227322D01*
X121187440Y-85480000D01*
X121138157Y-85232235D01*
X121043118Y-85090000D01*
X121138157Y-84947765D01*
X121187440Y-84700000D01*
X121187440Y-83705000D01*
X121138157Y-83457235D01*
X120997809Y-83247191D01*
X120787765Y-83106843D01*
X120540000Y-83057560D01*
X119540000Y-83057560D01*
X119292235Y-83106843D01*
X119238862Y-83142506D01*
X119022737Y-82998096D01*
X118801052Y-82954000D01*
X118801047Y-82954000D01*
X118726200Y-82939112D01*
X118651353Y-82954000D01*
X116020148Y-82954000D01*
X115927862Y-82731201D01*
X115439799Y-82243138D01*
X114802113Y-81979000D01*
X114111887Y-81979000D01*
X113474201Y-82243138D01*
X112986138Y-82731201D01*
X112722000Y-83368887D01*
X112722000Y-84059113D01*
X112986138Y-84696799D01*
X113474201Y-85184862D01*
X114111887Y-85449000D01*
X114802113Y-85449000D01*
X115439799Y-85184862D01*
X115927862Y-84696799D01*
X116020148Y-84474000D01*
X118411398Y-84474000D01*
X118624372Y-84686975D01*
X118666771Y-84750429D01*
X118730224Y-84792827D01*
X118730226Y-84792829D01*
X118853204Y-84875000D01*
X118918163Y-84918404D01*
X118936738Y-84922099D01*
X118941843Y-84947765D01*
X119036882Y-85090000D01*
X118941843Y-85232235D01*
X118892560Y-85480000D01*
X118892560Y-86475000D01*
X118941843Y-86722765D01*
X119082191Y-86932809D01*
X119292235Y-87073157D01*
X119320504Y-87078780D01*
X119324096Y-87096837D01*
X119492071Y-87348229D01*
X119507023Y-87358219D01*
X119292235Y-87400943D01*
X119082191Y-87541291D01*
X118951689Y-87736600D01*
X109678179Y-87736600D01*
X110218185Y-87512922D01*
X110635922Y-87095185D01*
X110862000Y-86549385D01*
X110862000Y-85958615D01*
X110635922Y-85412815D01*
X110218185Y-84995078D01*
X109672385Y-84769000D01*
X109081615Y-84769000D01*
X108535815Y-84995078D01*
X108118078Y-85412815D01*
X107892000Y-85958615D01*
X107892000Y-86549385D01*
X108118078Y-87095185D01*
X108535815Y-87512922D01*
X109075821Y-87736600D01*
X99954202Y-87736600D01*
X96499514Y-84281912D01*
X96591800Y-84059113D01*
X96591800Y-83368887D01*
X96327662Y-82731201D01*
X95839599Y-82243138D01*
X95201913Y-81979000D01*
X94511687Y-81979000D01*
X93874001Y-82243138D01*
X93385938Y-82731201D01*
X93121800Y-83368887D01*
X93121800Y-84059113D01*
X93385938Y-84696799D01*
X93874001Y-85184862D01*
X94511687Y-85449000D01*
X95201913Y-85449000D01*
X95424712Y-85356714D01*
X99049071Y-88981073D01*
X99091471Y-89044529D01*
X99154927Y-89086929D01*
X99342862Y-89212504D01*
X99391005Y-89222080D01*
X99564548Y-89256600D01*
X99564552Y-89256600D01*
X99639400Y-89271488D01*
X99714248Y-89256600D01*
X118951689Y-89256600D01*
X119036882Y-89384100D01*
X118941843Y-89526335D01*
X118892560Y-89774100D01*
X118892560Y-90769100D01*
X118941843Y-91016865D01*
X119082191Y-91226909D01*
X119292235Y-91367257D01*
X119540000Y-91416540D01*
X120540000Y-91416540D01*
X120787765Y-91367257D01*
X120997809Y-91226909D01*
X121138157Y-91016865D01*
X121143262Y-90991199D01*
X121161837Y-90987504D01*
X121389626Y-90835300D01*
X122570054Y-90835300D01*
X122553161Y-90860582D01*
X122437908Y-91440000D01*
X122553161Y-92019418D01*
X122881375Y-92510625D01*
X123179761Y-92710000D01*
X122881375Y-92909375D01*
X122669526Y-93226429D01*
X122480163Y-93264096D01*
X122228771Y-93432071D01*
X122186369Y-93495530D01*
X121980799Y-93701100D01*
X121128311Y-93701100D01*
X121043118Y-93573600D01*
X121138157Y-93431365D01*
X121187440Y-93183600D01*
X121187440Y-92188600D01*
X121138157Y-91940835D01*
X120997809Y-91730791D01*
X120787765Y-91590443D01*
X120540000Y-91541160D01*
X119540000Y-91541160D01*
X119292235Y-91590443D01*
X119082191Y-91730791D01*
X118941843Y-91940835D01*
X118892560Y-92188600D01*
X118892560Y-93067338D01*
X113972528Y-97987371D01*
X113909072Y-98029771D01*
X113866672Y-98093227D01*
X113866671Y-98093228D01*
X113780342Y-98222429D01*
X113741097Y-98281163D01*
X113703498Y-98470188D01*
X113682112Y-98577700D01*
X113697001Y-98652552D01*
X113697000Y-101750852D01*
X113474201Y-101843138D01*
X112986138Y-102331201D01*
X112722000Y-102968887D01*
X112722000Y-103659113D01*
X112867301Y-104009900D01*
X110270002Y-104009900D01*
X109669101Y-103409000D01*
X109901134Y-103409000D01*
X110869608Y-103007845D01*
X111610845Y-102266608D01*
X112012000Y-101298134D01*
X112012000Y-100249866D01*
X111610845Y-99281392D01*
X110869608Y-98540155D01*
X110021527Y-98188868D01*
X110871737Y-98188868D01*
X110982641Y-98466099D01*
X111628593Y-98709323D01*
X112318453Y-98686836D01*
X112851359Y-98466099D01*
X112962263Y-98188868D01*
X111917000Y-97143605D01*
X110871737Y-98188868D01*
X110021527Y-98188868D01*
X109901134Y-98139000D01*
X108852866Y-98139000D01*
X107884392Y-98540155D01*
X107143155Y-99281392D01*
X106742000Y-100249866D01*
X106742000Y-101298134D01*
X107143155Y-102266608D01*
X107430547Y-102554000D01*
X96419948Y-102554000D01*
X96327662Y-102331201D01*
X95839599Y-101843138D01*
X95201913Y-101579000D01*
X94511687Y-101579000D01*
X93874001Y-101843138D01*
X93385938Y-102331201D01*
X93121800Y-102968887D01*
X93121800Y-103659113D01*
X93385938Y-104296799D01*
X93874001Y-104784862D01*
X94511687Y-105049000D01*
X95201913Y-105049000D01*
X95839599Y-104784862D01*
X96327662Y-104296799D01*
X96419948Y-104074000D01*
X108184499Y-104074000D01*
X108655854Y-104545356D01*
X108535815Y-104595078D01*
X108118078Y-105012815D01*
X107892000Y-105558615D01*
X107892000Y-106149385D01*
X108118078Y-106695185D01*
X108535815Y-107112922D01*
X109081615Y-107339000D01*
X109356998Y-107339000D01*
X95424712Y-121271286D01*
X95201913Y-121179000D01*
X94511687Y-121179000D01*
X93874001Y-121443138D01*
X93385938Y-121931201D01*
X93121800Y-122568887D01*
X93121800Y-123259113D01*
X93385938Y-123896799D01*
X93874001Y-124384862D01*
X94511687Y-124649000D01*
X95201913Y-124649000D01*
X95839599Y-124384862D01*
X96327662Y-123896799D01*
X96591800Y-123259113D01*
X96591800Y-122568887D01*
X96499514Y-122346088D01*
X98995736Y-119849866D01*
X106742000Y-119849866D01*
X106742000Y-120898134D01*
X107143155Y-121866608D01*
X107884392Y-122607845D01*
X108852866Y-123009000D01*
X109901134Y-123009000D01*
X110869608Y-122607845D01*
X111610845Y-121866608D01*
X112012000Y-120898134D01*
X112012000Y-119849866D01*
X111610845Y-118881392D01*
X110869608Y-118140155D01*
X110021527Y-117788868D01*
X110871737Y-117788868D01*
X110982641Y-118066099D01*
X111628593Y-118309323D01*
X112318453Y-118286836D01*
X112851359Y-118066099D01*
X112962263Y-117788868D01*
X111917000Y-116743605D01*
X110871737Y-117788868D01*
X110021527Y-117788868D01*
X109901134Y-117739000D01*
X108852866Y-117739000D01*
X107884392Y-118140155D01*
X107143155Y-118881392D01*
X106742000Y-119849866D01*
X98995736Y-119849866D01*
X103846987Y-114998615D01*
X107892000Y-114998615D01*
X107892000Y-115589385D01*
X108118078Y-116135185D01*
X108535815Y-116552922D01*
X109081615Y-116779000D01*
X109672385Y-116779000D01*
X110181216Y-116568235D01*
X110194164Y-116965453D01*
X110414901Y-117498359D01*
X110692132Y-117609263D01*
X111737395Y-116564000D01*
X112096605Y-116564000D01*
X113141868Y-117609263D01*
X113419099Y-117498359D01*
X113662323Y-116852407D01*
X113639836Y-116162547D01*
X113419099Y-115629641D01*
X113141868Y-115518737D01*
X112096605Y-116564000D01*
X111737395Y-116564000D01*
X111723253Y-116549858D01*
X111902858Y-116370253D01*
X111917000Y-116384395D01*
X112962263Y-115339132D01*
X112851359Y-115061901D01*
X112205407Y-114818677D01*
X111515547Y-114841164D01*
X110982641Y-115061901D01*
X110871738Y-115339130D01*
X110862000Y-115329392D01*
X110862000Y-114998615D01*
X110635922Y-114452815D01*
X110218185Y-114035078D01*
X109672385Y-113809000D01*
X109081615Y-113809000D01*
X108535815Y-114035078D01*
X108118078Y-114452815D01*
X107892000Y-114998615D01*
X103846987Y-114998615D01*
X112750102Y-106095500D01*
X119002689Y-106095500D01*
X119087882Y-106223000D01*
X118992843Y-106365235D01*
X118943560Y-106613000D01*
X118943560Y-107608000D01*
X118992843Y-107855765D01*
X119133191Y-108065809D01*
X119343235Y-108206157D01*
X119591000Y-108255440D01*
X120591000Y-108255440D01*
X120838765Y-108206157D01*
X121048809Y-108065809D01*
X121189157Y-107855765D01*
X121238440Y-107608000D01*
X121238440Y-106729261D01*
X122678373Y-105289329D01*
X122741829Y-105246929D01*
X122823731Y-105124354D01*
X122881375Y-105210625D01*
X123200478Y-105423843D01*
X123070642Y-105484817D01*
X122680355Y-105913076D01*
X122510524Y-106323110D01*
X122631845Y-106553000D01*
X123825000Y-106553000D01*
X123825000Y-106533000D01*
X124079000Y-106533000D01*
X124079000Y-106553000D01*
X124099000Y-106553000D01*
X124099000Y-106807000D01*
X124079000Y-106807000D01*
X124079000Y-106827000D01*
X123825000Y-106827000D01*
X123825000Y-106807000D01*
X122631845Y-106807000D01*
X122510524Y-107036890D01*
X122680355Y-107446924D01*
X123070642Y-107875183D01*
X123200478Y-107936157D01*
X122881375Y-108149375D01*
X122553161Y-108640582D01*
X122437908Y-109220000D01*
X122553161Y-109799418D01*
X122802387Y-110172411D01*
X113972528Y-119002271D01*
X113909072Y-119044671D01*
X113866672Y-119108127D01*
X113866671Y-119108128D01*
X113741097Y-119296063D01*
X113682112Y-119592600D01*
X113697001Y-119667452D01*
X113697000Y-121350852D01*
X113474201Y-121443138D01*
X112986138Y-121931201D01*
X112722000Y-122568887D01*
X112722000Y-123259113D01*
X112986138Y-123896799D01*
X113474201Y-124384862D01*
X114111887Y-124649000D01*
X114802113Y-124649000D01*
X115439799Y-124384862D01*
X115927862Y-123896799D01*
X116192000Y-123259113D01*
X116192000Y-122568887D01*
X115927862Y-121931201D01*
X115439799Y-121443138D01*
X115217000Y-121350852D01*
X115217000Y-119907401D01*
X122646016Y-112478386D01*
X122881375Y-112830625D01*
X123179761Y-113030000D01*
X122881375Y-113229375D01*
X122553161Y-113720582D01*
X122437908Y-114300000D01*
X122553161Y-114879418D01*
X122881375Y-115370625D01*
X123179761Y-115570000D01*
X122881375Y-115769375D01*
X122553161Y-116260582D01*
X122437908Y-116840000D01*
X122553161Y-117419418D01*
X122881375Y-117910625D01*
X123179761Y-118110000D01*
X122881375Y-118309375D01*
X122553161Y-118800582D01*
X122437908Y-119380000D01*
X122553161Y-119959418D01*
X122881375Y-120450625D01*
X123179761Y-120650000D01*
X122881375Y-120849375D01*
X122553161Y-121340582D01*
X122437908Y-121920000D01*
X122553161Y-122499418D01*
X122881375Y-122990625D01*
X123200478Y-123203843D01*
X123070642Y-123264817D01*
X122680355Y-123693076D01*
X122510524Y-124103110D01*
X122631845Y-124333000D01*
X123825000Y-124333000D01*
X123825000Y-124313000D01*
X124079000Y-124313000D01*
X124079000Y-124333000D01*
X124099000Y-124333000D01*
X124099000Y-124587000D01*
X124079000Y-124587000D01*
X124079000Y-125780819D01*
X124308892Y-125901486D01*
X124833358Y-125655183D01*
X125220647Y-125230214D01*
X125421375Y-125530625D01*
X125912582Y-125858839D01*
X126345744Y-125945000D01*
X126638256Y-125945000D01*
X127071418Y-125858839D01*
X127562625Y-125530625D01*
X127890839Y-125039418D01*
X128006092Y-124460000D01*
X127890839Y-123880582D01*
X127562625Y-123389375D01*
X127264239Y-123190000D01*
X127562625Y-122990625D01*
X127890839Y-122499418D01*
X128006092Y-121920000D01*
X127890839Y-121340582D01*
X127562625Y-120849375D01*
X127264239Y-120650000D01*
X127562625Y-120450625D01*
X127890839Y-119959418D01*
X128006092Y-119380000D01*
X127890839Y-118800582D01*
X127562625Y-118309375D01*
X127243522Y-118096157D01*
X127373358Y-118035183D01*
X127763645Y-117606924D01*
X127933476Y-117196890D01*
X127812155Y-116967000D01*
X126619000Y-116967000D01*
X126619000Y-116987000D01*
X126365000Y-116987000D01*
X126365000Y-116967000D01*
X126345000Y-116967000D01*
X126345000Y-116713000D01*
X126365000Y-116713000D01*
X126365000Y-116693000D01*
X126619000Y-116693000D01*
X126619000Y-116713000D01*
X127812155Y-116713000D01*
X127933476Y-116483110D01*
X127763645Y-116073076D01*
X127373358Y-115644817D01*
X127243522Y-115583843D01*
X127562625Y-115370625D01*
X127890839Y-114879418D01*
X128006092Y-114300000D01*
X127890839Y-113720582D01*
X127562625Y-113229375D01*
X127243522Y-113016157D01*
X127373358Y-112955183D01*
X127763645Y-112526924D01*
X127933476Y-112116890D01*
X127812155Y-111887000D01*
X126619000Y-111887000D01*
X126619000Y-111907000D01*
X126365000Y-111907000D01*
X126365000Y-111887000D01*
X126345000Y-111887000D01*
X126345000Y-111633000D01*
X126365000Y-111633000D01*
X126365000Y-111613000D01*
X126619000Y-111613000D01*
X126619000Y-111633000D01*
X127812155Y-111633000D01*
X127933476Y-111403110D01*
X127763645Y-110993076D01*
X127373358Y-110564817D01*
X127243522Y-110503843D01*
X127562625Y-110290625D01*
X127890839Y-109799418D01*
X128006092Y-109220000D01*
X127890839Y-108640582D01*
X127673776Y-108315725D01*
X128170001Y-107819501D01*
X128170001Y-128713121D01*
X127703555Y-127587020D01*
X126837980Y-126721445D01*
X125707053Y-126253000D01*
X124482947Y-126253000D01*
X123352020Y-126721445D01*
X122486445Y-127587020D01*
X122018000Y-128717947D01*
X122018000Y-129942053D01*
X122486445Y-131072980D01*
X123352020Y-131938555D01*
X124432248Y-132386000D01*
X76757752Y-132386000D01*
X77837980Y-131938555D01*
X78703555Y-131072980D01*
X79172000Y-129942053D01*
X79172000Y-128717947D01*
X78703555Y-127587020D01*
X77837980Y-126721445D01*
X76707053Y-126253000D01*
X75482947Y-126253000D01*
X74352020Y-126721445D01*
X73486445Y-127587020D01*
X73018000Y-128717947D01*
X73018000Y-129620902D01*
X73015849Y-129607322D01*
X72996993Y-129247532D01*
X72988951Y-129171020D01*
X72973000Y-129095979D01*
X72973000Y-125158615D01*
X88291800Y-125158615D01*
X88291800Y-125749385D01*
X88517878Y-126295185D01*
X88935615Y-126712922D01*
X89481415Y-126939000D01*
X90072185Y-126939000D01*
X90617985Y-126712922D01*
X91035722Y-126295185D01*
X91261800Y-125749385D01*
X91261800Y-125158615D01*
X107892000Y-125158615D01*
X107892000Y-125749385D01*
X108118078Y-126295185D01*
X108535815Y-126712922D01*
X109081615Y-126939000D01*
X109672385Y-126939000D01*
X110218185Y-126712922D01*
X110635922Y-126295185D01*
X110862000Y-125749385D01*
X110862000Y-125158615D01*
X110720453Y-124816890D01*
X122510524Y-124816890D01*
X122680355Y-125226924D01*
X123070642Y-125655183D01*
X123595108Y-125901486D01*
X123825000Y-125780819D01*
X123825000Y-124587000D01*
X122631845Y-124587000D01*
X122510524Y-124816890D01*
X110720453Y-124816890D01*
X110635922Y-124612815D01*
X110218185Y-124195078D01*
X109672385Y-123969000D01*
X109081615Y-123969000D01*
X108535815Y-124195078D01*
X108118078Y-124612815D01*
X107892000Y-125158615D01*
X91261800Y-125158615D01*
X91035722Y-124612815D01*
X90617985Y-124195078D01*
X90072185Y-123969000D01*
X89481415Y-123969000D01*
X88935615Y-124195078D01*
X88517878Y-124612815D01*
X88291800Y-125158615D01*
X72973000Y-125158615D01*
X72973000Y-119849866D01*
X87141800Y-119849866D01*
X87141800Y-120898134D01*
X87542955Y-121866608D01*
X88284192Y-122607845D01*
X89252666Y-123009000D01*
X90300934Y-123009000D01*
X91269408Y-122607845D01*
X92010645Y-121866608D01*
X92411800Y-120898134D01*
X92411800Y-119849866D01*
X92010645Y-118881392D01*
X91269408Y-118140155D01*
X90421327Y-117788868D01*
X91271537Y-117788868D01*
X91382441Y-118066099D01*
X92028393Y-118309323D01*
X92718253Y-118286836D01*
X93251159Y-118066099D01*
X93362063Y-117788868D01*
X92316800Y-116743605D01*
X91271537Y-117788868D01*
X90421327Y-117788868D01*
X90300934Y-117739000D01*
X89252666Y-117739000D01*
X88284192Y-118140155D01*
X87542955Y-118881392D01*
X87141800Y-119849866D01*
X72973000Y-119849866D01*
X72973000Y-114998615D01*
X88291800Y-114998615D01*
X88291800Y-115589385D01*
X88517878Y-116135185D01*
X88935615Y-116552922D01*
X89481415Y-116779000D01*
X90072185Y-116779000D01*
X90581016Y-116568235D01*
X90593964Y-116965453D01*
X90814701Y-117498359D01*
X91091932Y-117609263D01*
X92137195Y-116564000D01*
X92496405Y-116564000D01*
X93541668Y-117609263D01*
X93818899Y-117498359D01*
X94062123Y-116852407D01*
X94039636Y-116162547D01*
X93818899Y-115629641D01*
X93541668Y-115518737D01*
X92496405Y-116564000D01*
X92137195Y-116564000D01*
X92123053Y-116549858D01*
X92302658Y-116370253D01*
X92316800Y-116384395D01*
X93362063Y-115339132D01*
X93251159Y-115061901D01*
X92605207Y-114818677D01*
X91915347Y-114841164D01*
X91382441Y-115061901D01*
X91271538Y-115339130D01*
X91261800Y-115329392D01*
X91261800Y-114998615D01*
X91035722Y-114452815D01*
X90617985Y-114035078D01*
X90072185Y-113809000D01*
X89481415Y-113809000D01*
X88935615Y-114035078D01*
X88517878Y-114452815D01*
X88291800Y-114998615D01*
X72973000Y-114998615D01*
X72973000Y-105558615D01*
X88291800Y-105558615D01*
X88291800Y-106149385D01*
X88517878Y-106695185D01*
X88935615Y-107112922D01*
X89481415Y-107339000D01*
X90072185Y-107339000D01*
X90617985Y-107112922D01*
X91035722Y-106695185D01*
X91261800Y-106149385D01*
X91261800Y-105558615D01*
X91035722Y-105012815D01*
X90617985Y-104595078D01*
X90072185Y-104369000D01*
X89481415Y-104369000D01*
X88935615Y-104595078D01*
X88517878Y-105012815D01*
X88291800Y-105558615D01*
X72973000Y-105558615D01*
X72973000Y-100249866D01*
X87141800Y-100249866D01*
X87141800Y-101298134D01*
X87542955Y-102266608D01*
X88284192Y-103007845D01*
X89252666Y-103409000D01*
X90300934Y-103409000D01*
X91269408Y-103007845D01*
X92010645Y-102266608D01*
X92411800Y-101298134D01*
X92411800Y-100249866D01*
X92010645Y-99281392D01*
X91269408Y-98540155D01*
X90421327Y-98188868D01*
X91271537Y-98188868D01*
X91382441Y-98466099D01*
X92028393Y-98709323D01*
X92718253Y-98686836D01*
X93251159Y-98466099D01*
X93362063Y-98188868D01*
X92316800Y-97143605D01*
X91271537Y-98188868D01*
X90421327Y-98188868D01*
X90300934Y-98139000D01*
X89252666Y-98139000D01*
X88284192Y-98540155D01*
X87542955Y-99281392D01*
X87141800Y-100249866D01*
X72973000Y-100249866D01*
X72973000Y-95398615D01*
X88291800Y-95398615D01*
X88291800Y-95989385D01*
X88517878Y-96535185D01*
X88935615Y-96952922D01*
X89481415Y-97179000D01*
X90072185Y-97179000D01*
X90581016Y-96968235D01*
X90593964Y-97365453D01*
X90814701Y-97898359D01*
X91091932Y-98009263D01*
X92137195Y-96964000D01*
X92496405Y-96964000D01*
X93541668Y-98009263D01*
X93818899Y-97898359D01*
X94062123Y-97252407D01*
X94039636Y-96562547D01*
X93818899Y-96029641D01*
X93541668Y-95918737D01*
X92496405Y-96964000D01*
X92137195Y-96964000D01*
X92123053Y-96949858D01*
X92302658Y-96770253D01*
X92316800Y-96784395D01*
X93362063Y-95739132D01*
X93251159Y-95461901D01*
X93083085Y-95398615D01*
X107892000Y-95398615D01*
X107892000Y-95989385D01*
X108118078Y-96535185D01*
X108535815Y-96952922D01*
X109081615Y-97179000D01*
X109672385Y-97179000D01*
X110181216Y-96968235D01*
X110194164Y-97365453D01*
X110414901Y-97898359D01*
X110692132Y-98009263D01*
X111737395Y-96964000D01*
X112096605Y-96964000D01*
X113141868Y-98009263D01*
X113419099Y-97898359D01*
X113662323Y-97252407D01*
X113639836Y-96562547D01*
X113419099Y-96029641D01*
X113141868Y-95918737D01*
X112096605Y-96964000D01*
X111737395Y-96964000D01*
X111723253Y-96949858D01*
X111902858Y-96770253D01*
X111917000Y-96784395D01*
X112962263Y-95739132D01*
X112851359Y-95461901D01*
X112205407Y-95218677D01*
X111515547Y-95241164D01*
X110982641Y-95461901D01*
X110871738Y-95739130D01*
X110862000Y-95729392D01*
X110862000Y-95398615D01*
X110635922Y-94852815D01*
X110218185Y-94435078D01*
X109672385Y-94209000D01*
X109081615Y-94209000D01*
X108535815Y-94435078D01*
X108118078Y-94852815D01*
X107892000Y-95398615D01*
X93083085Y-95398615D01*
X92605207Y-95218677D01*
X91915347Y-95241164D01*
X91382441Y-95461901D01*
X91271538Y-95739130D01*
X91261800Y-95729392D01*
X91261800Y-95398615D01*
X91035722Y-94852815D01*
X90617985Y-94435078D01*
X90072185Y-94209000D01*
X89481415Y-94209000D01*
X88935615Y-94435078D01*
X88517878Y-94852815D01*
X88291800Y-95398615D01*
X72973000Y-95398615D01*
X72973000Y-85958615D01*
X88291800Y-85958615D01*
X88291800Y-86549385D01*
X88517878Y-87095185D01*
X88935615Y-87512922D01*
X89481415Y-87739000D01*
X90072185Y-87739000D01*
X90617985Y-87512922D01*
X91035722Y-87095185D01*
X91261800Y-86549385D01*
X91261800Y-85958615D01*
X91035722Y-85412815D01*
X90617985Y-84995078D01*
X90072185Y-84769000D01*
X89481415Y-84769000D01*
X88935615Y-84995078D01*
X88517878Y-85412815D01*
X88291800Y-85958615D01*
X72973000Y-85958615D01*
X72973000Y-80649866D01*
X87141800Y-80649866D01*
X87141800Y-81698134D01*
X87542955Y-82666608D01*
X88284192Y-83407845D01*
X89252666Y-83809000D01*
X90300934Y-83809000D01*
X91269408Y-83407845D01*
X92010645Y-82666608D01*
X92411800Y-81698134D01*
X92411800Y-80649866D01*
X106742000Y-80649866D01*
X106742000Y-81698134D01*
X107143155Y-82666608D01*
X107884392Y-83407845D01*
X108852866Y-83809000D01*
X109901134Y-83809000D01*
X110869608Y-83407845D01*
X111610845Y-82666608D01*
X112012000Y-81698134D01*
X112012000Y-80649866D01*
X111610845Y-79681392D01*
X110869608Y-78940155D01*
X110021527Y-78588868D01*
X110871737Y-78588868D01*
X110982641Y-78866099D01*
X111628593Y-79109323D01*
X112318453Y-79086836D01*
X112851359Y-78866099D01*
X112962263Y-78588868D01*
X111917000Y-77543605D01*
X110871737Y-78588868D01*
X110021527Y-78588868D01*
X109901134Y-78539000D01*
X108852866Y-78539000D01*
X107884392Y-78940155D01*
X107143155Y-79681392D01*
X106742000Y-80649866D01*
X92411800Y-80649866D01*
X92010645Y-79681392D01*
X91269408Y-78940155D01*
X90421327Y-78588868D01*
X91271537Y-78588868D01*
X91382441Y-78866099D01*
X92028393Y-79109323D01*
X92718253Y-79086836D01*
X93251159Y-78866099D01*
X93362063Y-78588868D01*
X92316800Y-77543605D01*
X91271537Y-78588868D01*
X90421327Y-78588868D01*
X90300934Y-78539000D01*
X89252666Y-78539000D01*
X88284192Y-78940155D01*
X87542955Y-79681392D01*
X87141800Y-80649866D01*
X72973000Y-80649866D01*
X72973000Y-75798615D01*
X88291800Y-75798615D01*
X88291800Y-76389385D01*
X88517878Y-76935185D01*
X88935615Y-77352922D01*
X89481415Y-77579000D01*
X90072185Y-77579000D01*
X90581016Y-77368235D01*
X90593964Y-77765453D01*
X90814701Y-78298359D01*
X91091932Y-78409263D01*
X92137195Y-77364000D01*
X92496405Y-77364000D01*
X93541668Y-78409263D01*
X93818899Y-78298359D01*
X94062123Y-77652407D01*
X94039636Y-76962547D01*
X93818899Y-76429641D01*
X93541668Y-76318737D01*
X92496405Y-77364000D01*
X92137195Y-77364000D01*
X92123053Y-77349858D01*
X92302658Y-77170253D01*
X92316800Y-77184395D01*
X93362063Y-76139132D01*
X93251159Y-75861901D01*
X93083085Y-75798615D01*
X107892000Y-75798615D01*
X107892000Y-76389385D01*
X108118078Y-76935185D01*
X108535815Y-77352922D01*
X109081615Y-77579000D01*
X109672385Y-77579000D01*
X110181216Y-77368235D01*
X110194164Y-77765453D01*
X110414901Y-78298359D01*
X110692132Y-78409263D01*
X111737395Y-77364000D01*
X112096605Y-77364000D01*
X113141868Y-78409263D01*
X113419099Y-78298359D01*
X113662323Y-77652407D01*
X113639836Y-76962547D01*
X113419099Y-76429641D01*
X113141868Y-76318737D01*
X112096605Y-77364000D01*
X111737395Y-77364000D01*
X111723253Y-77349858D01*
X111902858Y-77170253D01*
X111917000Y-77184395D01*
X112962263Y-76139132D01*
X112851359Y-75861901D01*
X112205407Y-75618677D01*
X111515547Y-75641164D01*
X110982641Y-75861901D01*
X110871738Y-76139130D01*
X110862000Y-76129392D01*
X110862000Y-75798615D01*
X110635922Y-75252815D01*
X110218185Y-74835078D01*
X109672385Y-74609000D01*
X109081615Y-74609000D01*
X108535815Y-74835078D01*
X108118078Y-75252815D01*
X107892000Y-75798615D01*
X93083085Y-75798615D01*
X92605207Y-75618677D01*
X91915347Y-75641164D01*
X91382441Y-75861901D01*
X91271538Y-76139130D01*
X91261800Y-76129392D01*
X91261800Y-75798615D01*
X91035722Y-75252815D01*
X90617985Y-74835078D01*
X90072185Y-74609000D01*
X89481415Y-74609000D01*
X88935615Y-74835078D01*
X88517878Y-75252815D01*
X88291800Y-75798615D01*
X72973000Y-75798615D01*
X72973000Y-71564021D01*
X72988951Y-71488980D01*
X72996993Y-71412468D01*
X73015849Y-71052678D01*
X73018000Y-71039098D01*
X73018000Y-71942053D01*
X73486445Y-73072980D01*
X74352020Y-73938555D01*
X75482947Y-74407000D01*
X76707053Y-74407000D01*
X77837980Y-73938555D01*
X78703555Y-73072980D01*
X79172000Y-71942053D01*
X79172000Y-70717947D01*
X78703555Y-69587020D01*
X77837980Y-68721445D01*
X76757752Y-68274000D01*
X124432248Y-68274000D01*
X123352020Y-68721445D01*
M02*
