G04 #@! TF.GenerationSoftware,KiCad,Pcbnew,5.0.0-rc1-44a33f2~62~ubuntu17.10.1*
G04 #@! TF.CreationDate,2018-05-10T22:28:45+09:00*
G04 #@! TF.ProjectId,RaspiCherryMXKeysHat,52617370694368657272794D584B6579,rev?*
G04 #@! TF.SameCoordinates,Original*
G04 #@! TF.FileFunction,Legend,Top*
G04 #@! TF.FilePolarity,Positive*
%FSLAX46Y46*%
G04 Gerber Fmt 4.6, Leading zero omitted, Abs format (unit mm)*
G04 Created by KiCad (PCBNEW 5.0.0-rc1-44a33f2~62~ubuntu17.10.1) date Thu May 10 22:28:45 2018*
%MOMM*%
%LPD*%
G01*
G04 APERTURE LIST*
%ADD10C,0.300000*%
%ADD11C,0.400000*%
%ADD12C,0.120000*%
%ADD13C,0.150000*%
G04 APERTURE END LIST*
D10*
X74031542Y-115675028D02*
X74602971Y-115275028D01*
X74031542Y-114989314D02*
X75231542Y-114989314D01*
X75231542Y-115446457D01*
X75174400Y-115560742D01*
X75117257Y-115617885D01*
X75002971Y-115675028D01*
X74831542Y-115675028D01*
X74717257Y-115617885D01*
X74660114Y-115560742D01*
X74602971Y-115446457D01*
X74602971Y-114989314D01*
X74088685Y-116646457D02*
X74031542Y-116532171D01*
X74031542Y-116303600D01*
X74088685Y-116189314D01*
X74202971Y-116132171D01*
X74660114Y-116132171D01*
X74774400Y-116189314D01*
X74831542Y-116303600D01*
X74831542Y-116532171D01*
X74774400Y-116646457D01*
X74660114Y-116703600D01*
X74545828Y-116703600D01*
X74431542Y-116132171D01*
X74831542Y-117103600D02*
X74031542Y-117389314D01*
X74831542Y-117675028D01*
X74031542Y-118760742D02*
X74031542Y-118075028D01*
X74031542Y-118417885D02*
X75231542Y-118417885D01*
X75060114Y-118303600D01*
X74945828Y-118189314D01*
X74888685Y-118075028D01*
X74145828Y-119275028D02*
X74088685Y-119332171D01*
X74031542Y-119275028D01*
X74088685Y-119217885D01*
X74145828Y-119275028D01*
X74031542Y-119275028D01*
X75231542Y-120075028D02*
X75231542Y-120189314D01*
X75174400Y-120303600D01*
X75117257Y-120360742D01*
X75002971Y-120417885D01*
X74774400Y-120475028D01*
X74488685Y-120475028D01*
X74260114Y-120417885D01*
X74145828Y-120360742D01*
X74088685Y-120303600D01*
X74031542Y-120189314D01*
X74031542Y-120075028D01*
X74088685Y-119960742D01*
X74145828Y-119903600D01*
X74260114Y-119846457D01*
X74488685Y-119789314D01*
X74774400Y-119789314D01*
X75002971Y-119846457D01*
X75117257Y-119903600D01*
X75174400Y-119960742D01*
X75231542Y-120075028D01*
D11*
X74152238Y-81488285D02*
X75104619Y-80821619D01*
X74152238Y-80345428D02*
X76152238Y-80345428D01*
X76152238Y-81107333D01*
X76057000Y-81297809D01*
X75961761Y-81393047D01*
X75771285Y-81488285D01*
X75485571Y-81488285D01*
X75295095Y-81393047D01*
X75199857Y-81297809D01*
X75104619Y-81107333D01*
X75104619Y-80345428D01*
X74152238Y-83202571D02*
X75199857Y-83202571D01*
X75390333Y-83107333D01*
X75485571Y-82916857D01*
X75485571Y-82535904D01*
X75390333Y-82345428D01*
X74247476Y-83202571D02*
X74152238Y-83012095D01*
X74152238Y-82535904D01*
X74247476Y-82345428D01*
X74437952Y-82250190D01*
X74628428Y-82250190D01*
X74818904Y-82345428D01*
X74914142Y-82535904D01*
X74914142Y-83012095D01*
X75009380Y-83202571D01*
X74247476Y-84059714D02*
X74152238Y-84250190D01*
X74152238Y-84631142D01*
X74247476Y-84821619D01*
X74437952Y-84916857D01*
X74533190Y-84916857D01*
X74723666Y-84821619D01*
X74818904Y-84631142D01*
X74818904Y-84345428D01*
X74914142Y-84154952D01*
X75104619Y-84059714D01*
X75199857Y-84059714D01*
X75390333Y-84154952D01*
X75485571Y-84345428D01*
X75485571Y-84631142D01*
X75390333Y-84821619D01*
X75485571Y-85774000D02*
X73485571Y-85774000D01*
X75390333Y-85774000D02*
X75485571Y-85964476D01*
X75485571Y-86345428D01*
X75390333Y-86535904D01*
X75295095Y-86631142D01*
X75104619Y-86726380D01*
X74533190Y-86726380D01*
X74342714Y-86631142D01*
X74247476Y-86535904D01*
X74152238Y-86345428D01*
X74152238Y-85964476D01*
X74247476Y-85774000D01*
X74152238Y-87583523D02*
X75485571Y-87583523D01*
X76152238Y-87583523D02*
X76057000Y-87488285D01*
X75961761Y-87583523D01*
X76057000Y-87678761D01*
X76152238Y-87583523D01*
X75961761Y-87583523D01*
X74342714Y-89678761D02*
X74247476Y-89583523D01*
X74152238Y-89297809D01*
X74152238Y-89107333D01*
X74247476Y-88821619D01*
X74437952Y-88631142D01*
X74628428Y-88535904D01*
X75009380Y-88440666D01*
X75295095Y-88440666D01*
X75676047Y-88535904D01*
X75866523Y-88631142D01*
X76057000Y-88821619D01*
X76152238Y-89107333D01*
X76152238Y-89297809D01*
X76057000Y-89583523D01*
X75961761Y-89678761D01*
X74152238Y-90535904D02*
X76152238Y-90535904D01*
X74152238Y-91393047D02*
X75199857Y-91393047D01*
X75390333Y-91297809D01*
X75485571Y-91107333D01*
X75485571Y-90821619D01*
X75390333Y-90631142D01*
X75295095Y-90535904D01*
X74247476Y-93107333D02*
X74152238Y-92916857D01*
X74152238Y-92535904D01*
X74247476Y-92345428D01*
X74437952Y-92250190D01*
X75199857Y-92250190D01*
X75390333Y-92345428D01*
X75485571Y-92535904D01*
X75485571Y-92916857D01*
X75390333Y-93107333D01*
X75199857Y-93202571D01*
X75009380Y-93202571D01*
X74818904Y-92250190D01*
X74152238Y-94059714D02*
X75485571Y-94059714D01*
X75104619Y-94059714D02*
X75295095Y-94154952D01*
X75390333Y-94250190D01*
X75485571Y-94440666D01*
X75485571Y-94631142D01*
X74152238Y-95297809D02*
X75485571Y-95297809D01*
X75104619Y-95297809D02*
X75295095Y-95393047D01*
X75390333Y-95488285D01*
X75485571Y-95678761D01*
X75485571Y-95869238D01*
X75485571Y-96345428D02*
X74152238Y-96821619D01*
X75485571Y-97297809D02*
X74152238Y-96821619D01*
X73676047Y-96631142D01*
X73580809Y-96535904D01*
X73485571Y-96345428D01*
X74152238Y-98059714D02*
X76152238Y-98059714D01*
X74723666Y-98726380D01*
X76152238Y-99393047D01*
X74152238Y-99393047D01*
X76152238Y-100154952D02*
X74152238Y-101488285D01*
X76152238Y-101488285D02*
X74152238Y-100154952D01*
X74152238Y-102250190D02*
X76152238Y-102250190D01*
X74152238Y-103393047D02*
X75295095Y-102535904D01*
X76152238Y-103393047D02*
X75009380Y-102250190D01*
X74247476Y-105012095D02*
X74152238Y-104821619D01*
X74152238Y-104440666D01*
X74247476Y-104250190D01*
X74437952Y-104154952D01*
X75199857Y-104154952D01*
X75390333Y-104250190D01*
X75485571Y-104440666D01*
X75485571Y-104821619D01*
X75390333Y-105012095D01*
X75199857Y-105107333D01*
X75009380Y-105107333D01*
X74818904Y-104154952D01*
X75485571Y-105774000D02*
X74152238Y-106250190D01*
X75485571Y-106726380D02*
X74152238Y-106250190D01*
X73676047Y-106059714D01*
X73580809Y-105964476D01*
X73485571Y-105774000D01*
X74247476Y-107393047D02*
X74152238Y-107583523D01*
X74152238Y-107964476D01*
X74247476Y-108154952D01*
X74437952Y-108250190D01*
X74533190Y-108250190D01*
X74723666Y-108154952D01*
X74818904Y-107964476D01*
X74818904Y-107678761D01*
X74914142Y-107488285D01*
X75104619Y-107393047D01*
X75199857Y-107393047D01*
X75390333Y-107488285D01*
X75485571Y-107678761D01*
X75485571Y-107964476D01*
X75390333Y-108154952D01*
X74152238Y-109107333D02*
X76152238Y-109107333D01*
X75199857Y-109107333D02*
X75199857Y-110250190D01*
X74152238Y-110250190D02*
X76152238Y-110250190D01*
X74152238Y-112059714D02*
X75199857Y-112059714D01*
X75390333Y-111964476D01*
X75485571Y-111773999D01*
X75485571Y-111393047D01*
X75390333Y-111202571D01*
X74247476Y-112059714D02*
X74152238Y-111869238D01*
X74152238Y-111393047D01*
X74247476Y-111202571D01*
X74437952Y-111107333D01*
X74628428Y-111107333D01*
X74818904Y-111202571D01*
X74914142Y-111393047D01*
X74914142Y-111869238D01*
X75009380Y-112059714D01*
X75485571Y-112726380D02*
X75485571Y-113488285D01*
X76152238Y-113012095D02*
X74437952Y-113012095D01*
X74247476Y-113107333D01*
X74152238Y-113297809D01*
X74152238Y-113488285D01*
D10*
X104444342Y-68246685D02*
X104272914Y-68189542D01*
X103987200Y-68189542D01*
X103872914Y-68246685D01*
X103815771Y-68303828D01*
X103758628Y-68418114D01*
X103758628Y-68532400D01*
X103815771Y-68646685D01*
X103872914Y-68703828D01*
X103987200Y-68760971D01*
X104215771Y-68818114D01*
X104330057Y-68875257D01*
X104387200Y-68932400D01*
X104444342Y-69046685D01*
X104444342Y-69160971D01*
X104387200Y-69275257D01*
X104330057Y-69332400D01*
X104215771Y-69389542D01*
X103930057Y-69389542D01*
X103758628Y-69332400D01*
X103244342Y-68189542D02*
X103244342Y-69389542D01*
X102958628Y-69389542D01*
X102787200Y-69332400D01*
X102672914Y-69218114D01*
X102615771Y-69103828D01*
X102558628Y-68875257D01*
X102558628Y-68703828D01*
X102615771Y-68475257D01*
X102672914Y-68360971D01*
X102787200Y-68246685D01*
X102958628Y-68189542D01*
X103244342Y-68189542D01*
X101530057Y-68246685D02*
X101644342Y-68189542D01*
X101872914Y-68189542D01*
X101987200Y-68246685D01*
X102044342Y-68303828D01*
X102101485Y-68418114D01*
X102101485Y-68760971D01*
X102044342Y-68875257D01*
X101987200Y-68932400D01*
X101872914Y-68989542D01*
X101644342Y-68989542D01*
X101530057Y-68932400D01*
X100501485Y-68189542D02*
X100501485Y-68818114D01*
X100558628Y-68932400D01*
X100672914Y-68989542D01*
X100901485Y-68989542D01*
X101015771Y-68932400D01*
X100501485Y-68246685D02*
X100615771Y-68189542D01*
X100901485Y-68189542D01*
X101015771Y-68246685D01*
X101072914Y-68360971D01*
X101072914Y-68475257D01*
X101015771Y-68589542D01*
X100901485Y-68646685D01*
X100615771Y-68646685D01*
X100501485Y-68703828D01*
X99930057Y-68189542D02*
X99930057Y-68989542D01*
X99930057Y-68760971D02*
X99872914Y-68875257D01*
X99815771Y-68932400D01*
X99701485Y-68989542D01*
X99587200Y-68989542D01*
X98672914Y-68189542D02*
X98672914Y-69389542D01*
X98672914Y-68246685D02*
X98787200Y-68189542D01*
X99015771Y-68189542D01*
X99130057Y-68246685D01*
X99187200Y-68303828D01*
X99244342Y-68418114D01*
X99244342Y-68760971D01*
X99187200Y-68875257D01*
X99130057Y-68932400D01*
X99015771Y-68989542D01*
X98787200Y-68989542D01*
X98672914Y-68932400D01*
X97187200Y-69046685D02*
X97187200Y-69103828D01*
X97244342Y-68932400D02*
X97244342Y-69103828D01*
X97301485Y-68818114D02*
X97301485Y-69103828D01*
X97358628Y-68703828D02*
X97358628Y-69103828D01*
X97415771Y-68646685D02*
X97415771Y-69103828D01*
X97472914Y-68532400D02*
X97472914Y-69103828D01*
X97530057Y-68418114D02*
X97530057Y-69103828D01*
X97587200Y-68303828D02*
X97587200Y-69103828D01*
X97644342Y-68189542D02*
X97644342Y-69103828D01*
X97701485Y-68303828D02*
X97701485Y-69103828D01*
X97758628Y-68418114D02*
X97758628Y-69103828D01*
X97815771Y-68532400D02*
X97815771Y-69103828D01*
X97872914Y-68646685D02*
X97872914Y-69103828D01*
X97930057Y-68703828D02*
X97930057Y-69103828D01*
X97987200Y-68818114D02*
X97987200Y-69103828D01*
X98044342Y-68932400D02*
X98044342Y-69103828D01*
X98101485Y-69103828D02*
X97644342Y-68246685D01*
X97187200Y-69103828D01*
X98101485Y-69046685D02*
X98101485Y-69103828D01*
X97644342Y-68189542D02*
X98158628Y-69103828D01*
X97130057Y-69103828D01*
X97644342Y-68189542D01*
D12*
X122622000Y-125790000D02*
X127822000Y-125790000D01*
X122622000Y-77470000D02*
X122622000Y-125790000D01*
X127822000Y-74870000D02*
X127822000Y-125790000D01*
X122622000Y-77470000D02*
X125222000Y-77470000D01*
X125222000Y-77470000D02*
X125222000Y-74870000D01*
X125222000Y-74870000D02*
X127822000Y-74870000D01*
X122622000Y-76200000D02*
X122622000Y-74870000D01*
X122622000Y-74870000D02*
X123952000Y-74870000D01*
X116362000Y-74189000D02*
X116362000Y-88159000D01*
X116362000Y-88159000D02*
X102392000Y-88159000D01*
X102392000Y-88159000D02*
X102392000Y-74189000D01*
X102392000Y-74189000D02*
X116362000Y-74189000D01*
X82791800Y-74189000D02*
X96761800Y-74189000D01*
X82791800Y-88159000D02*
X82791800Y-74189000D01*
X96761800Y-88159000D02*
X82791800Y-88159000D01*
X96761800Y-74189000D02*
X96761800Y-88159000D01*
X116362000Y-93789000D02*
X116362000Y-107759000D01*
X116362000Y-107759000D02*
X102392000Y-107759000D01*
X102392000Y-107759000D02*
X102392000Y-93789000D01*
X102392000Y-93789000D02*
X116362000Y-93789000D01*
X82791800Y-93789000D02*
X96761800Y-93789000D01*
X82791800Y-107759000D02*
X82791800Y-93789000D01*
X96761800Y-107759000D02*
X82791800Y-107759000D01*
X96761800Y-93789000D02*
X96761800Y-107759000D01*
X116362000Y-113389000D02*
X116362000Y-127359000D01*
X116362000Y-127359000D02*
X102392000Y-127359000D01*
X102392000Y-127359000D02*
X102392000Y-113389000D01*
X102392000Y-113389000D02*
X116362000Y-113389000D01*
X82791800Y-113389000D02*
X96761800Y-113389000D01*
X82791800Y-127359000D02*
X82791800Y-113389000D01*
X96761800Y-127359000D02*
X82791800Y-127359000D01*
X96761800Y-113389000D02*
X96761800Y-127359000D01*
D13*
X121942380Y-85256666D02*
X121466190Y-85590000D01*
X121942380Y-85828095D02*
X120942380Y-85828095D01*
X120942380Y-85447142D01*
X120990000Y-85351904D01*
X121037619Y-85304285D01*
X121132857Y-85256666D01*
X121275714Y-85256666D01*
X121370952Y-85304285D01*
X121418571Y-85351904D01*
X121466190Y-85447142D01*
X121466190Y-85828095D01*
X121942380Y-84304285D02*
X121942380Y-84875714D01*
X121942380Y-84590000D02*
X120942380Y-84590000D01*
X121085238Y-84685238D01*
X121180476Y-84780476D01*
X121228095Y-84875714D01*
X121942380Y-89550766D02*
X121466190Y-89884100D01*
X121942380Y-90122195D02*
X120942380Y-90122195D01*
X120942380Y-89741242D01*
X120990000Y-89646004D01*
X121037619Y-89598385D01*
X121132857Y-89550766D01*
X121275714Y-89550766D01*
X121370952Y-89598385D01*
X121418571Y-89646004D01*
X121466190Y-89741242D01*
X121466190Y-90122195D01*
X121037619Y-89169814D02*
X120990000Y-89122195D01*
X120942380Y-89026957D01*
X120942380Y-88788861D01*
X120990000Y-88693623D01*
X121037619Y-88646004D01*
X121132857Y-88598385D01*
X121228095Y-88598385D01*
X121370952Y-88646004D01*
X121942380Y-89217433D01*
X121942380Y-88598385D01*
X121942380Y-93740266D02*
X121466190Y-94073600D01*
X121942380Y-94311695D02*
X120942380Y-94311695D01*
X120942380Y-93930742D01*
X120990000Y-93835504D01*
X121037619Y-93787885D01*
X121132857Y-93740266D01*
X121275714Y-93740266D01*
X121370952Y-93787885D01*
X121418571Y-93835504D01*
X121466190Y-93930742D01*
X121466190Y-94311695D01*
X120942380Y-93406933D02*
X120942380Y-92787885D01*
X121323333Y-93121219D01*
X121323333Y-92978361D01*
X121370952Y-92883123D01*
X121418571Y-92835504D01*
X121513809Y-92787885D01*
X121751904Y-92787885D01*
X121847142Y-92835504D01*
X121894761Y-92883123D01*
X121942380Y-92978361D01*
X121942380Y-93264076D01*
X121894761Y-93359314D01*
X121847142Y-93406933D01*
X121942380Y-97905866D02*
X121466190Y-98239200D01*
X121942380Y-98477295D02*
X120942380Y-98477295D01*
X120942380Y-98096342D01*
X120990000Y-98001104D01*
X121037619Y-97953485D01*
X121132857Y-97905866D01*
X121275714Y-97905866D01*
X121370952Y-97953485D01*
X121418571Y-98001104D01*
X121466190Y-98096342D01*
X121466190Y-98477295D01*
X121275714Y-97048723D02*
X121942380Y-97048723D01*
X120894761Y-97286819D02*
X121609047Y-97524914D01*
X121609047Y-96905866D01*
X121942380Y-102199666D02*
X121466190Y-102533000D01*
X121942380Y-102771095D02*
X120942380Y-102771095D01*
X120942380Y-102390142D01*
X120990000Y-102294904D01*
X121037619Y-102247285D01*
X121132857Y-102199666D01*
X121275714Y-102199666D01*
X121370952Y-102247285D01*
X121418571Y-102294904D01*
X121466190Y-102390142D01*
X121466190Y-102771095D01*
X120942380Y-101294904D02*
X120942380Y-101771095D01*
X121418571Y-101818714D01*
X121370952Y-101771095D01*
X121323333Y-101675857D01*
X121323333Y-101437761D01*
X121370952Y-101342523D01*
X121418571Y-101294904D01*
X121513809Y-101247285D01*
X121751904Y-101247285D01*
X121847142Y-101294904D01*
X121894761Y-101342523D01*
X121942380Y-101437761D01*
X121942380Y-101675857D01*
X121894761Y-101771095D01*
X121847142Y-101818714D01*
X121993380Y-106389666D02*
X121517190Y-106723000D01*
X121993380Y-106961095D02*
X120993380Y-106961095D01*
X120993380Y-106580142D01*
X121041000Y-106484904D01*
X121088619Y-106437285D01*
X121183857Y-106389666D01*
X121326714Y-106389666D01*
X121421952Y-106437285D01*
X121469571Y-106484904D01*
X121517190Y-106580142D01*
X121517190Y-106961095D01*
X120993380Y-105532523D02*
X120993380Y-105723000D01*
X121041000Y-105818238D01*
X121088619Y-105865857D01*
X121231476Y-105961095D01*
X121421952Y-106008714D01*
X121802904Y-106008714D01*
X121898142Y-105961095D01*
X121945761Y-105913476D01*
X121993380Y-105818238D01*
X121993380Y-105627761D01*
X121945761Y-105532523D01*
X121898142Y-105484904D01*
X121802904Y-105437285D01*
X121564809Y-105437285D01*
X121469571Y-105484904D01*
X121421952Y-105532523D01*
X121374333Y-105627761D01*
X121374333Y-105818238D01*
X121421952Y-105913476D01*
X121469571Y-105961095D01*
X121564809Y-106008714D01*
X117655761Y-82507333D02*
X117703380Y-82364476D01*
X117703380Y-82126380D01*
X117655761Y-82031142D01*
X117608142Y-81983523D01*
X117512904Y-81935904D01*
X117417666Y-81935904D01*
X117322428Y-81983523D01*
X117274809Y-82031142D01*
X117227190Y-82126380D01*
X117179571Y-82316857D01*
X117131952Y-82412095D01*
X117084333Y-82459714D01*
X116989095Y-82507333D01*
X116893857Y-82507333D01*
X116798619Y-82459714D01*
X116751000Y-82412095D01*
X116703380Y-82316857D01*
X116703380Y-82078761D01*
X116751000Y-81935904D01*
X116703380Y-81602571D02*
X117703380Y-81364476D01*
X116989095Y-81174000D01*
X117703380Y-80983523D01*
X116703380Y-80745428D01*
X117703380Y-79840666D02*
X117703380Y-80412095D01*
X117703380Y-80126380D02*
X116703380Y-80126380D01*
X116846238Y-80221619D01*
X116941476Y-80316857D01*
X116989095Y-80412095D01*
X98055561Y-82507333D02*
X98103180Y-82364476D01*
X98103180Y-82126380D01*
X98055561Y-82031142D01*
X98007942Y-81983523D01*
X97912704Y-81935904D01*
X97817466Y-81935904D01*
X97722228Y-81983523D01*
X97674609Y-82031142D01*
X97626990Y-82126380D01*
X97579371Y-82316857D01*
X97531752Y-82412095D01*
X97484133Y-82459714D01*
X97388895Y-82507333D01*
X97293657Y-82507333D01*
X97198419Y-82459714D01*
X97150800Y-82412095D01*
X97103180Y-82316857D01*
X97103180Y-82078761D01*
X97150800Y-81935904D01*
X97103180Y-81602571D02*
X98103180Y-81364476D01*
X97388895Y-81174000D01*
X98103180Y-80983523D01*
X97103180Y-80745428D01*
X97198419Y-80412095D02*
X97150800Y-80364476D01*
X97103180Y-80269238D01*
X97103180Y-80031142D01*
X97150800Y-79935904D01*
X97198419Y-79888285D01*
X97293657Y-79840666D01*
X97388895Y-79840666D01*
X97531752Y-79888285D01*
X98103180Y-80459714D01*
X98103180Y-79840666D01*
X117655761Y-102107333D02*
X117703380Y-101964476D01*
X117703380Y-101726380D01*
X117655761Y-101631142D01*
X117608142Y-101583523D01*
X117512904Y-101535904D01*
X117417666Y-101535904D01*
X117322428Y-101583523D01*
X117274809Y-101631142D01*
X117227190Y-101726380D01*
X117179571Y-101916857D01*
X117131952Y-102012095D01*
X117084333Y-102059714D01*
X116989095Y-102107333D01*
X116893857Y-102107333D01*
X116798619Y-102059714D01*
X116751000Y-102012095D01*
X116703380Y-101916857D01*
X116703380Y-101678761D01*
X116751000Y-101535904D01*
X116703380Y-101202571D02*
X117703380Y-100964476D01*
X116989095Y-100774000D01*
X117703380Y-100583523D01*
X116703380Y-100345428D01*
X116703380Y-100059714D02*
X116703380Y-99440666D01*
X117084333Y-99774000D01*
X117084333Y-99631142D01*
X117131952Y-99535904D01*
X117179571Y-99488285D01*
X117274809Y-99440666D01*
X117512904Y-99440666D01*
X117608142Y-99488285D01*
X117655761Y-99535904D01*
X117703380Y-99631142D01*
X117703380Y-99916857D01*
X117655761Y-100012095D01*
X117608142Y-100059714D01*
X98055561Y-102107333D02*
X98103180Y-101964476D01*
X98103180Y-101726380D01*
X98055561Y-101631142D01*
X98007942Y-101583523D01*
X97912704Y-101535904D01*
X97817466Y-101535904D01*
X97722228Y-101583523D01*
X97674609Y-101631142D01*
X97626990Y-101726380D01*
X97579371Y-101916857D01*
X97531752Y-102012095D01*
X97484133Y-102059714D01*
X97388895Y-102107333D01*
X97293657Y-102107333D01*
X97198419Y-102059714D01*
X97150800Y-102012095D01*
X97103180Y-101916857D01*
X97103180Y-101678761D01*
X97150800Y-101535904D01*
X97103180Y-101202571D02*
X98103180Y-100964476D01*
X97388895Y-100774000D01*
X98103180Y-100583523D01*
X97103180Y-100345428D01*
X97436514Y-99535904D02*
X98103180Y-99535904D01*
X97055561Y-99774000D02*
X97769847Y-100012095D01*
X97769847Y-99393047D01*
X117655761Y-121707333D02*
X117703380Y-121564476D01*
X117703380Y-121326380D01*
X117655761Y-121231142D01*
X117608142Y-121183523D01*
X117512904Y-121135904D01*
X117417666Y-121135904D01*
X117322428Y-121183523D01*
X117274809Y-121231142D01*
X117227190Y-121326380D01*
X117179571Y-121516857D01*
X117131952Y-121612095D01*
X117084333Y-121659714D01*
X116989095Y-121707333D01*
X116893857Y-121707333D01*
X116798619Y-121659714D01*
X116751000Y-121612095D01*
X116703380Y-121516857D01*
X116703380Y-121278761D01*
X116751000Y-121135904D01*
X116703380Y-120802571D02*
X117703380Y-120564476D01*
X116989095Y-120374000D01*
X117703380Y-120183523D01*
X116703380Y-119945428D01*
X116703380Y-119088285D02*
X116703380Y-119564476D01*
X117179571Y-119612095D01*
X117131952Y-119564476D01*
X117084333Y-119469238D01*
X117084333Y-119231142D01*
X117131952Y-119135904D01*
X117179571Y-119088285D01*
X117274809Y-119040666D01*
X117512904Y-119040666D01*
X117608142Y-119088285D01*
X117655761Y-119135904D01*
X117703380Y-119231142D01*
X117703380Y-119469238D01*
X117655761Y-119564476D01*
X117608142Y-119612095D01*
X98055561Y-121707333D02*
X98103180Y-121564476D01*
X98103180Y-121326380D01*
X98055561Y-121231142D01*
X98007942Y-121183523D01*
X97912704Y-121135904D01*
X97817466Y-121135904D01*
X97722228Y-121183523D01*
X97674609Y-121231142D01*
X97626990Y-121326380D01*
X97579371Y-121516857D01*
X97531752Y-121612095D01*
X97484133Y-121659714D01*
X97388895Y-121707333D01*
X97293657Y-121707333D01*
X97198419Y-121659714D01*
X97150800Y-121612095D01*
X97103180Y-121516857D01*
X97103180Y-121278761D01*
X97150800Y-121135904D01*
X97103180Y-120802571D02*
X98103180Y-120564476D01*
X97388895Y-120374000D01*
X98103180Y-120183523D01*
X97103180Y-119945428D01*
X97103180Y-119135904D02*
X97103180Y-119326380D01*
X97150800Y-119421619D01*
X97198419Y-119469238D01*
X97341276Y-119564476D01*
X97531752Y-119612095D01*
X97912704Y-119612095D01*
X98007942Y-119564476D01*
X98055561Y-119516857D01*
X98103180Y-119421619D01*
X98103180Y-119231142D01*
X98055561Y-119135904D01*
X98007942Y-119088285D01*
X97912704Y-119040666D01*
X97674609Y-119040666D01*
X97579371Y-119088285D01*
X97531752Y-119135904D01*
X97484133Y-119231142D01*
X97484133Y-119421619D01*
X97531752Y-119516857D01*
X97579371Y-119564476D01*
X97674609Y-119612095D01*
M02*
